<svg width="384" height="112" viewBox="0 0 384 112" fill="none" xmlns="http://www.w3.org/2000/svg">
<path d="M219.25 103.718V103.52C221.427 103.238 221.738 102.504 221.738 99.9342V86.1271C221.738 83.36 221.427 82.8236 219.25 82.5412V82.3436H227.674C232.48 82.3436 236.353 83.4447 236.353 87.5953C236.353 91.8589 231.774 93.0447 226.883 93.0447H224.904V99.9342C224.904 102.504 225.243 103.238 227.646 103.52V103.718H219.25ZM224.904 92.5365H226.544C229.908 92.5365 233.046 91.3224 233.046 87.5953C233.046 84.0377 230.36 82.8518 227.25 82.8518H224.904V92.5365ZM239.554 104.085C237.292 104.085 235.624 102.871 235.624 100.527C235.624 98.0706 237.49 97.0824 240.996 96.1224C243.738 95.36 245.01 94.9647 245.067 92.7624C245.095 90.9271 244.105 89.9389 242.409 89.9389C240.854 89.9389 238.847 91.0118 238.847 94.3718H236.246C236.388 90.8141 239.95 89.4306 242.777 89.4306C245.575 89.4306 247.894 90.6447 247.894 94.1459V100.866C247.894 102.165 248.289 102.814 249.053 102.814C249.59 102.814 249.872 102.645 250.24 102.334L250.268 102.701C249.477 103.548 248.713 104 247.611 104C246.113 104 245.038 102.984 245.038 100.668V99.1718C244.388 101.967 242.551 104.085 239.554 104.085ZM238.395 99.9342C238.395 101.657 239.441 102.475 240.77 102.475C243.399 102.475 245.067 100.075 245.067 96.433V94.6542C244.756 95.5294 243.681 95.9247 241.816 96.4894C239.695 97.1671 238.395 97.9294 238.395 99.9342ZM261.83 103.718C262.084 102.56 262.169 101.572 262.169 100.188V99.4542C261.49 102.052 259.794 104 256.854 104C253.207 104 251.087 100.922 251.087 96.8847C251.087 92.4518 253.631 89.4871 257.222 89.4871C259.398 89.4871 261.236 90.5883 262.169 92.5365V85.5059C262.169 83.2753 261.915 82.8518 260.247 82.6542V82.513L265.392 81.553L265.42 81.6942C265.137 82.033 265.052 82.6542 265.052 85.5059V99.9342C265.052 102.504 265.307 103.238 267.031 103.52V103.718H261.83ZM254.169 96.8847C254.169 100.301 255.299 102.955 257.928 102.955C260.642 102.955 262.169 100.301 262.169 96.4894V93.3553C261.604 91.5483 259.992 90.3906 258.268 90.3906C255.695 90.3906 254.169 92.9036 254.169 96.8847ZM279.25 103.718C279.505 102.56 279.589 101.572 279.589 100.188V99.4542C278.911 102.052 277.215 104 274.275 104C270.628 104 268.508 100.922 268.508 96.8847C268.508 92.4518 271.052 89.4871 274.642 89.4871C276.819 89.4871 278.656 90.5883 279.589 92.5365V85.5059C279.589 83.2753 279.335 82.8518 277.667 82.6542V82.513L282.812 81.553L282.84 81.6942C282.558 82.033 282.473 82.6542 282.473 85.5059V99.9342C282.473 102.504 282.727 103.238 284.452 103.52V103.718H279.25ZM271.589 96.8847C271.589 100.301 272.72 102.955 275.349 102.955C278.063 102.955 279.589 100.301 279.589 96.4894V93.3553C279.024 91.5483 277.413 90.3906 275.688 90.3906C273.116 90.3906 271.589 92.9036 271.589 96.8847ZM285.164 103.718V103.52C287.115 103.238 287.398 102.504 287.398 99.9342V85.5059C287.398 83.3318 287.002 82.9083 285.306 82.7106V82.513L290.592 81.553L290.649 81.7506C290.366 82.0894 290.253 82.6542 290.253 85.5059V99.9342C290.253 102.504 290.507 103.238 292.373 103.52V103.718H285.164ZM300.692 104.198C296.622 104.198 293.851 101.374 293.851 96.913C293.851 92.2824 297.017 89.4306 300.919 89.4306C304.82 89.4306 307.194 91.9718 307.308 95.3036H296.791C296.763 95.5577 296.763 95.8118 296.763 96.0942C296.763 99.7647 298.205 102.786 301.767 102.786C304.594 102.786 306.262 100.979 307.081 98.0706H307.477C306.686 101.826 304.452 104.198 300.692 104.198ZM296.848 94.6824H304.509C304.452 92 303.265 89.9106 300.89 89.9106C298.629 89.9106 297.187 91.8589 296.848 94.6824ZM327.728 104.085C320.971 104.085 317.07 99.2847 317.07 93.2142C317.07 86.5224 321.763 82.0894 328.095 82.0894C333.014 82.0894 336.803 84.7153 338.046 89.5718H335.022C334.258 85.5342 331.94 82.5977 328.124 82.5977C323.29 82.5977 320.491 87.2 320.491 92.48C320.491 98.0706 323.205 102.391 328.859 102.391C333.834 102.391 336.944 99.2283 337.764 94.2871H338.216C337.424 100.047 333.862 104.085 327.728 104.085ZM339.385 103.718V103.52C341.336 103.238 341.618 102.504 341.618 99.9342V85.5059C341.618 83.3318 341.223 82.9083 339.526 82.7106V82.513L344.813 81.553L344.869 81.7506C344.587 82.0894 344.474 82.6542 344.474 85.5059V99.9342C344.474 102.504 344.728 103.238 346.594 103.52V103.718H339.385ZM353.669 104.198C350.955 104.198 349.372 102.729 349.372 99.2565V93.6942C349.372 91.1247 349.118 90.3906 347.393 90.1083V89.9106H354.065V90.1083C352.482 90.3906 352.256 91.1247 352.256 93.6942V99.1436C352.256 101.798 353.132 102.899 355.026 102.899C357.09 102.899 358.56 100.979 359.041 98.5789V93.6942C359.041 91.1247 358.814 90.3906 357.231 90.1083V89.9106H364.016V90.1083C362.179 90.3906 361.924 91.1247 361.924 93.6942V99.9342C361.924 102.701 362.179 103.238 364.016 103.52V103.718H358.532C358.956 103.407 359.041 102.701 359.041 99.9342V99.793C358.277 102.165 356.44 104.198 353.669 104.198ZM364.839 103.718V103.52C366.79 103.238 367.073 102.504 367.073 99.9342V85.5342C367.073 83.3036 366.818 82.8518 365.15 82.6542V82.513L370.295 81.553L370.324 81.7224C370.041 82.0612 369.956 82.6542 369.956 85.5342V94.0047C370.606 91.3789 372.274 89.4306 375.327 89.4306C378.889 89.4306 381.038 92.48 381.038 96.6024C381.038 100.979 378.494 104 374.988 104C372.84 104 370.946 102.899 369.956 100.894C370.013 102.024 370.097 102.927 370.38 103.718H364.839ZM369.956 100.132C370.663 102.024 372.161 103.068 373.829 103.068C376.486 103.068 377.985 100.612 377.985 96.6024C377.985 93.2142 376.826 90.5036 374.225 90.5036C371.483 90.5036 369.956 93.1577 369.956 97.0259V99.7365V100.132Z" fill="#FFF4DE"/>
<path d="M6.59766 94.3059H203.074" stroke="#FFF4DE" stroke-width="2" stroke-linecap="round"/>
<path d="M267.085 2.35303C262.439 2.35303 258.672 6.03693 258.672 10.5809C258.672 15.1253 262.439 18.8087 267.085 18.8087C271.732 18.8087 275.499 15.1253 275.499 10.5809C275.499 6.03693 271.732 2.35303 267.085 2.35303ZM267.093 2.99116C267.697 2.99116 268.186 3.18286 268.186 3.41964C268.186 3.65642 267.697 3.84856 267.093 3.84856C266.489 3.84856 265.999 3.65642 265.999 3.41964C265.999 3.18286 266.489 2.99116 267.093 2.99116ZM260.5 9.6902C260.473 10.3717 260.215 10.9153 259.924 10.9039C259.633 10.8925 259.418 10.3305 259.445 9.64908C259.471 8.96719 259.729 8.42404 260.02 8.43538C260.312 8.44677 260.526 9.00832 260.5 9.6902ZM262.639 16.3972C262.474 16.5775 261.951 16.3683 261.471 15.9297C260.991 15.4916 260.736 14.9896 260.901 14.8093C261.066 14.6289 261.588 14.8382 262.069 15.2767C262.548 15.7152 262.804 16.2168 262.639 16.3972ZM262.351 5.39091C261.896 5.85529 261.385 6.09298 261.211 5.92183C261.036 5.75072 261.263 5.23599 261.718 4.77162C262.173 4.30725 262.684 4.06915 262.858 4.24028C263.033 4.41141 262.805 4.92658 262.351 5.39091ZM264.276 12.9675C263.669 12.9675 263.175 12.4747 263.175 11.8668C263.175 11.2589 263.669 10.766 264.276 10.766C264.884 10.766 265.377 11.2589 265.377 11.8668C265.377 12.4747 264.884 12.9675 264.276 12.9675ZM266.134 7.93162C266.048 7.76531 265.999 7.57712 265.999 7.37712C265.999 6.70442 266.545 6.15947 267.216 6.15947C267.889 6.15947 268.434 6.70442 268.434 7.37712C268.434 7.75962 268.258 8.10013 267.982 8.32333C267.982 8.3238 267.982 8.3238 267.982 8.3238L267.97 8.33387C267.763 8.49712 267.501 8.59472 267.216 8.59472C266.745 8.59472 266.336 8.32644 266.134 7.93467L266.136 7.93209C266.135 7.93162 266.134 7.93162 266.134 7.93162ZM267.361 17.2865C266.713 17.272 266.193 17.0248 266.199 16.7337C266.206 16.4431 266.736 16.2186 267.384 16.233C268.033 16.247 268.553 16.4943 268.547 16.7854C268.54 17.0764 268.009 17.3009 267.361 17.2865ZM270.423 12.9618C270.387 12.9654 270.352 12.9675 270.316 12.9675C269.771 12.9675 269.314 12.557 269.188 12.0024L269.219 11.9954L269.19 12.002C269.168 11.9031 269.154 11.8002 269.154 11.6939C269.154 10.9901 269.674 10.4198 270.316 10.4198C270.957 10.4198 271.477 10.9901 271.477 11.6939C271.477 12.3574 271.014 12.9023 270.423 12.9618ZM270.847 4.10986C270.957 3.95448 271.472 4.12999 271.996 4.50245C272.52 4.87449 272.855 5.30206 272.745 5.45745C272.634 5.61284 272.12 5.43731 271.596 5.06484C271.072 4.69284 270.736 4.26523 270.847 4.10986ZM272.821 15.6824C272.802 15.7025 272.783 15.7223 272.764 15.742L272.757 15.7494C272.336 16.1844 271.91 16.4396 271.786 16.3245C271.758 16.2987 271.748 16.2558 271.753 16.1998L271.754 16.1954C271.776 15.9905 272.004 15.6159 272.348 15.2447C272.789 14.7695 273.253 14.4819 273.383 14.6027C273.513 14.7235 273.261 15.2071 272.821 15.6824ZM274.487 10.419C274.244 10.4447 273.988 9.90686 273.914 9.21707C273.84 8.52733 273.977 7.94738 274.22 7.92154C274.463 7.89529 274.72 8.43364 274.794 9.123C274.867 9.81275 274.73 10.3927 274.487 10.419Z" fill="#FFF4DE"/>
<path d="M69.9344 53.4588L62.49 66.1647L61.0765 68.1412C60.5111 68.8941 59.6004 69.2706 58.3438 69.2706C58.0295 69.1449 57.7157 68.9882 57.4014 68.8C57.0872 68.6118 56.2391 68.0155 54.8571 67.0118C53.5379 66.0706 52.1244 65.6 50.6166 65.6H11.6041C8.77714 65.6 6.95528 65.4118 6.13861 65.0353C5.38475 64.6588 5.00781 63.7177 5.00781 62.2118C5.00781 61.0824 5.38475 60.3294 6.13861 59.9529L8.9656 58.6353C10.0964 58.1332 10.8503 57.5685 11.2272 56.9412C11.6041 56.2508 11.7926 55.592 11.7926 54.9647V12.8C11.7926 11.4824 11.2272 10.5412 10.0964 9.97647L6.79824 8.75294C5.85591 8.37647 5.38475 7.5608 5.38475 6.30588C5.38475 4.98824 5.82448 4.04706 6.70401 3.48235C7.64634 2.8549 9.46815 2.54118 12.1695 2.54118H43.1722C44.5543 2.54118 46.0306 2.16471 47.6012 1.41176C49.2347 0.596075 50.4598 0.125488 51.2763 0C52.2186 0 52.9098 0.188235 53.3494 0.564706C53.8521 0.941172 54.5118 1.63137 55.3283 2.63529L62.6785 13.7412C62.9296 14.1176 63.1497 14.5255 63.3381 14.9647C63.5266 15.3412 63.6524 15.8432 63.7151 16.4706C63.7151 17.1608 63.4639 17.7568 62.9612 18.2588C62.5216 18.698 61.8304 18.9804 60.8881 19.1059C58.0611 16.8471 54.9514 14.8392 51.559 13.0824C48.2293 11.3255 44.4286 10.4471 40.1568 10.4471H34.597C31.5187 10.4471 29.6027 10.8863 28.8488 11.7647C28.0949 12.6432 27.718 14.5568 27.718 17.5059V20.8C27.718 22.2432 27.9065 23.3412 28.2834 24.0941C28.7231 24.7216 29.7283 25.0353 31.2989 25.0353H34.1259C36.3246 25.0353 37.8323 24.251 38.649 22.6824C39.5285 21.051 40.5337 20.2353 41.6645 20.2353C42.6068 20.2353 43.3293 20.4863 43.8319 20.9882L44.9627 22.4941L52.5013 33.8824C53.0667 34.5726 53.381 35.3882 53.4436 36.3294C53.4436 38.4 52.4071 39.4353 50.334 39.4353C49.2032 39.4353 48.1039 38.9333 47.0358 37.9294C45.2139 36.4863 43.235 35.3255 41.0991 34.4471C38.9631 33.5686 36.7644 33.1294 34.5028 33.1294C31.8643 33.1294 30.0738 33.2235 29.1315 33.4118C28.252 33.6 27.8122 35.2 27.8122 38.2118V51.6706C27.8122 53.5529 28.2205 54.8391 29.0373 55.5294C29.8539 56.2198 31.5816 56.5647 34.2201 56.5647H46.4704C50.8678 56.5647 54.8256 55.6235 58.3438 53.7412L68.0498 47.6235C69.746 47.6235 70.5941 48.6273 70.5941 50.6353C70.5941 51.6391 70.374 52.5802 69.9344 53.4588Z" fill="#FFF4DE"/>
<path d="M87.5109 52.3294C87.5109 54.2118 88.359 55.8118 90.0552 57.1294C91.8141 58.3845 93.7619 59.0118 95.8977 59.0118C98.5362 59.0118 100.704 57.8508 102.4 55.5294L101.081 51.4824C100.892 50.7294 100.672 49.9139 100.421 49.0353C100.17 48.1567 99.7612 47.0904 99.1958 45.8353C95.6776 45.8353 92.8507 46.3059 90.7149 47.2471C88.5791 48.1882 87.5109 49.8824 87.5109 52.3294ZM116.441 67.0118L111.258 66.2588C108.808 65.5685 106.734 64.1567 105.038 62.0235C103.593 63.3412 101.301 64.5021 98.1593 65.5059C95.0812 66.5097 91.7199 67.0118 88.0763 67.0118C83.6789 67.0118 80.0981 65.8824 77.3338 63.6235C74.5694 61.3021 73.1875 58.2273 73.1875 54.4C73.1875 48.1882 75.606 44.1412 80.4434 42.2588C85.2809 40.3765 91.0918 39.4353 97.8766 39.4353C97.3112 37.051 96.4631 35.0745 95.3323 33.5059C94.2642 31.9373 92.5369 31.153 90.1495 31.153C88.2021 31.153 86.3801 31.5922 84.6839 32.4706L79.4069 35.3882C78.4019 35.3882 77.6791 35.2941 77.2395 35.1059C76.8626 34.9177 76.6741 34.1333 76.6741 32.753C76.6741 31.2471 78.4019 29.302 81.8569 26.9177C85.3751 24.4706 89.5214 23.2471 94.2957 23.2471C101.269 23.2471 105.949 25.3804 108.336 29.6471C110.724 33.9138 112.922 39.8745 114.933 47.5294C116.943 55.1845 119.205 59.0118 121.718 59.0118L122.754 58.8235L123.885 58.5412C124.89 58.5412 125.393 59.2 125.393 60.5177C125.393 62.2744 124.765 63.8118 123.508 65.1294C122.251 66.3845 119.896 67.0118 116.441 67.0118Z" fill="#FFF4DE"/>
<path d="M143.771 23.5293C146.221 23.5293 148.482 23.8116 150.555 24.3764L155.927 26.2587C156.618 26.2587 157.403 25.8195 158.283 24.9411C159.225 23.9999 160.073 23.5293 160.827 23.5293C161.518 23.5293 162.963 25.5372 165.162 29.5528C167.423 33.5685 168.554 36.1097 168.554 37.1764C168.68 38.243 167.957 38.7764 166.387 38.7764C163.748 36.5175 161.298 34.7607 159.036 33.5058C156.775 32.1881 154.922 31.3097 153.477 30.8705C152.095 30.4313 150.524 30.2116 148.765 30.2116C147.446 30.2116 146.315 30.4313 145.373 30.8705C144.493 31.2469 143.991 31.9058 143.865 32.8469C143.865 34.3528 146.598 36.0469 152.063 37.9293C157.592 39.8116 162.021 41.7881 165.35 43.8587C168.742 45.9293 170.439 49.3491 170.439 54.1175C170.439 58.0079 168.931 61.0196 165.915 63.1528C162.9 65.286 159.319 66.3528 155.173 66.3528C151.718 66.3528 149.079 66.1331 147.257 65.694L141.226 64.2822L139.436 65.7881C138.557 66.7293 137.709 67.2625 136.892 67.3881C136.075 67.3881 134.442 65.0352 131.991 60.3293C129.541 55.6234 128.316 52.6432 128.316 51.3881C128.316 50.6978 128.505 50.1646 128.882 49.7881C129.259 49.4117 129.793 49.2234 130.484 49.2234C133.06 51.7331 136.138 53.9919 139.719 55.9999C143.299 58.0079 146.786 59.0117 150.178 59.0117C151.938 59.0117 153.382 58.6978 154.513 58.0705C155.644 57.4432 156.209 56.5646 156.209 55.4352C156.209 53.8667 153.446 52.0469 147.917 49.9764C142.451 47.9058 138.211 45.992 135.195 44.2352C132.18 42.4156 130.672 39.4979 130.672 35.4822C130.672 31.7175 131.96 28.7999 134.536 26.7293C137.112 24.596 140.19 23.5293 143.771 23.5293Z" fill="#FFF4DE"/>
<path d="M180.479 32.2825H176.992C175.924 32.2825 175.045 32.157 174.353 31.906C173.662 31.655 173.285 31.0589 173.223 30.1178C173.223 29.1766 173.411 28.4236 173.788 27.8589L175.578 25.7883L188.394 11.0119L189.619 9.50599C190.122 8.94129 190.687 8.65894 191.315 8.65894C192.069 8.65894 192.635 8.94129 193.012 9.50599C193.451 10.0707 193.608 10.7923 193.483 11.6707V24.1883H207.241V25.6001L207.052 27.7648C206.864 29.3334 206.455 30.7139 205.827 31.906H193.483V49.3178C193.483 52.0787 193.797 54.3686 194.425 56.1883C195.116 57.945 196.247 58.8236 197.818 58.8236C199.011 58.8236 200.519 58.2589 202.341 57.1295C204.162 56.0001 205.45 55.4354 206.204 55.4354C207.084 55.4354 207.712 55.6862 208.089 56.1883C208.529 56.6905 208.811 57.4119 208.937 58.3531C208.937 60.1728 207.147 62.0862 203.566 64.0942C200.048 66.0392 196.624 67.0119 193.294 67.0119C190.028 67.0119 186.918 66.1333 183.965 64.3766C181.075 62.6199 179.631 60.6745 179.631 58.5413L180.007 48.4707L180.479 32.2825Z" fill="#FFF4DE"/>
<path d="M227.419 23.5293C229.869 23.5293 232.131 23.8116 234.204 24.3764L239.575 26.2587C240.266 26.2587 241.052 25.8195 241.931 24.9411C242.873 23.9999 243.721 23.5293 244.475 23.5293C245.166 23.5293 246.612 25.5372 248.81 29.5528C251.072 33.5685 252.202 36.1097 252.202 37.1764C252.328 38.243 251.606 38.7764 250.035 38.7764C247.396 36.5175 244.946 34.7607 242.685 33.5058C240.423 32.1881 238.57 31.3097 237.125 30.8705C235.743 30.4313 234.173 30.2116 232.413 30.2116C231.094 30.2116 229.963 30.4313 229.021 30.8705C228.142 31.2469 227.639 31.9058 227.513 32.8469C227.513 34.3528 230.246 36.0469 235.712 37.9293C241.24 39.8116 245.669 41.7881 248.998 43.8587C252.391 45.9293 254.087 49.3491 254.087 54.1175C254.087 58.0079 252.579 61.0196 249.564 63.1528C246.548 65.286 242.968 66.3528 238.821 66.3528C235.366 66.3528 232.728 66.1331 230.906 65.694L224.875 64.2822L223.084 65.7881C222.205 66.7293 221.357 67.2625 220.54 67.3881C219.724 67.3881 218.09 65.0352 215.64 60.3293C213.19 55.6234 211.965 52.6432 211.965 51.3881C211.965 50.6978 212.153 50.1646 212.53 49.7881C212.907 49.4117 213.441 49.2234 214.132 49.2234C216.708 51.7331 219.786 53.9919 223.367 55.9999C226.948 58.0079 230.435 59.0117 233.827 59.0117C235.586 59.0117 237.031 58.6978 238.162 58.0705C239.292 57.4432 239.858 56.5646 239.858 55.4352C239.858 53.8667 237.094 52.0469 231.565 49.9764C226.1 47.9058 221.859 45.992 218.844 44.2352C215.828 42.4156 214.321 39.4979 214.321 35.4822C214.321 31.7175 215.609 28.7999 218.184 26.7293C220.76 24.596 223.838 23.5293 227.419 23.5293Z" fill="#FFF4DE"/>
<path d="M273.084 23.5293H274.309C274.748 23.6548 274.968 24.2822 274.968 25.4116V55.9058C274.968 57.4116 275.879 58.6352 277.701 59.5764C279.586 60.5175 280.528 61.7095 280.528 63.1528C280.528 63.7175 280.214 64.2822 279.586 64.8469C278.958 65.3491 277.889 65.5999 276.382 65.5999H260.079C258.886 65.5999 258.038 65.3491 257.535 64.8469C257.158 64.3448 256.907 63.7801 256.781 63.1528C256.781 61.7095 257.661 60.5491 259.42 59.6705C261.242 58.7293 262.153 57.4742 262.153 55.9058V37.5528C262.153 36.4234 261.273 35.5764 259.514 35.0117C257.755 34.3842 256.875 33.3489 256.875 31.9058C256.875 30.9019 259.294 29.2705 264.131 27.0117C268.969 24.6901 271.953 23.5293 273.084 23.5293Z" fill="#FFF4DE"/>
<path d="M325.966 2.54126C326.909 2.54126 327.568 2.85499 327.945 3.48244C328.322 4.04714 328.511 4.92559 328.511 6.11773V53.8354C328.511 55.8434 329.39 57.3177 331.149 58.2589C332.909 59.0118 333.788 59.9846 333.788 61.1766C333.788 61.9921 333.286 62.5257 332.28 62.7766L324.364 64.8471L319.37 65.8824C317.8 65.8824 316.795 65.4744 316.355 64.6589C315.978 63.7803 315.789 62.5257 315.789 60.8942L310.701 64.2824C307.874 65.7883 304.827 66.5413 301.56 66.5413C296.095 66.5413 291.76 64.6274 288.556 60.8001C285.352 56.9728 283.75 52.298 283.75 46.7766C283.75 40.3138 285.792 34.7922 289.875 30.2118C294.021 25.6315 299.11 23.3413 305.141 23.3413C307.214 23.3413 308.816 23.4981 309.947 23.8118C311.141 24.0628 313.057 24.9099 315.695 26.353V18.353C315.695 16.0942 314.847 14.6197 313.151 13.9295C311.455 13.1766 310.606 12.1099 310.606 10.7295C310.606 9.41185 312.837 7.71773 317.297 5.64714C321.758 3.57655 324.647 2.54126 325.966 2.54126ZM296.943 41.1295C296.943 45.9609 298.168 49.7883 300.618 52.6119C303.068 55.3728 305.738 56.753 308.628 56.753C311.078 56.753 312.868 55.6236 313.999 53.3648C315.13 51.106 315.695 48.7215 315.695 46.2118C315.695 40.3138 314.91 36.1099 313.339 33.6001C311.769 31.0903 309.35 29.8354 306.083 29.8354C303.068 29.8354 300.775 30.9021 299.204 33.0354C297.697 35.106 296.943 37.804 296.943 41.1295Z" fill="#FFF4DE"/>
<path d="M360.217 23.4353C365.305 23.4353 369.702 24.8471 373.409 27.6706C377.116 30.4941 379.346 33.7882 380.1 37.553L380.005 38.4941L378.592 39.4353L354.091 51.3882C354.342 52.8315 355.693 54.4 358.143 56.0941C360.719 57.6626 363.546 58.4471 366.624 58.4471C370.143 58.4471 373.252 57.3177 375.953 55.0588C378.655 52.8 380.539 51.6706 381.607 51.6706C383.052 51.6706 383.775 52.4861 383.775 54.1177C383.775 56 381.639 58.5727 377.367 61.8353C373.095 65.0979 367.284 66.7294 359.934 66.7294C352.584 66.7294 346.93 64.7529 342.972 60.8C339.014 56.7845 337.035 51.6391 337.035 45.3647C337.035 38.8392 339.108 33.5686 343.255 29.5529C347.463 25.4745 353.117 23.4353 360.217 23.4353ZM349.757 37.8353C349.757 38.7138 349.757 39.5294 349.757 40.2824C349.757 41.0353 349.819 41.7882 349.945 42.5412C350.07 43.2941 350.479 44.3294 351.17 45.6471L365.776 38.5882C365.776 36.7686 364.897 34.8863 363.138 32.9412C361.378 30.9961 359.4 30.0235 357.201 30.0235L354.657 30.3059C353.526 30.4941 352.52 31.2157 351.641 32.4706C350.825 33.6627 350.29 34.6039 350.039 35.2941C349.851 35.9843 349.757 36.8314 349.757 37.8353Z" fill="#FFF4DE"/>
</svg>
