<svg width="228" height="233" viewBox="0 0 228 233" fill="none" xmlns="http://www.w3.org/2000/svg">
<path d="M0.0898438 116.35C0.0898438 180.609 51.0958 232.699 114.009 232.699C176.929 232.699 227.929 180.609 227.929 116.35C227.929 52.0907 176.929 -8.58307e-06 114.009 -8.58307e-06C51.0958 -8.58307e-06 0.0898438 52.0907 0.0898438 116.35ZM8.92514 116.253C8.92514 107.902 11.5794 101.127 14.8578 101.127C18.1362 101.127 20.7964 107.902 20.7964 116.253C20.7964 124.603 18.1362 131.372 14.8578 131.372C11.5794 131.372 8.92514 124.603 8.92514 116.253ZM101.678 207.423C111.113 207.793 118.639 211.356 118.482 215.386C118.324 219.416 110.543 222.379 101.108 222.01C91.6667 221.646 84.1464 218.083 84.3039 214.053C84.4615 210.023 92.2363 207.06 101.678 207.423ZM194.539 177.845C197.036 180.124 194.139 187.353 188.067 193.989C182.001 200.624 175.051 204.157 172.554 201.873C170.057 199.594 172.954 192.365 179.026 185.729C185.098 179.094 192.042 175.567 194.539 177.845ZM42.1514 181.827C48.581 188.117 51.8715 195.176 49.5021 197.588C47.1327 200.006 40.0062 196.861 33.5767 190.571C27.1472 184.281 23.8506 177.221 26.22 174.809C28.5894 172.397 35.7219 175.536 42.1514 181.827ZM147.054 155.199C147.054 163.605 140.231 170.422 131.813 170.422C123.396 170.422 116.573 163.605 116.573 155.199C116.573 146.794 123.396 139.977 131.813 139.977C140.231 139.977 147.054 146.794 147.054 155.199ZM77.329 129.512C75.0263 130.693 72.4205 131.372 69.6512 131.372C60.3371 131.372 52.7926 123.834 52.7926 114.538C52.7926 105.236 60.3371 97.6973 69.6512 97.6973C74.9475 97.6973 79.6621 100.139 82.7526 103.951C82.7587 103.951 82.7587 103.951 82.7587 103.951L82.898 104.121C85.1584 106.987 86.5097 110.605 86.5097 114.538C86.5097 121.058 82.795 126.712 77.3714 129.512L77.3351 129.487C77.329 129.5 77.329 129.506 77.329 129.512ZM206.853 112.538C206.653 121.5 203.229 128.694 199.199 128.609C195.175 128.518 192.067 121.179 192.267 112.217C192.461 103.254 195.884 96.0551 199.914 96.146C203.944 96.2308 207.053 103.575 206.853 112.538ZM146.975 70.1976H146.981C147.03 70.6884 147.054 71.1793 147.054 71.6823C147.054 79.2086 141.37 85.5291 133.692 87.2683L133.595 86.8501L133.686 87.2501C132.316 87.5591 130.892 87.7409 129.42 87.7409C119.675 87.7409 111.779 80.5539 111.779 71.6823C111.779 62.8106 119.675 55.6175 129.42 55.6175C138.606 55.6175 146.151 62.0228 146.975 70.1976ZM24.4142 64.3377C22.2629 62.8106 24.6929 55.6963 29.8499 48.4487C35.0008 41.2011 40.9213 36.5592 43.0725 38.0863C45.2238 39.6134 42.7938 46.7277 37.6368 53.9753C32.4859 61.2229 26.5654 65.8648 24.4142 64.3377ZM184.643 37.044C184.922 37.3046 185.195 37.5652 185.467 37.8257C185.461 37.8257 185.455 37.8257 185.449 37.8257C185.455 37.8257 185.467 37.8257 185.474 37.8257L185.571 37.9227C191.594 43.7462 195.127 49.6364 193.533 51.3514C193.176 51.7392 192.582 51.8786 191.806 51.8059L191.746 51.7877C188.909 51.4786 183.722 48.3275 178.583 43.5705C172.002 37.4743 168.021 31.069 169.694 29.2692C171.366 27.4694 178.062 30.9478 184.643 37.044ZM111.767 13.9983C112.125 17.3615 104.677 20.9066 95.1269 21.9246C85.5765 22.9427 77.5472 21.0459 77.1896 17.6827C76.826 14.3255 84.2797 10.7745 93.824 9.75639C103.374 8.73833 111.404 10.6411 111.767 13.9983Z" fill="#FFF4DE"/>
</svg>
