<svg width="1347" height="74" viewBox="0 0 1347 74" fill="none" xmlns="http://www.w3.org/2000/svg">
<path d="M69.5883 57.1L61.6883 70.6L60.1883 72.7C59.5883 73.5 58.6216 73.9 57.2883 73.9C56.955 73.7667 56.6216 73.6 56.2883 73.4C55.955 73.2 55.055 72.5667 53.5883 71.5C52.1883 70.5 50.6883 70 49.0883 70H7.68828C4.68828 70 2.75495 69.8 1.88828 69.4C1.08828 69 0.688281 68 0.688281 66.4C0.688281 65.2 1.08828 64.4 1.88828 64L4.88828 62.6C6.08828 62.0667 6.88828 61.4667 7.28828 60.8C7.68828 60.0667 7.88828 59.3667 7.88828 58.7V13.9C7.88828 12.5 7.28828 11.5 6.08828 10.9L2.58828 9.6C1.58828 9.2 1.08828 8.33333 1.08828 6.99999C1.08828 5.6 1.55495 4.6 2.48828 4C3.48828 3.33333 5.42161 3 8.28828 3H41.1883C42.6549 3 44.2216 2.6 45.8883 1.8C47.6216 0.933328 48.9216 0.433329 49.7883 0.299997C50.7883 0.299997 51.5216 0.499997 51.9883 0.899996C52.5216 1.29999 53.2216 2.03333 54.0883 3.1L61.8883 14.9C62.155 15.3 62.3883 15.7333 62.5883 16.2C62.7883 16.6 62.9216 17.1333 62.9883 17.8C62.9883 18.5333 62.7216 19.1667 62.1883 19.7C61.7216 20.1667 60.9883 20.4667 59.9883 20.6C56.9883 18.2 53.6883 16.0667 50.0883 14.2C46.5549 12.3333 42.5216 11.4 37.9883 11.4H32.0883C28.8216 11.4 26.7883 11.8667 25.9883 12.8C25.1883 13.7333 24.7883 15.7667 24.7883 18.9V22.4C24.7883 23.9333 24.9883 25.1 25.3883 25.9C25.8549 26.5667 26.9216 26.9 28.5883 26.9H31.5883C33.9216 26.9 35.5216 26.0667 36.3883 24.4C37.3216 22.6667 38.3883 21.8 39.5883 21.8C40.5883 21.8 41.355 22.0667 41.8883 22.6L43.0883 24.2L51.0883 36.3C51.6883 37.0333 52.0216 37.9 52.0883 38.9C52.0883 41.1 50.9883 42.2 48.7883 42.2C47.5883 42.2 46.4216 41.6667 45.2883 40.6C43.355 39.0667 41.255 37.8333 38.9883 36.9C36.7216 35.9667 34.3883 35.5 31.9883 35.5C29.1883 35.5 27.2883 35.6 26.2883 35.8C25.3549 36 24.8883 37.7 24.8883 40.9V55.2C24.8883 57.2 25.3216 58.5667 26.1883 59.3C27.0549 60.0333 28.8883 60.4 31.6883 60.4H44.6883C49.355 60.4 53.555 59.4 57.2883 57.4L67.5883 50.9C69.3883 50.9 70.2883 51.9667 70.2883 54.1C70.2883 55.1667 70.055 56.1667 69.5883 57.1ZM121.34 3C122.207 3 122.907 3.36666 123.44 4.1C124.04 4.83333 124.473 5.66667 124.74 6.6L143.34 57.1L145.14 60.8C145.407 61.2667 146.207 61.8 147.54 62.4C148.94 62.9333 150.007 63.5 150.74 64.1C151.473 64.7 151.84 65.5333 151.84 66.6C151.84 67.8 151.373 68.6667 150.44 69.2C149.507 69.7333 147.673 70 144.94 70H125.44C124.107 70 123.007 69.8 122.14 69.4C121.34 68.9333 120.94 68.0667 120.94 66.8C120.94 66.2 121.04 65.7 121.24 65.3C121.507 64.8333 122.073 64.4 122.94 64L125.04 62.8C125.64 62.4 125.873 61.9 125.74 61.3C125.273 59.1 124.407 56.9333 123.14 54.8C121.873 52.6 120.573 51.5 119.24 51.5H101.34C99.7398 51.5 98.4732 52.2667 97.5398 53.8C96.6732 55.2667 96.0065 56.6 95.5398 57.8C95.1398 58.9333 94.7732 60.1 94.4398 61.3C94.3732 61.7667 94.6065 62.2333 95.1398 62.7L97.3398 64L99.0398 65.1C99.2398 65.3667 99.3732 65.9333 99.4398 66.8C99.4398 67.9333 99.0398 68.7667 98.2398 69.3C97.4398 69.7667 96.3398 70 94.9398 70H78.0398C76.3732 70 75.2065 69.8 74.5398 69.4C73.9398 68.9333 73.6398 68 73.6398 66.6C73.6398 65.6667 73.8732 64.9667 74.3398 64.5C74.8732 64.0333 76.0398 63.4667 77.8398 62.8C79.7065 62.1333 80.8398 61.5 81.2398 60.9L83.4398 57.1L106.64 6.6C107.24 5.26666 107.773 4.36666 108.24 3.9C108.707 3.43333 109.373 3.13333 110.24 3H121.34ZM115.94 42.8C117.14 42.8 117.873 42.6 118.14 42.2C118.473 41.8 118.64 41.2 118.64 40.4C118.64 39.8667 118.507 39.3 118.24 38.7L117.84 37.4L111.34 20.5L103.84 37.4C103.507 38.2 103.273 39.1 103.14 40.1C103.14 41.1 103.24 41.8 103.44 42.2C103.707 42.6 104.507 42.8 105.84 42.8H115.94ZM162.585 17.6C162.585 12.8 164.352 8.93333 167.885 6C171.485 2.99999 176.752 1.49999 183.685 1.49999C188.152 1.49999 191.818 1.86666 194.685 2.6L199.585 3.7C200.385 3.7 201.318 3.2 202.385 2.2C203.452 1.13333 204.518 0.566665 205.585 0.499995C206.785 0.499995 207.918 1.13333 208.985 2.39999L213.085 7.6L217.885 14.5C219.485 16.9 220.285 18.3667 220.285 18.9C220.285 20.6333 219.552 21.5 218.085 21.5L202.785 13.6C198.118 11.2667 193.818 10.1 189.885 10.1C187.618 10.1 185.918 10.5333 184.785 11.4C183.718 12.2667 183.185 13.3667 183.185 14.7C183.185 17.0333 187.785 19.8333 196.985 23.1C206.252 26.3 213.752 29.7333 219.485 33.4C225.218 37 228.085 42.6 228.085 50.2C228.085 57.6667 225.418 63.1667 220.085 66.7C214.752 70.1667 208.318 71.9 200.785 71.9C196.718 71.9 191.552 71.2667 185.285 70L174.785 68C173.852 68 172.918 68.6667 171.985 70C171.052 71.2667 169.852 71.9 168.385 71.9C167.052 71.9 165.918 71.2333 164.985 69.9L161.485 63.8L157.385 55.6C156.785 54.3333 156.318 53.3 155.985 52.5C155.652 51.6333 155.452 50.9667 155.385 50.5C155.385 49.7667 155.618 49.1667 156.085 48.7C156.552 48.2333 157.218 47.9333 158.085 47.8C163.218 51.4667 168.852 54.7667 174.985 57.7C181.118 60.5667 187.952 62 195.485 62C199.618 62 202.818 61.1667 205.085 59.5C207.352 57.7667 208.485 55.8 208.485 53.6C208.485 50 202.985 45.9 191.985 41.3C180.985 36.7 173.318 33.2 168.985 30.8C164.718 28.4 162.585 24 162.585 17.6ZM260.557 12.4H254.757C250.357 12.4 246.557 13.5667 243.357 15.9L233.857 23.6C231.99 23.6 231.057 22.6667 231.057 20.8C231.057 19.8 231.357 18.7 231.957 17.5L238.357 3.5C238.757 2.76666 239.29 2.13333 239.957 1.6C240.624 0.999998 241.49 0.699998 242.557 0.699998C243.024 0.699998 243.957 1.1 245.357 1.89999C246.624 2.49999 247.824 2.86666 248.957 3H288.957C290.224 3 291.424 2.63333 292.557 1.89999C293.757 1.1 294.69 0.699998 295.357 0.699998C296.424 0.699998 297.224 0.899998 297.757 1.3C298.357 1.7 298.99 2.43333 299.657 3.5L305.957 17.5C306.557 18.8333 306.857 20 306.857 21C306.857 22.7333 305.99 23.6 304.257 23.6C300.724 20.4667 297.39 17.8333 294.257 15.7C291.19 13.5 287.557 12.4 283.357 12.4H277.557V58.6C277.557 60.3333 278.29 61.5333 279.757 62.2L283.357 63.8C284.357 64.2 284.857 65 284.857 66.2C284.857 67.6 284.457 68.6 283.657 69.2C282.924 69.7333 281.057 70 278.057 70H260.057C257.057 70 255.157 69.7333 254.357 69.2C253.557 68.6667 253.157 67.6667 253.157 66.2C253.157 65.2 253.457 64.5 254.057 64.1L257.057 62.7C258.457 62.1 259.357 61.4667 259.757 60.8C260.157 60.1333 260.424 59.4 260.557 58.6V12.4ZM317.663 17.6C317.663 12.8 319.43 8.93333 322.963 6C326.563 2.99999 331.83 1.49999 338.763 1.49999C343.23 1.49999 346.897 1.86666 349.763 2.6L354.663 3.7C355.463 3.7 356.397 3.2 357.463 2.2C358.53 1.13333 359.597 0.566665 360.663 0.499995C361.863 0.499995 362.997 1.13333 364.063 2.39999L368.163 7.6L372.963 14.5C374.563 16.9 375.363 18.3667 375.363 18.9C375.363 20.6333 374.63 21.5 373.163 21.5L357.863 13.6C353.197 11.2667 348.897 10.1 344.963 10.1C342.697 10.1 340.997 10.5333 339.863 11.4C338.797 12.2667 338.263 13.3667 338.263 14.7C338.263 17.0333 342.863 19.8333 352.063 23.1C361.33 26.3 368.83 29.7333 374.563 33.4C380.297 37 383.163 42.6 383.163 50.2C383.163 57.6667 380.497 63.1667 375.163 66.7C369.83 70.1667 363.397 71.9 355.863 71.9C351.797 71.9 346.63 71.2667 340.363 70L329.863 68C328.93 68 327.997 68.6667 327.063 70C326.13 71.2667 324.93 71.9 323.463 71.9C322.13 71.9 320.997 71.2333 320.063 69.9L316.563 63.8L312.463 55.6C311.863 54.3333 311.397 53.3 311.063 52.5C310.73 51.6333 310.53 50.9667 310.463 50.5C310.463 49.7667 310.697 49.1667 311.163 48.7C311.63 48.2333 312.297 47.9333 313.163 47.8C318.297 51.4667 323.93 54.7667 330.063 57.7C336.197 60.5667 343.03 62 350.563 62C354.697 62 357.897 61.1667 360.163 59.5C362.43 57.7667 363.563 55.8 363.563 53.6C363.563 50 358.063 45.9 347.063 41.3C336.063 36.7 328.397 33.2 324.063 30.8C319.797 28.4 317.663 24 317.663 17.6ZM410.335 58.7C410.335 59.7 410.435 60.4667 410.635 61C410.835 61.5333 411.668 62.1333 413.135 62.8C414.668 63.3333 415.668 63.8 416.135 64.2C416.668 64.4667 417.002 65.1667 417.135 66.3C417.135 67.8333 416.535 68.8667 415.335 69.4C414.135 69.8 412.435 70 410.235 70H392.535C389.668 70 387.835 69.7333 387.035 69.2C386.302 68.6667 385.935 67.7 385.935 66.3C385.935 65.5 386.135 64.9 386.535 64.5C387.002 64.0333 388.002 63.4667 389.535 62.8C391.135 62.1333 392.135 61.5333 392.535 61C392.935 60.4 393.202 59.6333 393.335 58.7V14.7C393.335 13.9667 393.068 13.3 392.535 12.7C392.135 12.0333 391.468 11.5333 390.535 11.2L387.635 9.79999C386.502 9.2 385.935 8.3 385.935 7.1C385.935 5.7 386.302 4.66666 387.035 4C387.835 3.33333 389.668 3 392.535 3H410.235C413.102 3 414.968 3.33333 415.835 4C416.702 4.66666 417.135 5.7 417.135 7.1C417.135 8.1 416.802 8.8 416.135 9.2L413.235 10.7C411.968 11.1667 411.135 11.8 410.735 12.6L410.335 14.7V58.7ZM453.315 70H426.815C423.948 70 422.082 69.7667 421.215 69.3C420.415 68.7667 420.015 67.8 420.015 66.4C420.015 65.2667 420.448 64.4 421.315 63.8L424.415 62.5C425.548 62.1 426.315 61.6 426.715 61C427.115 60.3333 427.382 59.5667 427.515 58.7V13C427.515 12.2 426.782 11.4 425.315 10.6C423.382 9.93333 422.048 9.4 421.315 9C420.648 8.6 420.315 7.83333 420.315 6.7C420.315 5.7 420.582 4.83333 421.115 4.1C421.648 3.36666 423.482 3 426.615 3H436.415C455.348 3 469.182 6.43333 477.915 13.3C486.715 20.1 491.115 28.6333 491.115 38.9C491.115 50.1667 487.682 58.1667 480.815 62.9C474.015 67.6333 464.848 70 453.315 70ZM470.815 38.4C470.815 31.7333 468.848 25.8 464.915 20.6C460.982 15.4 456.382 12.8 451.115 12.8C447.782 12.8 445.848 12.9667 445.315 13.3C444.782 13.5 444.515 14.2667 444.515 15.6V57C444.515 58.9333 444.815 60.0667 445.415 60.4C446.015 60.7333 447.815 60.9 450.815 60.9C456.948 60.9 461.815 58.8 465.415 54.6C469.015 50.3333 470.815 44.9333 470.815 38.4ZM563.143 57.1L555.243 70.6L553.743 72.7C553.143 73.5 552.176 73.9 550.843 73.9C550.51 73.7667 550.176 73.6 549.843 73.4C549.51 73.2 548.61 72.5667 547.143 71.5C545.743 70.5 544.243 70 542.643 70H501.243C498.243 70 496.31 69.8 495.443 69.4C494.643 69 494.243 68 494.243 66.4C494.243 65.2 494.643 64.4 495.443 64L498.443 62.6C499.643 62.0667 500.443 61.4667 500.843 60.8C501.243 60.0667 501.443 59.3667 501.443 58.7V13.9C501.443 12.5 500.843 11.5 499.643 10.9L496.143 9.6C495.143 9.2 494.643 8.33333 494.643 6.99999C494.643 5.6 495.11 4.6 496.043 4C497.043 3.33333 498.976 3 501.843 3H534.743C536.21 3 537.776 2.6 539.443 1.8C541.176 0.933328 542.476 0.433329 543.343 0.299997C544.343 0.299997 545.076 0.499997 545.543 0.899996C546.076 1.29999 546.776 2.03333 547.643 3.1L555.443 14.9C555.71 15.3 555.943 15.7333 556.143 16.2C556.343 16.6 556.476 17.1333 556.543 17.8C556.543 18.5333 556.276 19.1667 555.743 19.7C555.276 20.1667 554.543 20.4667 553.543 20.6C550.543 18.2 547.243 16.0667 543.643 14.2C540.11 12.3333 536.076 11.4 531.543 11.4H525.643C522.376 11.4 520.343 11.8667 519.543 12.8C518.743 13.7333 518.343 15.7667 518.343 18.9V22.4C518.343 23.9333 518.543 25.1 518.943 25.9C519.41 26.5667 520.476 26.9 522.143 26.9H525.143C527.476 26.9 529.076 26.0667 529.943 24.4C530.876 22.6667 531.943 21.8 533.143 21.8C534.143 21.8 534.91 22.0667 535.443 22.6L536.643 24.2L544.643 36.3C545.243 37.0333 545.576 37.9 545.643 38.9C545.643 41.1 544.543 42.2 542.343 42.2C541.143 42.2 539.976 41.6667 538.843 40.6C536.91 39.0667 534.81 37.8333 532.543 36.9C530.276 35.9667 527.943 35.5 525.543 35.5C522.743 35.5 520.843 35.6 519.843 35.8C518.91 36 518.443 37.7 518.443 40.9V55.2C518.443 57.2 518.876 58.5667 519.743 59.3C520.61 60.0333 522.443 60.4 525.243 60.4H538.243C542.91 60.4 547.11 59.4 550.843 57.4L561.143 50.9C562.943 50.9 563.843 51.9667 563.843 54.1C563.843 55.1667 563.61 56.1667 563.143 57.1ZM624.251 3.2C638.317 3.2 649.117 5.5 656.651 10.1C664.251 14.6333 668.051 21.3667 668.051 30.3C668.051 38.3 665.317 43.6333 659.851 46.3C654.451 48.9 647.317 50.2 638.451 50.2H630.151C628.684 50.2 627.717 50.4333 627.251 50.9C626.784 51.3 626.484 52.0667 626.351 53.2V58.7C626.351 60.3 627.117 61.5333 628.651 62.4L632.151 63.8C633.084 64.2 633.551 65.0667 633.551 66.4C633.551 67.6667 633.117 68.6 632.251 69.2C631.384 69.7333 629.551 70 626.751 70H608.751C605.884 70 604.051 69.7333 603.251 69.2C602.451 68.6667 602.051 67.7333 602.051 66.4C602.051 65.4 602.417 64.6333 603.151 64.1C603.951 63.5667 605.251 63 607.051 62.4C608.584 61.6 609.351 60.3667 609.351 58.7V14.9C609.351 14.0333 609.184 13.3 608.851 12.7C608.517 12.0333 607.651 11.4333 606.251 10.9L603.251 9.5C602.851 9.16667 602.584 8.43333 602.451 7.3C602.451 6.03333 603.051 5.03333 604.251 4.3C605.517 3.56666 607.651 3.2 610.651 3.2H624.251ZM626.351 38.4C626.351 40.2 626.984 41.2333 628.251 41.5C629.584 41.7 631.484 41.8 633.951 41.8C637.884 41.8 641.384 40.8333 644.451 38.9C647.584 36.9 649.151 33.2333 649.151 27.9C649.151 22.7667 647.317 18.8 643.651 16C640.051 13.2 636.384 11.8 632.651 11.8C629.984 11.8 628.251 12.0333 627.451 12.5C626.717 12.9 626.351 13.9 626.351 15.5V38.4ZM719.094 3C719.96 3 720.66 3.36666 721.194 4.1C721.794 4.83333 722.227 5.66667 722.494 6.6L741.094 57.1L742.894 60.8C743.16 61.2667 743.96 61.8 745.294 62.4C746.694 62.9333 747.76 63.5 748.494 64.1C749.227 64.7 749.594 65.5333 749.594 66.6C749.594 67.8 749.127 68.6667 748.194 69.2C747.26 69.7333 745.427 70 742.694 70H723.194C721.86 70 720.76 69.8 719.894 69.4C719.094 68.9333 718.694 68.0667 718.694 66.8C718.694 66.2 718.794 65.7 718.994 65.3C719.26 64.8333 719.827 64.4 720.694 64L722.794 62.8C723.394 62.4 723.627 61.9 723.494 61.3C723.027 59.1 722.16 56.9333 720.894 54.8C719.627 52.6 718.327 51.5 716.994 51.5H699.094C697.494 51.5 696.227 52.2667 695.294 53.8C694.427 55.2667 693.76 56.6 693.294 57.8C692.894 58.9333 692.527 60.1 692.194 61.3C692.127 61.7667 692.36 62.2333 692.894 62.7L695.094 64L696.794 65.1C696.994 65.3667 697.127 65.9333 697.194 66.8C697.194 67.9333 696.794 68.7667 695.994 69.3C695.194 69.7667 694.094 70 692.694 70H675.794C674.127 70 672.96 69.8 672.294 69.4C671.694 68.9333 671.394 68 671.394 66.6C671.394 65.6667 671.627 64.9667 672.094 64.5C672.627 64.0333 673.794 63.4667 675.594 62.8C677.46 62.1333 678.594 61.5 678.994 60.9L681.194 57.1L704.394 6.6C704.994 5.26666 705.527 4.36666 705.994 3.9C706.46 3.43333 707.127 3.13333 707.994 3H719.094ZM713.694 42.8C714.894 42.8 715.627 42.6 715.894 42.2C716.227 41.8 716.394 41.2 716.394 40.4C716.394 39.8667 716.26 39.3 715.994 38.7L715.594 37.4L709.094 20.5L701.594 37.4C701.26 38.2 701.027 39.1 700.894 40.1C700.894 41.1 700.994 41.8 701.194 42.2C701.46 42.6 702.26 42.8 703.594 42.8H713.694ZM785.639 70H759.139C756.272 70 754.406 69.7667 753.539 69.3C752.739 68.7667 752.339 67.8 752.339 66.4C752.339 65.2667 752.772 64.4 753.639 63.8L756.739 62.5C757.872 62.1 758.639 61.6 759.039 61C759.439 60.3333 759.706 59.5667 759.839 58.7V13C759.839 12.2 759.106 11.4 757.639 10.6C755.706 9.93333 754.372 9.4 753.639 9C752.972 8.6 752.639 7.83333 752.639 6.7C752.639 5.7 752.906 4.83333 753.439 4.1C753.972 3.36666 755.806 3 758.939 3H768.739C787.672 3 801.506 6.43333 810.239 13.3C819.039 20.1 823.439 28.6333 823.439 38.9C823.439 50.1667 820.006 58.1667 813.139 62.9C806.339 67.6333 797.172 70 785.639 70ZM803.139 38.4C803.139 31.7333 801.172 25.8 797.239 20.6C793.306 15.4 788.706 12.8 783.439 12.8C780.106 12.8 778.172 12.9667 777.639 13.3C777.106 13.5 776.839 14.2667 776.839 15.6V57C776.839 58.9333 777.139 60.0667 777.739 60.4C778.339 60.7333 780.139 60.9 783.139 60.9C789.272 60.9 794.139 58.8 797.739 54.6C801.339 50.3333 803.139 44.9333 803.139 38.4ZM859.467 70H832.967C830.101 70 828.234 69.7667 827.367 69.3C826.567 68.7667 826.167 67.8 826.167 66.4C826.167 65.2667 826.601 64.4 827.467 63.8L830.567 62.5C831.701 62.1 832.467 61.6 832.867 61C833.267 60.3333 833.534 59.5667 833.667 58.7V13C833.667 12.2 832.934 11.4 831.467 10.6C829.534 9.93333 828.201 9.4 827.467 9C826.801 8.6 826.467 7.83333 826.467 6.7C826.467 5.7 826.734 4.83333 827.267 4.1C827.801 3.36666 829.634 3 832.767 3H842.567C861.501 3 875.334 6.43333 884.067 13.3C892.867 20.1 897.267 28.6333 897.267 38.9C897.267 50.1667 893.834 58.1667 886.967 62.9C880.167 67.6333 871.001 70 859.467 70ZM876.967 38.4C876.967 31.7333 875.001 25.8 871.067 20.6C867.134 15.4 862.534 12.8 857.267 12.8C853.934 12.8 852.001 12.9667 851.467 13.3C850.934 13.5 850.667 14.2667 850.667 15.6V57C850.667 58.9333 850.967 60.0667 851.567 60.4C852.167 60.7333 853.967 60.9 856.967 60.9C863.101 60.9 867.967 58.8 871.567 54.6C875.167 50.3333 876.967 44.9333 876.967 38.4ZM924.495 56.5C924.495 58.2333 924.829 59.4333 925.495 60.1C926.229 60.7 927.262 61 928.595 61H933.395C938.262 61 942.962 59.8667 947.495 57.6L960.595 50.1C962.662 50.1 963.695 51.1 963.695 53.1C963.695 53.9667 963.295 55 962.495 56.2L953.295 69.5C952.562 70.5667 951.862 71.2667 951.195 71.6C950.529 72 949.829 72.2 949.095 72.2C948.362 72.2 947.329 71.8333 945.995 71.1C944.729 70.3667 943.395 70 941.995 70H905.895C903.629 70 902.095 69.7 901.295 69.1C900.629 68.4333 900.295 67.3 900.295 65.7C900.295 64.5667 900.662 63.7 901.395 63.1C902.195 62.5 903.295 62 904.695 61.6C905.829 61.4 906.529 61.0333 906.795 60.5C907.129 59.9 907.362 59.1667 907.495 58.3V14.2C907.495 12.6667 906.662 11.4667 904.995 10.6L901.795 9.29999C900.595 8.69999 899.995 7.83333 899.995 6.7C899.995 5.16666 900.395 4.16666 901.195 3.7C902.062 3.23333 903.995 3 906.995 3H924.795C927.662 3 929.462 3.26666 930.195 3.79999C930.995 4.2 931.395 5.16666 931.395 6.7C931.395 7.43333 931.162 8.03333 930.695 8.5C930.295 8.9 929.362 9.43333 927.895 10.1C926.429 10.7 925.495 11.4 925.095 12.2C924.695 12.9333 924.495 13.6 924.495 14.2V56.5ZM1035.9 57.1L1028 70.6L1026.5 72.7C1025.9 73.5 1024.93 73.9 1023.6 73.9C1023.26 73.7667 1022.93 73.6 1022.6 73.4C1022.26 73.2 1021.36 72.5667 1019.9 71.5C1018.5 70.5 1017 70 1015.4 70H973.997C970.997 70 969.064 69.8 968.197 69.4C967.397 69 966.997 68 966.997 66.4C966.997 65.2 967.397 64.4 968.197 64L971.197 62.6C972.397 62.0667 973.197 61.4667 973.597 60.8C973.997 60.0667 974.197 59.3667 974.197 58.7V13.9C974.197 12.5 973.597 11.5 972.397 10.9L968.897 9.6C967.897 9.2 967.397 8.33333 967.397 6.99999C967.397 5.6 967.864 4.6 968.797 4C969.797 3.33333 971.73 3 974.597 3H1007.5C1008.96 3 1010.53 2.6 1012.2 1.8C1013.93 0.933328 1015.23 0.433329 1016.1 0.299997C1017.1 0.299997 1017.83 0.499997 1018.3 0.899996C1018.83 1.29999 1019.53 2.03333 1020.4 3.1L1028.2 14.9C1028.46 15.3 1028.7 15.7333 1028.9 16.2C1029.1 16.6 1029.23 17.1333 1029.3 17.8C1029.3 18.5333 1029.03 19.1667 1028.5 19.7C1028.03 20.1667 1027.3 20.4667 1026.3 20.6C1023.3 18.2 1020 16.0667 1016.4 14.2C1012.86 12.3333 1008.83 11.4 1004.3 11.4H998.397C995.13 11.4 993.097 11.8667 992.297 12.8C991.497 13.7333 991.097 15.7667 991.097 18.9V22.4C991.097 23.9333 991.297 25.1 991.697 25.9C992.164 26.5667 993.23 26.9 994.897 26.9H997.897C1000.23 26.9 1001.83 26.0667 1002.7 24.4C1003.63 22.6667 1004.7 21.8 1005.9 21.8C1006.9 21.8 1007.66 22.0667 1008.2 22.6L1009.4 24.2L1017.4 36.3C1018 37.0333 1018.33 37.9 1018.4 38.9C1018.4 41.1 1017.3 42.2 1015.1 42.2C1013.9 42.2 1012.73 41.6667 1011.6 40.6C1009.66 39.0667 1007.56 37.8333 1005.3 36.9C1003.03 35.9667 1000.7 35.5 998.297 35.5C995.497 35.5 993.597 35.6 992.597 35.8C991.664 36 991.197 37.7 991.197 40.9V55.2C991.197 57.2 991.63 58.5667 992.497 59.3C993.364 60.0333 995.197 60.4 997.997 60.4H1011C1015.66 60.4 1019.86 59.4 1023.6 57.4L1033.9 50.9C1035.7 50.9 1036.6 51.9667 1036.6 54.1C1036.6 55.1667 1036.36 56.1667 1035.9 57.1ZM1112.7 71.8C1100.04 71.8 1090.54 68.4 1084.2 61.6C1077.87 54.8 1074.7 46.7667 1074.7 37.5C1074.7 28.3 1078 20.1667 1084.6 13.1C1091.27 5.96666 1099.97 2.39999 1110.7 2.39999C1114.24 2.39999 1117.4 2.69999 1120.2 3.29999L1127.9 5.4C1128.57 5.4 1129.4 4.9 1130.4 3.9C1131.4 2.83333 1132.27 2.26666 1133 2.2C1134.07 2.2 1134.77 2.33333 1135.1 2.6C1135.44 2.86666 1135.84 3.4 1136.3 4.19999L1141.8 19.6C1142.34 21.0667 1142.6 22.3667 1142.6 23.5C1142.6 25.4333 1141.67 26.4 1139.8 26.4C1138.8 26.4 1137.6 25.6667 1136.2 24.2L1128.7 16.6C1127.64 15.6 1126.57 14.7333 1125.5 14C1124.5 13.2 1123.37 12.5 1122.1 11.9C1120.9 11.3 1118.74 11 1115.6 11C1110.8 11 1106.34 13.1333 1102.2 17.4C1098.07 21.6667 1096 28.3667 1096 37.5C1096 46.2333 1098.24 52.4 1102.7 56C1107.24 59.5333 1112.37 61.3 1118.1 61.3C1122.17 61.3 1125.9 60.4 1129.3 58.6L1139.1 52.5C1140.44 52.5 1141.37 52.8333 1141.9 53.5C1142.5 54.1667 1142.8 55.0333 1142.8 56.1C1142.8 60.1 1139.77 63.7333 1133.7 67C1127.7 70.2 1120.7 71.8 1112.7 71.8ZM1170.2 56.5C1170.2 58.2333 1170.53 59.4333 1171.2 60.1C1171.93 60.7 1172.97 61 1174.3 61H1179.1C1183.97 61 1188.67 59.8667 1193.2 57.6L1206.3 50.1C1208.37 50.1 1209.4 51.1 1209.4 53.1C1209.4 53.9667 1209 55 1208.2 56.2L1199 69.5C1198.27 70.5667 1197.57 71.2667 1196.9 71.6C1196.23 72 1195.53 72.2 1194.8 72.2C1194.07 72.2 1193.03 71.8333 1191.7 71.1C1190.43 70.3667 1189.1 70 1187.7 70H1151.6C1149.33 70 1147.8 69.7 1147 69.1C1146.33 68.4333 1146 67.3 1146 65.7C1146 64.5667 1146.37 63.7 1147.1 63.1C1147.9 62.5 1149 62 1150.4 61.6C1151.53 61.4 1152.23 61.0333 1152.5 60.5C1152.83 59.9 1153.07 59.1667 1153.2 58.3V14.2C1153.2 12.6667 1152.37 11.4667 1150.7 10.6L1147.5 9.29999C1146.3 8.69999 1145.7 7.83333 1145.7 6.7C1145.7 5.16666 1146.1 4.16666 1146.9 3.7C1147.77 3.23333 1149.7 3 1152.7 3H1170.5C1173.37 3 1175.17 3.26666 1175.9 3.79999C1176.7 4.2 1177.1 5.16666 1177.1 6.7C1177.1 7.43333 1176.87 8.03333 1176.4 8.5C1176 8.9 1175.07 9.43333 1173.6 10.1C1172.13 10.7 1171.2 11.4 1170.8 12.2C1170.4 12.9333 1170.2 13.6 1170.2 14.2V56.5ZM1234 46.6C1234 51.4 1234.97 55.2333 1236.9 58.1C1238.83 60.9 1242.57 62.3 1248.1 62.3C1253.9 62.3 1257.8 61.1667 1259.8 58.9C1261.87 56.5667 1262.9 52.6 1262.9 47C1262.9 44.7333 1262.8 41.6333 1262.6 37.7C1262.4 33.7667 1262.3 31.3333 1262.3 30.4C1262.3 27.2667 1262.13 24.3 1261.8 21.5C1261.47 18.7 1261.2 16.2667 1261 14.2C1260.8 12.0667 1260.43 10.8333 1259.9 10.5L1257.6 9.6L1255.4 8.39999C1254.67 8 1254.3 7.23333 1254.3 6.09999C1254.3 4.03333 1256.23 3 1260.1 3H1272C1273.73 3 1275.07 3.2 1276 3.6C1276.93 3.93333 1277.4 4.76666 1277.4 6.09999C1277.4 7.36666 1276.97 8.3 1276.1 8.9L1272.9 10.1C1271.97 10.5 1271.5 11.4333 1271.5 12.9C1271.5 14.7 1271.63 17.1333 1271.9 20.2C1272.17 23.2667 1272.4 25.8333 1272.6 27.9C1272.6 30.8333 1272.77 35 1273.1 40.4C1273.5 45.7333 1273.7 48.4667 1273.7 48.6C1273.7 56.3333 1271.77 62.1333 1267.9 66C1264.1 69.8 1256.7 71.7 1245.7 71.7C1235.1 71.7 1227.43 69.8333 1222.7 66.1C1217.97 62.3 1215.6 57.7 1215.6 52.3C1215.6 48.7 1216.13 41.8 1217.2 31.6L1218.8 13.7C1218.8 13.1667 1218.6 12.5333 1218.2 11.8C1217.87 11 1217.3 10.4667 1216.5 10.2L1213.6 8.7C1212.87 8.3 1212.5 7.43333 1212.5 6.09999C1212.5 4.9 1212.97 4.1 1213.9 3.7C1214.83 3.23333 1216.4 3 1218.6 3H1236.6C1239.2 3 1240.93 3.2 1241.8 3.6C1242.67 3.93333 1243.1 4.76666 1243.1 6.09999C1243.1 6.83333 1242.93 7.43333 1242.6 7.89999C1242.27 8.36666 1241.37 8.93333 1239.9 9.6C1238.43 10.2667 1237.53 10.9 1237.2 11.5C1236.87 12.1 1236.5 13.7333 1236.1 16.4L1234.8 30.7C1234.8 33.3667 1234.7 35.9667 1234.5 38.5C1234.37 40.9667 1234.2 43.6667 1234 46.6ZM1313.67 70H1287.57C1284.57 70 1282.67 69.8 1281.87 69.4C1281.14 69 1280.77 68.0333 1280.77 66.5C1280.77 65.3 1281.2 64.4667 1282.07 64L1284.97 62.7C1286.04 62.3 1286.77 61.7667 1287.17 61.1C1287.57 60.3667 1287.77 59.6667 1287.77 59V15.1L1287.47 12.8C1287.27 12.2667 1286.47 11.7 1285.07 11.1L1282.07 9.79999C1281.47 9.4 1281.17 8.66666 1281.17 7.6C1281.17 6.13333 1281.84 5 1283.17 4.19999C1284.57 3.4 1286.7 3 1289.57 3H1308.77C1316.44 3 1322.67 4.53333 1327.47 7.6C1332.34 10.6 1334.77 14.6333 1334.77 19.7C1334.77 22.7 1334.2 24.9333 1333.07 26.4C1331.94 27.8 1330.27 29.3 1328.07 30.9C1333.14 32.7 1337.47 35.0667 1341.07 38C1344.74 40.8667 1346.57 45.1667 1346.57 50.9C1346.57 57.3667 1343.8 62.1667 1338.27 65.3C1332.8 68.4333 1324.6 70 1313.67 70ZM1311.17 62C1316.37 62 1320.07 60.7 1322.27 58.1C1324.54 55.4333 1325.67 52.2 1325.67 48.4C1325.67 44.4667 1324.44 41.1333 1321.97 38.4C1319.5 35.6 1316 34.2 1311.47 34.2C1308.4 34.2 1306.5 34.5 1305.77 35.1C1305.1 35.6333 1304.77 36.6 1304.77 38V58.2C1304.77 59.6667 1305.1 60.7 1305.77 61.3C1306.5 61.7667 1308.3 62 1311.17 62ZM1308.27 27.4C1311.34 27.4 1313.54 26.7 1314.87 25.3C1316.27 23.8333 1316.97 22 1316.97 19.8C1316.97 14.6667 1314.07 12.1 1308.27 12.1C1306.87 12.1 1305.94 12.3 1305.47 12.7C1305 13.1 1304.77 13.8333 1304.77 14.9V25C1304.77 25.9333 1304.97 26.6 1305.37 27C1305.9 27.2667 1306.87 27.4 1308.27 27.4Z" fill="#FFF4DE"/>
</svg>
