<svg width="31" height="30" viewBox="0 0 31 30" fill="none" xmlns="http://www.w3.org/2000/svg">
<mask id="mask0_198_825" style="mask-type:luminance" maskUnits="userSpaceOnUse" x="0" y="0" width="31" height="30">
<path d="M0.609375 30L0.609375 0H30.6094V30H0.609375Z" fill="white"/>
</mask>
<g mask="url(#mask0_198_825)">
<path d="M0.625 15C0.625 23.2844 7.33498 30 15.6114 30C23.8887 30 30.5979 23.2844 30.5979 15C30.5979 6.71562 23.8887 0 15.6114 0C7.33498 0 0.625 6.71562 0.625 15ZM1.78731 14.9875C1.78731 13.9109 2.13648 13.0375 2.56776 13.0375C2.99904 13.0375 3.34901 13.9109 3.34901 14.9875C3.34901 16.0641 2.99904 16.9367 2.56776 16.9367C2.13648 16.9367 1.78731 16.0641 1.78731 14.9875ZM13.9892 26.7414C15.2304 26.7891 16.2205 27.2484 16.1998 27.768C16.1791 28.2875 15.1555 28.6695 13.9142 28.6219C12.6722 28.575 11.6829 28.1156 11.7036 27.5961C11.7243 27.0766 12.7471 26.6945 13.9892 26.7414ZM26.2054 22.9281C26.5338 23.2219 26.1527 24.1539 25.354 25.0094C24.556 25.8648 23.6416 26.3203 23.3131 26.0258C22.9847 25.732 23.3658 24.8 24.1645 23.9445C24.9633 23.0891 25.8769 22.6344 26.2054 22.9281ZM6.15832 23.4414C7.00415 24.2523 7.43702 25.1625 7.12532 25.4734C6.81362 25.7852 5.87612 25.3797 5.03029 24.5687C4.18447 23.7578 3.7508 22.8477 4.0625 22.5367C4.3742 22.2258 5.3125 22.6305 6.15832 23.4414ZM19.9585 20.0086C19.9585 21.0922 19.0609 21.9711 17.9536 21.9711C16.8463 21.9711 15.9487 21.0922 15.9487 20.0086C15.9487 18.925 16.8463 18.0461 17.9536 18.0461C19.0609 18.0461 19.9585 18.925 19.9585 20.0086ZM10.786 16.6969C10.4831 16.8492 10.1403 16.9367 9.77599 16.9367C8.5507 16.9367 7.5582 15.9648 7.5582 14.7664C7.5582 13.5672 8.5507 12.5953 9.77599 12.5953C10.4727 12.5953 11.093 12.9102 11.4995 13.4016C11.5003 13.4016 11.5003 13.4016 11.5003 13.4016L11.5187 13.4234C11.816 13.793 11.9938 14.2594 11.9938 14.7664C11.9938 15.607 11.5051 16.3359 10.7916 16.6969L10.7868 16.6937C10.786 16.6953 10.786 16.6961 10.786 16.6969ZM27.8253 14.5086C27.7989 15.6641 27.3485 16.5914 26.8184 16.5805C26.2891 16.5687 25.8801 15.6227 25.9064 14.4672C25.9319 13.3117 26.3823 12.3836 26.9125 12.3953C27.4426 12.4062 27.8516 13.3531 27.8253 14.5086ZM19.9482 9.05H19.949C19.9554 9.11328 19.9585 9.17656 19.9585 9.24141C19.9585 10.2117 19.2108 11.0266 18.2007 11.2508L18.188 11.1969L18.1999 11.2484C18.0198 11.2883 17.8324 11.3117 17.6387 11.3117C16.3568 11.3117 15.3181 10.3852 15.3181 9.24141C15.3181 8.09766 16.3568 7.17031 17.6387 7.17031C18.8473 7.17031 19.8398 7.99609 19.9482 9.05ZM3.82494 8.29453C3.54193 8.09766 3.86161 7.18047 4.54002 6.24609C5.21763 5.31172 5.99649 4.71328 6.2795 4.91016C6.5625 5.10703 6.24283 6.02422 5.56441 6.95859C4.8868 7.89297 4.10794 8.49141 3.82494 8.29453ZM24.9035 4.77578C24.9402 4.80937 24.9761 4.84297 25.012 4.87656C25.0112 4.87656 25.0104 4.87656 25.0096 4.87656C25.0104 4.87656 25.012 4.87656 25.0128 4.87656L25.0255 4.88906C25.8179 5.63984 26.2827 6.39922 26.073 6.62031C26.026 6.67031 25.9479 6.68828 25.8458 6.67891L25.8379 6.67656C25.4648 6.63672 24.7824 6.23047 24.1063 5.61719C23.2406 4.83125 22.7168 4.00547 22.9369 3.77344C23.1569 3.54141 24.0378 3.98984 24.9035 4.77578ZM15.3165 1.80469C15.3635 2.23828 14.3838 2.69531 13.1274 2.82656C11.871 2.95781 10.8147 2.71328 10.7677 2.27969C10.7199 1.84687 11.7004 1.38906 12.956 1.25781C14.2124 1.12656 15.2687 1.37187 15.3165 1.80469Z" fill="#0B533B"/>
</g>
</svg>
