<svg width="689" height="927" viewBox="0 0 689 927" fill="none" xmlns="http://www.w3.org/2000/svg">
<mask id="mask0_322_11691" style="mask-type:luminance" maskUnits="userSpaceOnUse" x="62" y="391" width="390" height="390">
<path d="M62 519.117L190.117 391.001L451.746 652.63L323.63 780.747L62 519.117Z" fill="white"/>
</mask>
<g mask="url(#mask0_322_11691)">
<path d="M224.822 425.706L307.236 508.12C318.707 519.591 326.301 540.032 324.156 553.673L320.287 578.304L316.448 602.773C314.822 613.103 319.661 627.661 327.228 635.228L388.801 696.801L396.361 700.962C397.563 701.627 398.329 702.622 398.518 703.772C398.711 704.932 398.294 706.082 397.354 707.022L378.021 726.355C377.081 727.295 375.932 727.712 374.771 727.518C374.028 727.397 373.346 727.033 372.779 726.466C372.468 726.155 372.191 725.788 371.962 725.362L367.8 717.801L306.228 656.229C298.66 648.661 284.102 643.823 273.772 645.448L238.21 651.032L222.968 653.423C210.261 655.417 190.59 647.708 179.119 636.237L96.705 553.822C77.5673 534.684 77.0307 504.087 95.5003 485.617L156.614 424.504C175.086 406.031 205.684 406.568 224.822 425.706Z" fill="#FFF4DE"/>
</g>
<mask id="mask1_322_11691" style="mask-type:luminance" maskUnits="userSpaceOnUse" x="237" y="391" width="391" height="390">
<path d="M499.211 391L627.327 519.117L365.698 780.746L237.581 652.63L499.211 391Z" fill="white"/>
</mask>
<g mask="url(#mask1_322_11691)">
<path d="M592.622 553.822L510.208 636.236C498.737 647.707 478.296 655.301 464.655 653.156L440.024 649.287L415.555 645.448C405.225 643.822 390.667 648.661 383.1 656.228L321.527 717.801L317.366 725.361C316.701 726.563 315.706 727.329 314.556 727.518C313.396 727.711 312.246 727.294 311.306 726.354L291.973 707.021C291.033 706.081 290.616 704.932 290.81 703.771C290.931 703.028 291.295 702.346 291.862 701.779C292.173 701.468 292.54 701.191 292.966 700.962L300.527 696.8L362.099 635.228C369.667 627.66 374.505 613.102 372.88 602.772L367.296 567.21L364.905 551.968C362.911 539.261 370.62 519.59 382.092 508.119L464.506 425.705C483.644 406.567 514.242 406.031 532.711 424.5L593.824 485.614C612.297 504.086 611.76 534.684 592.622 553.822Z" fill="#FFF4DE"/>
</g>
<path d="M182.141 537.766H174.875V541.766H177.625V541.578C177.625 540.984 177.755 540.542 178.016 540.25C178.276 539.958 178.672 539.812 179.203 539.812C179.672 539.812 180.052 539.948 180.344 540.219C180.646 540.479 180.797 540.812 180.797 541.219C180.797 541.24 180.802 541.307 180.812 541.422C180.823 541.536 180.828 541.651 180.828 541.766V545C180.828 545.698 180.703 546.198 180.453 546.5C180.203 546.802 179.797 546.953 179.234 546.953C178.703 546.953 178.302 546.812 178.031 546.531C177.76 546.25 177.625 545.833 177.625 545.281V545H174.875V549.672H182.141V547.812C182.141 547.115 182.271 546.615 182.531 546.312C182.802 546.01 183.24 545.859 183.844 545.859C184.438 545.859 184.859 546.01 185.109 546.312C185.37 546.604 185.5 547.104 185.5 547.812V551.594C185.5 552.156 185.391 552.531 185.172 552.719C184.953 552.906 184.521 553 183.875 553H171.078C170.391 553 169.896 552.865 169.594 552.594C169.302 552.323 169.156 551.88 169.156 551.266C169.156 550.714 169.297 550.297 169.578 550.016C169.859 549.724 170.271 549.578 170.812 549.578H171.078V537.922H170.812C170.281 537.922 169.87 537.776 169.578 537.484C169.297 537.182 169.156 536.755 169.156 536.203C169.156 535.599 169.307 535.161 169.609 534.891C169.911 534.609 170.401 534.469 171.078 534.469H183.875C184.51 534.469 184.938 534.568 185.156 534.766C185.385 534.953 185.5 535.333 185.5 535.906V539.406C185.5 540.115 185.37 540.625 185.109 540.938C184.849 541.24 184.427 541.391 183.844 541.391C183.24 541.391 182.802 541.234 182.531 540.922C182.271 540.609 182.141 540.104 182.141 539.406V537.766ZM192.75 552.781C192.479 552.99 192.198 553.146 191.906 553.25C191.625 553.365 191.333 553.422 191.031 553.422C190.583 553.422 190.266 553.302 190.078 553.062C189.901 552.823 189.812 552.375 189.812 551.719V549.641C189.812 548.953 189.927 548.469 190.156 548.188C190.385 547.896 190.781 547.75 191.344 547.75C191.958 547.75 192.458 548.047 192.844 548.641C193.073 548.964 193.266 549.203 193.422 549.359C193.932 549.818 194.526 550.161 195.203 550.391C195.88 550.62 196.651 550.734 197.516 550.734C198.266 550.734 198.865 550.589 199.312 550.297C199.76 550.005 199.984 549.625 199.984 549.156C199.984 548.312 198.781 547.729 196.375 547.406C195.844 547.344 195.427 547.286 195.125 547.234C193.312 546.984 191.964 546.495 191.078 545.766C190.193 545.026 189.75 544.036 189.75 542.797C189.75 541.328 190.281 540.193 191.344 539.391C192.406 538.589 193.922 538.188 195.891 538.188C196.568 538.188 197.26 538.245 197.969 538.359C198.688 538.464 199.422 538.63 200.172 538.859C200.391 538.599 200.62 538.406 200.859 538.281C201.109 538.156 201.385 538.094 201.688 538.094C202.115 538.094 202.438 538.229 202.656 538.5C202.885 538.76 203 539.156 203 539.688V541.609C203 542.057 202.885 542.406 202.656 542.656C202.427 542.896 202.104 543.016 201.688 543.016C201.26 543.016 200.526 542.646 199.484 541.906C198.453 541.156 197.417 540.781 196.375 540.781C195.562 540.781 194.932 540.917 194.484 541.188C194.036 541.448 193.812 541.812 193.812 542.281C193.812 543.01 194.75 543.5 196.625 543.75C197.167 543.812 197.594 543.865 197.906 543.906C200.26 544.25 201.875 544.766 202.75 545.453C203.635 546.13 204.078 547.141 204.078 548.484C204.078 550.057 203.495 551.276 202.328 552.141C201.172 552.995 199.526 553.422 197.391 553.422C196.557 553.422 195.755 553.365 194.984 553.25C194.214 553.146 193.469 552.99 192.75 552.781ZM215.016 539.438H219.781C220.5 539.438 221.01 539.568 221.312 539.828C221.615 540.089 221.766 540.521 221.766 541.125C221.766 541.74 221.609 542.182 221.297 542.453C220.995 542.724 220.49 542.859 219.781 542.859H215.016V546.859C215.016 547.984 215.188 548.755 215.531 549.172C215.875 549.589 216.479 549.797 217.344 549.797C218.156 549.797 219.115 549.562 220.219 549.094C221.323 548.625 222.062 548.391 222.438 548.391C222.865 548.391 223.229 548.562 223.531 548.906C223.844 549.24 224 549.646 224 550.125C224 550.927 223.271 551.661 221.812 552.328C220.365 552.984 218.719 553.312 216.875 553.312C215.802 553.312 214.859 553.167 214.047 552.875C213.234 552.583 212.594 552.167 212.125 551.625C211.781 551.208 211.536 550.708 211.391 550.125C211.245 549.542 211.172 548.568 211.172 547.203V546.859V542.859H209.703C208.995 542.859 208.49 542.724 208.188 542.453C207.896 542.182 207.75 541.74 207.75 541.125C207.75 540.51 207.896 540.078 208.188 539.828C208.479 539.568 208.984 539.438 209.703 539.438H211.172V535.781C211.172 535.062 211.318 534.557 211.609 534.266C211.911 533.974 212.406 533.828 213.094 533.828C213.781 533.828 214.271 533.974 214.562 534.266C214.865 534.557 215.016 535.062 215.016 535.781V539.438ZM235.312 547.344C236.292 547.344 237.078 547.615 237.672 548.156C238.276 548.698 238.578 549.406 238.578 550.281C238.578 551.146 238.276 551.854 237.672 552.406C237.078 552.948 236.292 553.219 235.312 553.219C234.354 553.219 233.573 552.948 232.969 552.406C232.365 551.854 232.062 551.146 232.062 550.281C232.062 549.417 232.365 548.714 232.969 548.172C233.573 547.62 234.354 547.344 235.312 547.344Z" fill="#0B533B"/>
<path d="M452.578 549.484H458.047V549.391C458.047 548.859 458.188 548.464 458.469 548.203C458.76 547.943 459.188 547.812 459.75 547.812C460.208 547.812 460.562 547.943 460.812 548.203C461.062 548.453 461.188 548.812 461.188 549.281V549.484L461.062 551.906C461.042 552.385 460.964 552.688 460.828 552.812C460.703 552.938 460.474 553 460.141 553H448.906C448.302 553 447.833 552.87 447.5 552.609C447.177 552.349 447.016 551.979 447.016 551.5C447.016 551.104 447.115 550.719 447.312 550.344C447.521 549.958 447.849 549.552 448.297 549.125L454.656 542.984C455.344 542.318 455.854 541.651 456.188 540.984C456.531 540.318 456.703 539.651 456.703 538.984C456.703 538.047 456.474 537.349 456.016 536.891C455.568 536.432 454.88 536.203 453.953 536.203C453.411 536.203 452.927 536.286 452.5 536.453C452.083 536.609 451.76 536.833 451.531 537.125C451.406 537.271 451.255 537.495 451.078 537.797C450.578 538.609 450.026 539.016 449.422 539.016C448.901 539.016 448.505 538.844 448.234 538.5C447.974 538.156 447.844 537.646 447.844 536.969C447.844 536.271 447.927 535.75 448.094 535.406C448.26 535.062 448.594 534.719 449.094 534.375C449.906 533.833 450.76 533.432 451.656 533.172C452.562 532.911 453.542 532.781 454.594 532.781C456.562 532.781 458.12 533.312 459.266 534.375C460.422 535.438 461 536.865 461 538.656C461 539.854 460.698 541.005 460.094 542.109C459.5 543.203 458.573 544.297 457.312 545.391L452.578 549.484ZM473.875 536.297C472.771 536.297 471.896 536.901 471.25 538.109C470.615 539.318 470.297 540.984 470.297 543.109C470.297 545.266 470.615 546.953 471.25 548.172C471.885 549.38 472.76 549.984 473.875 549.984C474.99 549.984 475.865 549.38 476.5 548.172C477.146 546.953 477.469 545.266 477.469 543.109C477.469 540.984 477.146 539.318 476.5 538.109C475.865 536.901 474.99 536.297 473.875 536.297ZM473.844 532.781C476.24 532.781 478.141 533.714 479.547 535.578C480.953 537.432 481.656 539.953 481.656 543.141C481.656 546.339 480.953 548.87 479.547 550.734C478.141 552.589 476.24 553.516 473.844 553.516C471.469 553.516 469.583 552.589 468.188 550.734C466.802 548.87 466.109 546.339 466.109 543.141C466.109 539.943 466.802 537.417 468.188 535.562C469.583 533.708 471.469 532.781 473.844 532.781ZM491.016 549.484H496.484V549.391C496.484 548.859 496.625 548.464 496.906 548.203C497.198 547.943 497.625 547.812 498.188 547.812C498.646 547.812 499 547.943 499.25 548.203C499.5 548.453 499.625 548.812 499.625 549.281V549.484L499.5 551.906C499.479 552.385 499.401 552.688 499.266 552.812C499.141 552.938 498.911 553 498.578 553H487.344C486.74 553 486.271 552.87 485.938 552.609C485.615 552.349 485.453 551.979 485.453 551.5C485.453 551.104 485.552 550.719 485.75 550.344C485.958 549.958 486.286 549.552 486.734 549.125L493.094 542.984C493.781 542.318 494.292 541.651 494.625 540.984C494.969 540.318 495.141 539.651 495.141 538.984C495.141 538.047 494.911 537.349 494.453 536.891C494.005 536.432 493.318 536.203 492.391 536.203C491.849 536.203 491.365 536.286 490.938 536.453C490.521 536.609 490.198 536.833 489.969 537.125C489.844 537.271 489.693 537.495 489.516 537.797C489.016 538.609 488.464 539.016 487.859 539.016C487.339 539.016 486.943 538.844 486.672 538.5C486.411 538.156 486.281 537.646 486.281 536.969C486.281 536.271 486.365 535.75 486.531 535.406C486.698 535.062 487.031 534.719 487.531 534.375C488.344 533.833 489.198 533.432 490.094 533.172C491 532.911 491.979 532.781 493.031 532.781C495 532.781 496.557 533.312 497.703 534.375C498.859 535.438 499.438 536.865 499.438 538.656C499.438 539.854 499.135 541.005 498.531 542.109C497.938 543.203 497.01 544.297 495.75 545.391L491.016 549.484ZM515.172 542.281C516.37 542.656 517.26 543.25 517.844 544.062C518.427 544.865 518.719 545.911 518.719 547.203C518.719 549.151 518.057 550.698 516.734 551.844C515.422 552.979 513.63 553.547 511.359 553.547C509.526 553.547 508.01 553.245 506.812 552.641C505.615 552.036 505.016 551.302 505.016 550.438C505.016 549.927 505.177 549.516 505.5 549.203C505.833 548.88 506.271 548.719 506.812 548.719C507.073 548.719 507.734 548.953 508.797 549.422C509.859 549.891 510.797 550.125 511.609 550.125C512.589 550.125 513.339 549.865 513.859 549.344C514.391 548.812 514.656 548.057 514.656 547.078C514.656 546.026 514.432 545.276 513.984 544.828C513.547 544.38 512.703 544.13 511.453 544.078C510.797 544.057 510.354 543.932 510.125 543.703C509.906 543.464 509.797 543.042 509.797 542.438C509.797 541.604 510.245 541.125 511.141 541C511.266 540.99 511.359 540.979 511.422 540.969C512.547 540.812 513.276 540.547 513.609 540.172C513.943 539.786 514.109 539.167 514.109 538.312C514.109 537.573 513.906 537 513.5 536.594C513.104 536.177 512.542 535.969 511.812 535.969C511.042 535.969 510.177 536.214 509.219 536.703C508.26 537.182 507.599 537.422 507.234 537.422C506.828 537.422 506.5 537.292 506.25 537.031C506.01 536.76 505.891 536.422 505.891 536.016C505.891 535.13 506.505 534.37 507.734 533.734C508.964 533.099 510.479 532.781 512.281 532.781C514.094 532.781 515.536 533.25 516.609 534.188C517.693 535.125 518.234 536.37 518.234 537.922C518.234 538.943 517.984 539.807 517.484 540.516C516.995 541.214 516.224 541.802 515.172 542.281Z" fill="#0B533B"/>
<rect x="5" y="5" width="679" height="917" rx="339.5" stroke="#FFF4DE" stroke-width="10"/>
<rect x="25.5" y="33.5" width="638" height="860" rx="319" stroke="#FFF4DE" stroke-width="5"/>
<path d="M143.141 285.369L158.185 296.592L160.489 298.662C161.363 299.484 161.711 300.69 161.533 302.28C161.33 302.66 161.087 303.035 160.804 303.406C160.521 303.777 159.645 304.766 158.177 306.372C156.798 307.908 156.001 309.63 155.787 311.538L150.26 360.91C149.859 364.487 149.362 366.766 148.77 367.747C148.186 368.647 146.94 368.991 145.032 368.777C143.601 368.617 142.7 368.033 142.33 367.025L141.061 363.261C140.585 361.759 139.976 360.724 139.235 360.158C138.414 359.584 137.606 359.252 136.811 359.163L83.3844 353.181C81.7148 352.994 80.4422 353.576 79.5664 354.927L77.5488 358.927C76.9382 360.066 75.8379 360.547 74.2479 360.369C72.5783 360.182 71.4481 359.492 70.8572 358.299C70.1956 357.017 70.0563 354.667 70.439 351.248L74.8319 312.013C75.0278 310.264 74.7599 308.343 74.0284 306.248C73.2263 304.065 72.8036 302.448 72.7603 301.397C72.8938 300.205 73.2303 299.357 73.7696 298.854C74.3178 298.271 75.2858 297.534 76.6736 296.643L91.7872 288.917C92.2998 288.652 92.8477 288.432 93.4309 288.255C93.9347 288.07 94.5885 287.983 95.3924 287.992C96.267 288.09 96.9866 288.493 97.5514 289.2C98.0457 289.819 98.3055 290.733 98.331 291.944C95.0683 295.201 92.0836 298.851 89.3768 302.895C86.6789 306.86 85.0274 311.545 84.4221 316.951L83.6343 323.987C83.1981 327.883 83.4831 330.37 84.4894 331.449C85.4956 332.527 87.867 333.276 91.6037 333.694L95.7776 334.162C97.6062 334.366 99.0242 334.284 100.032 333.913C100.889 333.446 101.429 332.218 101.651 330.231L102.052 326.653C102.364 323.871 101.583 321.851 99.7115 320.595C97.7691 319.251 96.878 317.863 97.0382 316.432C97.1717 315.239 97.5921 314.361 98.2993 313.796L100.368 312.578L115.866 304.654C116.82 304.036 117.898 303.754 119.1 303.808C121.723 304.102 122.888 305.561 122.595 308.184C122.434 309.615 121.643 310.935 120.219 312.144C118.132 314.245 116.381 316.585 114.966 319.163C113.55 321.742 112.682 324.462 112.361 327.324C111.987 330.664 111.853 332.943 111.958 334.162C112.072 335.302 114.037 336.085 117.853 336.513L134.907 338.422C137.292 338.689 138.979 338.355 139.97 337.419C140.96 336.483 141.642 334.346 142.016 331.007L143.752 315.504C144.375 309.939 143.743 304.796 141.856 300.077L135.48 286.926C135.72 284.779 137.113 283.848 139.657 284.133C140.929 284.276 142.09 284.688 143.141 285.369Z" fill="#FFF4DE"/>
<path d="M120.882 190.171C121.439 189.292 122.26 188.818 123.346 188.748C124.475 188.611 125.598 188.707 126.715 189.036L189.851 202.618L194.757 203.17C195.402 203.199 196.456 202.731 197.921 201.764C199.36 200.688 200.62 199.971 201.699 199.613C202.778 199.255 203.859 199.418 204.94 200.103C206.156 200.874 206.735 201.904 206.676 203.192C206.617 204.481 205.71 206.511 203.954 209.281L191.43 229.047C190.574 230.399 189.664 231.385 188.702 232.007C187.715 232.518 186.58 232.367 185.296 231.553C184.688 231.168 184.245 230.746 183.968 230.286C183.667 229.716 183.591 228.863 183.742 227.728L183.875 224.828C183.855 223.963 183.498 223.406 182.804 223.155C180.274 222.215 177.521 221.702 174.545 221.616C171.502 221.487 169.552 222.098 168.695 223.45L157.199 241.594C156.171 243.216 156.135 244.992 157.089 246.923C158.019 248.744 158.943 250.276 159.859 251.52C160.751 252.653 161.698 253.774 162.701 254.883C163.131 255.25 163.754 255.313 164.569 255.072L167.3 253.677L169.507 252.66C169.906 252.629 170.566 252.858 171.487 253.347C172.636 254.075 173.224 255.015 173.25 256.169C173.21 257.28 172.74 258.544 171.84 259.964L160.986 277.094C159.915 278.784 158.963 279.838 158.13 280.257C157.271 280.565 156.133 280.27 154.714 279.37C153.767 278.771 153.208 278.085 153.034 277.312C152.904 276.472 153.079 274.925 153.559 272.672C154.082 270.352 154.168 268.797 153.817 268.006L151.378 263.335L115.09 207.383C114.124 205.919 113.554 204.8 113.381 204.027C113.208 203.255 113.332 202.386 113.753 201.422L120.882 190.171ZM157.757 221.207C158.528 219.991 158.796 219.119 158.562 218.592C158.371 217.997 157.87 217.442 157.059 216.929C156.518 216.586 155.858 216.357 155.078 216.242L153.504 215.813L132.198 211.547L144.512 230.004C145.109 230.855 145.871 231.67 146.799 232.447C147.813 233.09 148.587 233.438 149.121 233.492C149.697 233.479 150.414 232.796 151.27 231.445L157.757 221.207Z" fill="#FFF4DE"/>
<path d="M186.226 141.074C183.248 136.144 182.663 131.076 184.471 125.871C186.307 120.555 190.786 115.747 197.907 111.444C202.495 108.672 206.488 106.774 209.888 105.748L215.603 103.837C216.425 103.341 217.073 102.248 217.548 100.559C217.982 98.8016 218.726 97.5577 219.78 96.8273C221.013 96.0827 222.57 96.0299 224.451 96.669L231.889 99.4657L241.101 103.574C244.234 105.046 245.965 106.056 246.296 106.604C247.372 108.384 247.157 109.73 245.65 110.64L225.033 112.02C218.792 112.519 213.652 113.989 209.612 116.43C207.284 117.836 205.807 119.336 205.18 120.93C204.623 122.482 204.757 123.943 205.585 125.312C207.033 127.709 213.495 127.73 224.971 125.376C236.475 122.913 246.309 121.785 254.473 121.993C262.595 122.133 269.015 126.106 273.731 133.912C278.364 141.581 279.038 148.885 275.753 155.823C272.426 162.694 266.894 168.466 259.157 173.141C254.98 175.664 249.28 178.22 242.058 180.808L230.032 185.269C229.073 185.848 228.528 187.112 228.397 189.061C228.224 190.941 227.385 192.336 225.879 193.246C224.509 194.074 222.931 194.092 221.145 193.302L213.765 189.208L204.466 183.33C203.063 182.402 201.943 181.63 201.104 181.015C200.224 180.332 199.605 179.771 199.247 179.333C198.792 178.58 198.659 177.819 198.849 177.05C199.038 176.281 199.537 175.559 200.344 174.885C207.892 175.465 215.726 175.359 223.846 174.566C231.924 173.704 239.832 170.936 247.57 166.261C251.815 163.696 254.585 160.855 255.878 157.736C257.131 154.55 257.075 151.826 255.709 149.567C253.475 145.869 245.282 145.071 231.13 147.172C216.977 149.274 206.931 150.436 200.991 150.66C195.119 150.843 190.198 147.647 186.226 141.074Z" fill="#FFF4DE"/>
<path d="M318.492 79.931L311.559 80.5419C306.299 81.0053 301.88 82.8001 298.3 85.9263L287.755 96.1313C285.524 96.3279 284.31 95.3105 284.113 93.0791C284.008 91.8837 284.251 90.5372 284.842 89.0396L291.017 71.6304C291.418 70.7116 291.989 69.8984 292.73 69.1907C293.464 68.4032 294.468 67.9533 295.743 67.841C296.301 67.7918 297.459 68.1717 299.217 68.9805C300.794 69.5643 302.267 69.8763 303.636 69.9163L351.45 65.7034C352.965 65.57 354.36 65.0053 355.638 64.0093C356.988 62.9266 358.062 62.3502 358.859 62.28C360.134 62.1676 361.111 62.3225 361.791 62.7444C362.55 63.1594 363.384 63.9693 364.294 65.1741L373.299 81.2458C374.157 82.7764 374.638 84.1394 374.743 85.3348C374.926 87.4067 373.981 88.534 371.909 88.7166C367.356 85.3432 363.094 82.5465 359.124 80.3264C355.226 78.0195 350.767 77.0873 345.746 77.5297L338.813 78.1405L343.679 133.367C343.862 135.439 344.865 136.796 346.688 137.438L351.16 138.972C352.397 139.344 353.079 140.248 353.206 141.683C353.353 143.356 352.98 144.594 352.087 145.395C351.267 146.11 349.064 146.625 345.478 146.941L323.961 148.837C320.375 149.153 318.076 149.034 317.063 148.481C316.051 147.928 315.467 146.774 315.313 145.021C315.207 143.826 315.492 142.958 316.167 142.416L319.606 140.427C321.216 139.562 322.225 138.71 322.633 137.871C323.041 137.032 323.283 136.127 323.358 135.157L318.492 79.931Z" fill="#FFF4DE"/>
<path d="M414.889 88.5581C416.959 83.1832 420.606 79.6155 425.828 77.855C431.153 76.0486 437.698 76.6409 445.461 79.6318C450.463 81.5586 454.411 83.5509 457.305 85.6087L462.317 88.9543C463.213 89.2994 464.474 89.1421 466.099 88.4825C467.754 87.7482 469.193 87.5738 470.416 87.9593C471.76 88.4769 472.756 89.675 473.404 91.5535L475.752 99.1451L478.15 108.942C478.906 112.32 479.169 114.307 478.939 114.905C478.192 116.845 476.997 117.5 475.354 116.867L461.63 101.421C457.41 96.7946 453.099 93.6332 448.694 91.9365C446.156 90.9587 444.065 90.7106 442.423 91.1921C440.854 91.7025 439.783 92.7042 439.207 94.1972C438.201 96.81 442.144 101.93 451.037 109.556C460.033 117.137 466.95 124.217 471.789 130.796C476.656 137.301 477.45 144.808 474.171 153.318C470.951 161.68 465.592 166.688 458.095 168.344C450.628 169.925 442.676 169.091 434.24 165.841C429.687 164.087 424.174 161.149 417.703 157.027L406.809 150.258C405.763 149.855 404.431 150.199 402.81 151.29C401.219 152.305 399.602 152.497 397.96 151.864C396.467 151.289 395.485 150.054 395.015 148.158L393.727 139.818L392.673 128.867C392.548 127.189 392.471 125.831 392.443 124.791C392.444 123.677 392.507 122.844 392.634 122.293C392.95 121.472 393.47 120.901 394.194 120.579C394.918 120.258 395.794 120.21 396.822 120.434C400.989 126.755 405.873 132.88 411.476 138.81C417.107 144.666 424.141 149.219 432.576 152.469C437.205 154.252 441.148 154.699 444.405 153.811C447.691 152.848 449.808 151.134 450.757 148.671C452.31 144.639 447.92 137.676 437.587 127.78C427.253 117.883 420.178 110.657 416.361 106.1C412.619 101.572 412.128 95.7247 414.889 88.5581Z" fill="#FFF4DE"/>
<path d="M498.859 189.263C498.085 190.18 497.584 190.96 497.355 191.604C497.125 192.248 497.426 193.443 498.255 195.19C499.249 196.865 499.805 198.067 499.924 198.795C500.206 199.452 499.971 200.352 499.216 201.495C498.03 202.901 496.68 203.385 495.166 202.946C493.756 202.384 492.042 201.252 490.024 199.55L473.789 185.855C471.16 183.637 469.684 181.974 469.363 180.865C469.103 179.809 469.515 178.638 470.598 177.354C471.217 176.62 471.865 176.225 472.541 176.167C473.33 176.101 474.686 176.354 476.608 176.929C478.592 177.556 479.973 177.779 480.753 177.6C481.584 177.359 482.422 176.862 483.266 176.109L517.311 135.75C517.878 135.078 518.149 134.26 518.124 133.297C518.273 132.376 518.049 131.402 517.45 130.374L515.874 126.846C515.298 125.418 515.475 124.154 516.403 123.054C517.487 121.77 518.623 121.106 519.811 121.061C521.061 121.069 523 122.182 525.63 124.4L541.865 138.095C544.494 140.313 545.948 142.063 546.228 143.345C546.507 144.627 546.105 145.91 545.021 147.194C544.248 148.112 543.4 148.496 542.479 148.347L538.659 147.479C537.136 146.927 535.881 146.863 534.895 147.287L532.904 148.904L498.859 189.263Z" fill="#FFF4DE"/>
<path d="M523.836 239.938L507.378 212.728C505.598 209.785 504.678 207.723 504.619 206.543C504.67 205.391 505.414 204.38 506.851 203.51C508.015 202.806 509.174 202.713 510.328 203.23L513.588 205.606C514.703 206.521 515.692 206.998 516.557 207.036C517.49 207.033 518.443 206.83 519.415 206.429L566.34 178.047C567.161 177.551 567.527 176.301 567.438 174.298C566.922 171.899 566.641 170.199 566.597 169.197C566.593 168.264 567.173 167.446 568.337 166.742C569.364 166.121 570.419 165.856 571.504 165.949C572.588 166.041 574.103 167.696 576.049 170.913L582.135 180.975C593.894 200.416 598.959 216.752 597.332 229.984C595.815 243.243 589.786 253.06 579.244 259.437C567.676 266.434 557.329 267.877 548.205 263.766C539.121 259.723 530.998 251.781 523.836 239.938ZM567.151 238.282C573.996 234.142 578.867 228.438 581.763 221.169C584.66 213.901 584.473 207.563 581.202 202.156C579.132 198.733 577.76 196.851 577.086 196.511C576.55 196.087 575.597 196.29 574.228 197.118L531.719 222.829C529.734 224.03 528.756 225.041 528.787 225.865C528.817 226.688 529.764 228.639 531.627 231.72C535.436 238.017 540.615 241.71 547.163 242.798C553.78 243.845 560.442 242.34 567.151 238.282Z" fill="#FFF4DE"/>
<path d="M573.812 362.725L556.658 355.106L553.953 353.598C552.919 352.989 552.313 351.89 552.135 350.3C552.249 349.884 552.404 349.464 552.598 349.04C552.792 348.616 553.427 347.458 554.503 345.567C555.509 343.764 555.905 341.908 555.691 340L550.163 290.628C549.762 287.051 549.743 284.718 550.104 283.632C550.474 282.624 551.613 282.014 553.522 281.8C554.953 281.64 555.96 282.01 556.544 282.911L558.614 286.301C559.41 287.661 560.233 288.535 561.081 288.923C562.009 289.302 562.871 289.447 563.666 289.358L617.092 283.376C618.761 283.189 619.874 282.34 620.429 280.829L621.512 276.482C621.856 275.236 622.822 274.524 624.412 274.346C626.082 274.159 627.337 274.582 628.177 275.615C629.105 276.718 629.761 278.979 630.144 282.398L634.537 321.633C634.733 323.382 635.419 325.197 636.595 327.078C637.86 329.029 638.63 330.512 638.905 331.528C639.038 332.721 638.898 333.622 638.483 334.232C638.077 334.921 637.296 335.854 636.14 337.03L623.109 347.907C622.668 348.279 622.182 348.615 621.653 348.916C621.202 349.208 620.584 349.438 619.798 349.607C618.923 349.704 618.132 349.471 617.425 348.906C616.806 348.412 616.351 347.577 616.058 346.403C618.52 342.505 620.623 338.284 622.369 333.742C624.123 329.279 624.697 324.344 624.092 318.938L623.304 311.902C622.868 308.007 622.04 305.644 620.82 304.815C619.6 303.985 617.122 303.78 613.386 304.198L609.212 304.665C607.383 304.87 606.018 305.264 605.118 305.848C604.385 306.494 604.13 307.81 604.353 309.798L604.753 313.376C605.065 316.158 606.272 317.955 608.375 318.766C610.567 319.648 611.743 320.804 611.903 322.235C612.037 323.428 611.821 324.377 611.256 325.085L609.508 326.729L596.147 337.885C595.352 338.699 594.363 339.212 593.18 339.425C590.556 339.719 589.097 338.554 588.804 335.93C588.643 334.499 589.124 333.037 590.244 331.543C591.815 329.032 593.005 326.363 593.816 323.536C594.626 320.708 594.871 317.863 594.551 315.001C594.177 311.662 593.804 309.409 593.432 308.243C593.069 307.157 590.979 306.828 587.163 307.255L570.109 309.164C567.724 309.431 566.152 310.13 565.393 311.262C564.635 312.393 564.442 314.629 564.816 317.968L566.552 333.471C567.175 339.036 568.928 343.911 571.812 348.096L580.939 359.512C581.179 361.658 580.027 362.874 577.483 363.159C576.211 363.301 574.987 363.157 573.812 362.725Z" fill="#FFF4DE"/>
<mask id="mask2_322_11691" style="mask-type:luminance" maskUnits="userSpaceOnUse" x="251" y="217" width="189" height="193">
<path d="M251 409.429V217H439.58V409.429H251Z" fill="white"/>
</mask>
<g mask="url(#mask2_322_11691)">
<path d="M251.086 313.214C251.086 366.353 293.265 409.429 345.291 409.429C397.322 409.429 439.496 366.353 439.496 313.214C439.496 260.076 397.322 217 345.291 217C293.265 217 251.086 260.076 251.086 313.214ZM258.392 313.134C258.392 306.229 260.587 300.626 263.298 300.626C266.009 300.626 268.209 306.229 268.209 313.134C268.209 320.04 266.009 325.637 263.298 325.637C260.587 325.637 258.392 320.04 258.392 313.134ZM335.093 388.527C342.896 388.833 349.119 391.779 348.989 395.112C348.859 398.444 342.424 400.895 334.622 400.589C326.815 400.288 320.596 397.342 320.726 394.009C320.856 390.677 327.286 388.226 335.093 388.527ZM411.884 364.068C413.949 365.952 411.553 371.93 406.532 377.417C401.516 382.905 395.768 385.826 393.704 383.937C391.639 382.053 394.034 376.074 399.056 370.587C404.077 365.1 409.82 362.183 411.884 364.068ZM285.868 367.36C291.185 372.562 293.906 378.4 291.947 380.394C289.988 382.393 284.094 379.793 278.778 374.591C273.461 369.389 270.735 363.551 272.694 361.557C274.653 359.563 280.552 362.158 285.868 367.36ZM372.617 345.341C372.617 352.291 366.974 357.929 360.014 357.929C353.053 357.929 347.411 352.291 347.411 345.341C347.411 338.39 353.053 332.753 360.014 332.753C366.974 332.753 372.617 338.39 372.617 345.341ZM314.958 324.099C313.054 325.076 310.899 325.637 308.609 325.637C300.907 325.637 294.668 319.403 294.668 311.716C294.668 304.024 300.907 297.79 308.609 297.79C312.989 297.79 316.888 299.809 319.443 302.961C319.448 302.961 319.448 302.961 319.448 302.961L319.564 303.102C321.433 305.472 322.55 308.464 322.55 311.716C322.55 317.108 319.478 321.783 314.993 324.099L314.963 324.079C314.958 324.089 314.958 324.094 314.958 324.099ZM422.067 310.062C421.902 317.474 419.07 323.422 415.738 323.352C412.41 323.277 409.84 317.208 410.005 309.797C410.165 302.385 412.997 296.432 416.329 296.507C419.662 296.577 422.232 302.651 422.067 310.062ZM372.552 275.049H372.557C372.597 275.455 372.617 275.861 372.617 276.277C372.617 282.501 367.916 287.728 361.567 289.166L361.487 288.82L361.562 289.151C360.43 289.406 359.252 289.557 358.034 289.557C349.976 289.557 343.447 283.613 343.447 276.277C343.447 268.941 349.976 262.992 358.034 262.992C365.631 262.992 371.87 268.289 372.552 275.049ZM271.201 270.203C269.422 268.941 271.431 263.058 275.696 257.064C279.955 251.071 284.851 247.232 286.63 248.495C288.409 249.758 286.4 255.641 282.135 261.634C277.876 267.628 272.98 271.466 271.201 270.203ZM403.701 247.633C403.932 247.849 404.157 248.064 404.383 248.28C404.378 248.28 404.372 248.28 404.367 248.28C404.372 248.28 404.383 248.28 404.388 248.28L404.468 248.36C409.449 253.176 412.37 258.046 411.052 259.465C410.757 259.785 410.266 259.901 409.624 259.84L409.574 259.825C407.229 259.57 402.939 256.964 398.69 253.03C393.248 247.989 389.955 242.692 391.338 241.204C392.722 239.716 398.259 242.592 403.701 247.633ZM343.437 228.576C343.732 231.357 337.574 234.288 329.676 235.13C321.778 235.972 315.139 234.404 314.843 231.623C314.542 228.846 320.706 225.91 328.599 225.068C336.496 224.226 343.136 225.8 343.437 228.576Z" fill="#FFF4DE"/>
</g>
<path d="M134.796 769.485L135.091 769.147C139.226 771.904 140.85 771.112 144.678 766.723L165.247 743.136C169.369 738.409 169.637 737.029 166.344 733.308L166.638 732.971L181.013 745.505C189.213 752.656 194.18 760.3 187.997 767.391C181.646 774.674 172.065 769.886 163.72 762.609L160.343 759.665L150.08 771.434C146.252 775.823 145.737 777.582 149.417 781.64L149.122 781.978L134.796 769.485ZM161.101 758.796L163.898 761.236C169.638 766.241 176.801 768.836 182.354 762.469C187.653 756.392 184.838 750.37 179.532 745.743L175.528 742.251L161.101 758.796Z" fill="#FFF4DE"/>
<path d="M181.719 808.155C177.37 805.453 175.615 801.122 178.418 796.61C181.356 791.881 186.127 792.207 194.016 794.547C200.201 796.355 203.12 797.114 205.863 792.941C208.113 789.442 207.392 786.357 204.131 784.33C201.141 782.473 195.998 782.14 191.978 788.61L186.977 785.502C191.504 778.822 200.009 780.413 205.445 783.791C210.827 787.135 213.833 792.242 209.644 798.983L201.606 811.921C200.052 814.422 200.037 816.145 201.504 817.057C202.537 817.698 203.284 817.71 204.362 817.551L203.977 818.292C201.442 818.977 199.433 818.935 197.313 817.617C194.432 815.827 193.582 812.587 196.352 808.129L198.142 805.248C193.548 809.853 187.481 811.735 181.719 808.155ZM184.455 798.779C182.395 802.095 183.427 804.921 185.982 806.508C191.037 809.649 197.115 807.021 201.472 800.009L203.6 796.584C201.955 797.897 199.417 797.375 195.153 796.233C190.265 795.005 186.853 794.919 184.455 798.779Z" fill="#FFF4DE"/>
<path d="M234.825 834.982C236.374 832.787 237.42 830.797 238.637 827.906L239.282 826.372C235.582 831.203 230.33 833.784 224.195 831.201C216.586 827.998 214.868 819.707 218.419 811.271C222.317 802.01 230.233 798.051 237.724 801.205C242.266 803.117 245.132 807.031 245.365 811.921L251.548 797.233C253.51 792.573 253.351 791.464 250.045 789.587L250.169 789.292L261.749 791.805L261.683 792.125C260.796 792.584 260.072 793.808 257.565 799.765L244.877 829.908C242.617 835.276 242.503 837.033 245.853 839.137L245.679 839.55L234.825 834.982ZM224.848 813.978C221.844 821.115 221.87 827.653 227.355 829.962C233.018 832.346 238.537 828.142 241.889 820.179L244.645 813.631C245.055 809.359 242.71 805.526 239.112 804.011C233.744 801.752 228.349 805.661 224.848 813.978Z" fill="#FFF4DE"/>
<path d="M281.915 849.497C283.078 847.075 283.779 844.939 284.499 841.887L284.881 840.267C282.034 845.645 277.283 849.062 270.805 847.534C262.769 845.638 259.699 837.747 261.8 828.839C264.106 819.06 271.255 813.841 279.166 815.707C283.963 816.839 287.439 820.223 288.48 825.006L292.139 809.496C293.3 804.575 292.959 803.508 289.387 802.205L289.46 801.894L301.297 802.45L301.286 802.776C300.487 803.377 299.976 804.703 298.492 810.994L290.985 842.825C289.648 848.493 289.826 850.245 293.479 851.764L293.376 852.2L281.915 849.497ZM268.589 830.441C266.812 837.978 267.922 844.421 273.715 845.787C279.695 847.198 284.44 842.136 286.423 833.727L288.054 826.812C287.749 822.532 284.801 819.141 281.001 818.244C275.332 816.907 270.661 821.658 268.589 830.441Z" fill="#FFF4DE"/>
<path d="M304.875 853.69L304.922 853.244C309.381 853.073 310.193 851.486 310.807 845.694L314.255 813.173C314.774 808.272 313.984 807.223 310.213 806.373L310.26 805.927L322.391 805.025L322.471 805.484C321.754 806.18 321.364 807.426 320.683 813.854L317.235 846.376C316.621 852.167 317.018 853.883 321.151 854.965L321.104 855.41L304.875 853.69Z" fill="#FFF4DE"/>
<path d="M347.163 857.395C337.948 857.515 331.594 851.197 331.463 841.086C331.326 830.59 338.41 824.034 347.241 823.919C356.072 823.805 361.523 829.495 361.877 837.043L338.071 837.352C338.014 837.928 338.022 838.504 338.03 839.144C338.138 847.464 341.49 854.269 349.554 854.164C355.953 854.081 359.676 849.936 361.446 843.321L362.342 843.309C360.661 851.844 355.675 857.285 347.163 857.395ZM338.18 835.942L355.523 835.717C355.316 829.639 352.567 824.938 347.191 825.008C342.072 825.075 338.865 829.533 338.18 835.942Z" fill="#FFF4DE"/>
<path d="M424.203 846.435C409.494 850.632 398.016 842.593 394.24 829.361C390.078 814.776 397.537 802.198 411.323 798.264C422.032 795.209 431.912 798.579 437.64 808.392L431.055 810.271C426.882 801.944 420.009 796.984 411.701 799.355C401.177 802.358 397.946 814.128 401.23 825.636C404.708 837.822 413.303 845.552 425.611 842.04C436.443 838.949 441.246 830.124 439.957 818.845L440.942 818.564C442.801 831.611 437.558 842.624 424.203 846.435Z" fill="#FFF4DE"/>
<path d="M459.607 833.44L459.421 833.032C463.173 830.617 463.064 828.837 460.646 823.539L447.071 793.786C445.025 789.302 443.811 788.801 440.132 789.987L439.946 789.58L449.931 782.632L450.233 782.986C449.97 783.951 450.268 785.222 452.951 791.102L466.527 820.855C468.945 826.154 470.16 827.429 474.268 826.258L474.454 826.665L459.607 833.44Z" fill="#FFF4DE"/>
<path d="M495.519 816.617C490.294 819.85 485.495 818.905 481.353 812.211L474.72 801.49C471.655 796.537 470.29 795.425 466.633 796.935L466.397 796.554L479.242 788.607L479.477 788.988C476.766 791.418 477.206 793.102 480.271 798.055L486.77 808.559C489.935 813.675 492.936 814.753 496.582 812.497C500.555 810.039 501.095 804.587 499.158 799.388L493.333 789.973C490.268 785.02 488.958 783.875 485.573 785.216L485.337 784.835L498.399 776.753L498.635 777.134C495.434 779.867 495.82 781.586 498.884 786.538L506.326 798.566C509.626 803.9 510.756 804.631 514.63 802.986L514.866 803.367L504.307 809.9C504.753 808.796 504.075 807.334 500.775 802.001L500.606 801.729C501.966 807.21 500.852 813.317 495.519 816.617Z" fill="#FFF4DE"/>
<path d="M524.41 796.797L524.115 796.46C527.01 793.065 526.392 791.392 522.548 787.017L501.005 762.496C497.668 758.698 496.559 758.309 493.427 760.465L493.216 760.224L500.53 750.902L500.831 751.148C500.857 752.147 501.6 753.284 505.909 758.188L518.581 772.611C515.759 767.169 515.681 761.359 520.873 756.797C526.931 751.474 535.148 753.456 541.315 760.476C547.862 767.928 548.055 776.875 542.093 782.113C538.439 785.323 533.57 786.278 528.888 784.343C530.674 786.182 532.17 787.593 533.834 788.517L524.41 796.797ZM527.748 783.045C531.78 785.21 535.891 784.75 538.728 782.258C543.247 778.287 542.121 771.865 536.122 765.038C531.053 759.269 525.027 756.385 520.603 760.271C515.94 764.369 517.314 771.169 523.101 777.756L527.157 782.372L527.748 783.045Z" fill="#FFF4DE"/>
</svg>
