<svg width="385" height="385" viewBox="0 0 385 385" fill="none" xmlns="http://www.w3.org/2000/svg">
<path d="M85.4419 97.6756C85.8295 97.2156 86.1209 96.9606 86.3163 96.9106C86.5107 96.8496 86.7273 96.9198 86.9663 97.1212C87.2113 97.3276 87.3262 97.5368 87.311 97.7487C87.2949 97.9497 87.0931 98.2802 86.7055 98.7403L82.1221 104.18L81.7672 104.601C81.586 104.816 81.3938 104.935 81.1906 104.958C80.9874 104.981 80.7783 104.902 80.5632 104.721C80.3242 104.519 80.2183 104.318 80.2454 104.116C80.2665 103.909 80.4709 103.575 80.8585 103.115L82.565 101.09L74.4904 94.2867L72.7839 96.3121C72.4064 96.7602 72.1149 97.0152 71.9095 97.0771C71.6981 97.1339 71.47 97.0592 71.225 96.8528C71.004 96.6665 70.8905 96.4739 70.8845 96.2748C70.8726 96.0707 70.9623 95.8551 71.1536 95.628L71.4934 95.2248L76.0768 89.785L76.4317 89.3637C76.6129 89.1487 76.8026 89.0327 77.0007 89.0157C77.2039 88.9928 77.4131 89.072 77.6281 89.2532C77.8731 89.4596 77.9855 89.6718 77.9653 89.8897C77.9442 90.0967 77.7448 90.4242 77.3673 90.8723L75.6608 92.8976L83.7354 99.701L85.4419 97.6756Z" fill="#FFF4DE"/>
<path d="M90.7582 92.2743L85.5707 86.8415L85.4097 86.9953C85.0255 87.3621 84.7167 87.5705 84.4835 87.6204C84.2559 87.6649 84.0342 87.5741 83.8184 87.3481C83.6188 87.139 83.5351 86.9326 83.5675 86.7289C83.5944 86.5196 83.7407 86.2881 84.0062 86.0345L84.4046 85.6542L85.2182 84.8772C85.3708 84.7316 85.5191 84.6494 85.6632 84.6306C85.8073 84.6118 85.9306 84.6561 86.0331 84.7635L86.5835 85.3398C86.6291 84.5617 86.7661 83.8907 86.9947 83.3269C87.2234 82.7519 87.5554 82.2568 87.9904 81.8413C88.8436 81.0267 89.7668 80.6529 90.7599 80.72C91.7586 80.7818 92.7058 81.2816 93.6014 82.2196L97.2675 86.059L97.6658 85.6786C97.9483 85.4089 98.1976 85.2627 98.4136 85.24C98.6243 85.2117 98.8267 85.2993 99.0209 85.5027C99.2313 85.7231 99.3146 85.946 99.2707 86.1716C99.2271 86.3861 99.0357 86.6552 98.6967 86.9789L96.8236 88.7674C96.462 89.1127 96.1899 89.2915 96.0072 89.3039C95.8246 89.3163 95.62 89.2038 95.3934 88.9665C95.183 88.7461 95.0966 88.5369 95.1344 88.3388C95.1721 88.1408 95.3548 87.8853 95.6825 87.5724L95.9792 87.2891L92.6125 83.7633C91.9813 83.1022 91.3514 82.7423 90.7228 82.6836C90.0888 82.6192 89.4865 82.8595 88.9158 83.4044C88.3395 83.9547 88.0171 84.6352 87.9486 85.4459C87.8802 86.2566 88.1211 86.9501 88.6714 87.5265L92.0381 91.0523L92.3347 90.769C92.6737 90.4453 92.943 90.2692 93.1426 90.2407C93.3422 90.2121 93.5472 90.308 93.7576 90.5284C93.9842 90.7657 94.0871 90.9753 94.0663 91.1572C94.0456 91.339 93.8374 91.6188 93.4419 91.9965L91.8993 93.4694L91.4417 93.9064C91.21 94.1276 90.989 94.2468 90.7786 94.2641C90.5685 94.2703 90.3636 94.1688 90.164 93.9598C89.9482 93.7337 89.8675 93.5191 89.9219 93.3159C89.9766 93.1017 90.196 92.8111 90.5803 92.4443L90.7582 92.2743Z" fill="#FFF4DE"/>
<path d="M110.03 77.9366C109.9 78.0364 109.783 78.0767 109.679 78.0575C109.578 78.0273 109.455 77.9192 109.313 77.7332L108.728 76.9705C108.713 77.7207 108.526 78.4399 108.167 79.128C107.804 79.81 107.297 80.4005 106.646 80.8995C105.474 81.7978 104.173 82.1357 102.742 81.9131C101.313 81.6797 100.123 80.9429 99.1727 79.7028C98.1889 78.4192 97.7931 77.0296 97.9852 75.5337C98.1726 74.0317 98.8957 72.7982 100.154 71.8334C100.793 71.3439 101.455 71.019 102.139 70.8587C102.818 70.6922 103.51 70.6889 104.213 70.8487L101.483 67.2865L100.99 67.6643C100.45 68.0778 100.064 68.2998 99.8318 68.3304C99.6007 68.35 99.3878 68.2327 99.1929 67.9785C99.0218 67.7552 98.9555 67.5403 98.9939 67.3336C99.0386 67.1222 99.1818 66.9238 99.4237 66.7385L101.33 65.277C101.516 65.1344 101.673 65.0633 101.802 65.0635C101.936 65.0589 102.053 65.1218 102.153 65.252L110.187 75.734L110.606 75.4132C110.91 75.1804 111.17 75.0643 111.387 75.0652C111.6 75.0598 111.792 75.1688 111.963 75.392C112.124 75.6028 112.191 75.8123 112.164 76.0204C112.136 76.2285 112.023 76.4086 111.825 76.5607L110.03 77.9366ZM100.737 78.43C101.393 79.2857 102.206 79.7749 103.176 79.8976C104.146 80.0202 105.056 79.756 105.905 79.1049C106.761 78.449 107.248 77.6274 107.368 76.6402C107.482 75.6467 107.204 74.7129 106.534 73.8386C105.874 72.9767 105.054 72.4783 104.074 72.3432C103.101 72.2034 102.183 72.4638 101.321 73.1244C100.447 73.7946 99.9562 74.6185 99.8493 75.5962C99.7423 76.574 100.038 77.5186 100.737 78.43Z" fill="#FFF4DE"/>
<path d="M118.457 70.8225C119.485 70.1981 120.13 69.3634 120.391 68.3183C120.655 67.2624 120.481 66.2303 119.868 65.2219C119.256 64.2135 118.421 63.5828 117.362 63.3298C116.3 63.07 115.258 63.2503 114.236 63.8706C113.214 64.491 112.573 65.3324 112.314 66.3949C112.057 67.4467 112.234 68.4768 112.846 69.4852C113.463 70.5003 114.295 71.133 115.342 71.3834C116.39 71.6339 117.428 71.4469 118.457 70.8225ZM121.611 64.1637C122.479 65.5928 122.701 67.0575 122.277 68.5576C121.854 70.0578 120.864 71.2802 119.308 72.2249C117.759 73.1655 116.221 73.4777 114.695 73.1615C113.168 72.8452 111.971 71.9725 111.103 70.5434C110.236 69.1143 110.016 67.653 110.443 66.1595C110.867 64.6593 111.853 63.4389 113.403 62.4983C114.952 61.5577 116.49 61.2455 118.016 61.5618C119.549 61.874 120.748 62.7413 121.611 64.1637Z" fill="#FFF4DE"/>
<path d="M132.006 63.5728C133.096 63.0633 133.828 62.3031 134.2 61.2924C134.577 60.2713 134.515 59.2264 134.015 58.1577C133.516 57.089 132.754 56.3717 131.729 56.0057C130.701 55.6326 129.645 55.6991 128.562 56.2054C127.479 56.7116 126.751 57.4788 126.378 58.507C126.009 59.5248 126.074 60.5681 126.574 61.6367C127.077 62.7125 127.835 63.4315 128.85 63.7937C129.864 64.156 130.917 64.0823 132.006 63.5728ZM135.863 57.2941C136.571 58.8087 136.633 60.2887 136.05 61.7343C135.466 63.1799 134.35 64.2881 132.701 65.059C131.059 65.8266 129.497 65.9707 128.014 65.4913C126.53 65.0118 125.435 64.0148 124.727 62.5003C124.019 60.9858 123.958 59.5092 124.544 58.0707C125.128 56.6252 126.24 55.5186 127.882 54.751C129.524 53.9834 131.087 53.8393 132.57 54.3187C134.06 54.7949 135.158 55.7867 135.863 57.2941Z" fill="#FFF4DE"/>
<path d="M145.058 57.9127L148.74 56.6557C149.029 56.5573 149.261 56.5482 149.437 56.6285C149.618 56.6988 149.754 56.8671 149.844 57.1332C149.948 57.4364 149.953 57.6698 149.861 57.8335C149.773 57.9873 149.555 58.1236 149.208 58.2422L141.955 60.7183C141.666 60.8167 141.425 60.8247 141.232 60.742C141.039 60.6594 140.897 60.4851 140.806 60.2189C140.717 59.9601 140.726 59.7426 140.831 59.5665C140.943 59.3878 141.158 59.2442 141.476 59.1356L143.406 58.4769L140.979 51.368L140.225 51.6254C139.508 51.8703 139.041 51.9675 138.826 51.9172C138.608 51.8595 138.448 51.679 138.344 51.3759C138.256 51.1171 138.26 50.9009 138.358 50.7273C138.46 50.5437 138.659 50.4015 138.955 50.3005L141.484 49.4373C141.683 49.3691 141.849 49.358 141.98 49.404C142.109 49.4426 142.199 49.5359 142.249 49.6837L142.893 51.5691C143.295 50.4495 143.803 49.5453 144.418 48.8564C145.034 48.1676 145.781 47.6731 146.661 47.3727C147.319 47.1481 147.897 47.0994 148.394 47.2267C148.892 47.3541 149.212 47.6285 149.356 48.0499C149.45 48.3235 149.429 48.6028 149.296 48.8879C149.167 49.163 148.98 49.3423 148.736 49.4256C148.566 49.4836 148.24 49.4712 147.758 49.3882C147.28 49.2953 146.882 49.3031 146.564 49.4116C145.988 49.6085 145.448 50.0238 144.947 50.6574C144.45 51.2811 143.964 52.1691 143.491 53.3213L145.058 57.9127Z" fill="#FFF4DE"/>
<path d="M174.438 55.6851L177.232 55.3699C177.527 55.3366 177.756 55.3815 177.92 55.5046C178.083 55.6277 178.18 55.829 178.212 56.1085C178.246 56.4112 178.196 56.6331 178.063 56.7739C177.937 56.9139 177.692 57.0044 177.327 57.0456L172.192 57.6249C171.881 57.6599 171.636 57.6167 171.458 57.4954C171.287 57.3731 171.186 57.1762 171.155 56.9045C171.12 56.5939 171.193 56.3656 171.373 56.2195C171.56 56.0725 171.922 55.9688 172.458 55.9084L172.679 55.8834L171.316 43.796L171.094 43.821C170.559 43.8814 170.183 43.8609 169.967 43.7595C169.759 43.6571 169.638 43.4507 169.603 43.1402C169.572 42.8685 169.627 42.6579 169.767 42.5084C169.914 42.3502 170.143 42.2537 170.454 42.2186L172.224 42.019C172.457 41.9927 172.628 42.0127 172.738 42.079C172.855 42.1443 172.923 42.2585 172.941 42.4216L173.069 43.5511C173.535 42.9481 174.072 42.4749 174.678 42.1314C175.291 41.787 175.967 41.5732 176.704 41.49C178.265 41.314 179.629 41.6948 180.796 42.6324C181.963 43.57 182.636 44.8345 182.816 46.426C182.988 47.9553 182.633 49.269 181.751 50.367C180.868 51.4651 179.655 52.1012 178.11 52.2755C177.287 52.3683 176.514 52.31 175.79 52.1007C175.066 51.8837 174.441 51.5297 173.913 51.0388L174.438 55.6851ZM177.521 50.6083C178.6 50.4866 179.447 50.0491 180.061 49.2957C180.675 48.5346 180.921 47.6145 180.8 46.5354C180.681 45.4796 180.233 44.6496 179.457 44.0452C178.689 43.4322 177.768 43.1861 176.697 43.307C175.626 43.4278 174.787 43.8683 174.181 44.6286C173.575 45.3888 173.332 46.3007 173.452 47.3643C173.573 48.4356 174.009 49.2747 174.762 49.8817C175.522 50.4878 176.442 50.73 177.521 50.6083Z" fill="#FFF4DE"/>
<path d="M190.38 37.3706C190.376 36.5269 190.448 35.9954 190.596 35.776C190.751 35.5566 191.079 35.446 191.579 35.444C192.063 35.442 192.384 35.5345 192.541 35.7214C192.698 35.9004 192.778 36.3337 192.781 37.0212C192.783 37.6931 192.711 38.1113 192.563 38.276C192.423 38.4328 192.099 38.5122 191.591 38.5143C191.091 38.5162 190.763 38.4433 190.606 38.2955C190.457 38.1477 190.381 37.8394 190.38 37.3706ZM192.598 49.9127L196.359 49.8977C196.664 49.8964 196.887 49.962 197.028 50.0942C197.177 50.2186 197.252 50.4214 197.253 50.7027C197.254 51.023 197.185 51.2459 197.045 51.3715C196.913 51.4892 196.663 51.5488 196.296 51.5503L187.202 51.5866C186.889 51.5878 186.655 51.5184 186.498 51.3784C186.341 51.2384 186.262 51.0278 186.261 50.7466C186.26 50.4731 186.341 50.2697 186.505 50.1362C186.668 50.0027 186.914 49.9353 187.242 49.934L190.816 49.9198L190.786 42.4081L188.501 42.4172C188.181 42.4185 187.935 42.3492 187.762 42.2092C187.597 42.0615 187.515 41.8509 187.514 41.5774C187.512 41.304 187.59 41.1006 187.745 40.9671C187.901 40.8259 188.135 40.7546 188.448 40.7534L191.881 40.7397C192.092 40.7388 192.256 40.7811 192.374 40.8666C192.499 40.9521 192.562 41.069 192.563 41.2174L192.598 49.9127Z" fill="#FFF4DE"/>
<path d="M212.056 42.7102L212.061 42.6636C212.088 42.4072 212.181 42.2284 212.341 42.1273C212.501 42.0185 212.737 41.9803 213.048 42.0129C213.366 42.0462 213.574 42.1622 213.671 42.3609C213.776 42.5604 213.798 42.9515 213.737 43.5343L213.51 45.7021C213.48 45.9896 213.383 46.1995 213.22 46.3316C213.058 46.456 212.829 46.5028 212.534 46.4718C212.324 46.4499 212.148 46.3725 212.004 46.2397C211.87 46.0999 211.714 45.8282 211.536 45.4247C211.229 44.7563 210.824 44.2347 210.321 43.86C209.827 43.4783 209.234 43.2513 208.543 43.1789C207.33 43.0519 206.306 43.306 205.47 43.9411C204.641 44.577 204.168 45.4622 204.049 46.5966C203.928 47.7544 204.19 48.7401 204.835 49.554C205.489 50.3608 206.387 50.8241 207.529 50.9437C208.05 50.9982 208.55 50.9799 209.031 50.8889C209.521 50.7909 209.99 50.6201 210.44 50.3766C210.597 50.2988 210.811 50.1758 211.08 50.0076C211.628 49.6487 212.046 49.4842 212.333 49.5144C212.574 49.5396 212.76 49.6376 212.891 49.8085C213.031 49.9724 213.089 50.1748 213.063 50.4156C212.999 51.0295 212.351 51.5978 211.117 52.1207C209.893 52.6366 208.628 52.8262 207.323 52.6895C205.637 52.5129 204.287 51.8256 203.273 50.6276C202.268 49.4304 201.849 48.0237 202.018 46.4076C202.188 44.7914 202.888 43.5019 204.12 42.539C205.353 41.5684 206.809 41.171 208.487 41.3467C209.078 41.4085 209.66 41.552 210.233 41.777C210.815 41.995 211.423 42.3061 212.056 42.7102Z" fill="#FFF4DE"/>
<path d="M221.361 50.0617L220.631 53.4409C220.565 53.7463 220.447 53.9767 220.278 54.1319C220.116 54.2888 219.936 54.3458 219.737 54.303L217.618 53.8454C217.32 53.7811 217.11 53.6637 216.987 53.4932C216.864 53.3228 216.832 53.1001 216.891 52.8252C216.957 52.5198 217.09 52.3325 217.288 52.2636C217.496 52.1886 217.894 52.2146 218.482 52.3416L219.032 52.4603L221.565 40.7306L221.096 40.6292C220.439 40.4874 220.027 40.3386 219.861 40.1828C219.697 40.0194 219.648 39.7812 219.716 39.4681C219.775 39.1932 219.896 39.0035 220.078 38.899C220.268 38.7962 220.512 38.7769 220.81 38.8412L222.998 39.3137C223.204 39.3582 223.356 39.4348 223.452 39.5436C223.548 39.6523 223.581 39.7792 223.55 39.9243L221.776 48.1373L225.685 46.0801C225.456 45.9188 225.295 45.76 225.201 45.6038C225.114 45.4493 225.09 45.2842 225.128 45.1085C225.177 44.8794 225.298 44.7258 225.491 44.6475C225.684 44.5692 225.94 44.5647 226.261 44.634L229.365 45.3043C229.656 45.367 229.863 45.4797 229.988 45.6425C230.112 45.8053 230.147 46.0165 230.091 46.2762C229.992 46.7343 229.564 46.9216 228.806 46.8381C228.658 46.822 228.54 46.8125 228.453 46.8097C228.132 46.7802 227.761 46.8282 227.343 46.9536C226.926 47.0714 226.49 47.257 226.036 47.5106L224.061 48.6067L227.383 54.2635L228.368 54.4762C228.696 54.5471 228.916 54.6585 229.027 54.8103C229.146 54.9639 229.175 55.1819 229.114 55.4644C229.056 55.7317 228.931 55.9206 228.74 56.031C228.557 56.1355 228.317 56.1556 228.019 56.0913L224.915 55.421C224.579 55.3484 224.347 55.2384 224.219 55.0909C224.091 54.9433 224.054 54.7436 224.109 54.4916C224.153 54.2854 224.264 54.1254 224.44 54.0116C224.626 53.8919 224.877 53.8183 225.195 53.791L222.594 49.3451L221.361 50.0617Z" fill="#FFF4DE"/>
<path d="M239.959 45.5377L238.069 44.9091C237.35 44.67 236.916 44.464 236.768 44.2912C236.629 44.1134 236.61 43.8726 236.711 43.5686C236.8 43.3017 236.941 43.1262 237.134 43.0421C237.334 42.9604 237.578 42.9676 237.867 43.0638L241.537 44.2839C241.737 44.3505 241.879 44.443 241.963 44.5615C242.047 44.6801 242.066 44.8098 242.019 44.9506L237.852 57.483L241.344 58.644C241.626 58.7377 241.809 58.8685 241.893 59.0364C241.987 59.1994 241.989 59.4143 241.901 59.6812C241.799 59.9852 241.666 60.1755 241.501 60.2522C241.338 60.3215 241.082 60.2982 240.734 60.1824L232.527 57.4537C232.238 57.3575 232.038 57.2169 231.926 57.0316C231.822 56.8489 231.815 56.6241 231.904 56.3572C231.99 56.0977 232.132 55.9309 232.329 55.8566C232.527 55.7823 232.781 55.797 233.093 55.9005L236.173 56.9247L239.959 45.5377Z" fill="#FFF4DE"/>
<path d="M248.992 58.2107C248.581 59.2597 248.562 60.2094 248.938 61.06C249.323 61.9068 250.067 62.5822 251.168 63.0863C251.999 63.4668 253.005 63.6612 254.187 63.6696C255.372 63.6708 256.068 63.7186 256.274 63.8129C256.487 63.9105 256.634 64.0593 256.714 64.2593C256.794 64.4593 256.789 64.6587 256.698 64.8576C256.604 65.0636 256.443 65.2177 256.216 65.3199C255.988 65.4221 255.674 65.4801 255.272 65.4939C254.403 65.5167 253.546 65.4465 252.701 65.2833C251.863 65.1232 251.072 64.8725 250.326 64.531C248.706 63.7895 247.623 62.7308 247.076 61.3547C246.532 59.9715 246.613 58.5092 247.318 56.9677C248.037 55.3978 249.134 54.3621 250.61 53.8605C252.085 53.3588 253.651 53.4869 255.306 54.2446C256.805 54.9308 257.84 55.9545 258.411 57.3158C258.982 58.6771 258.971 60.0042 258.38 61.297C258.197 61.6948 257.99 61.9221 257.758 61.9791C257.533 62.0392 257.051 61.9002 256.312 61.562L256.152 61.4888L248.992 58.2107ZM249.684 56.8393L256.621 60.0149C256.901 59.1208 256.857 58.2799 256.487 57.492C256.128 56.7003 255.511 56.1044 254.637 55.7044C253.693 55.2719 252.783 55.1563 251.909 55.3576C251.035 55.5589 250.294 56.0528 249.684 56.8393Z" fill="#FFF4DE"/>
<path d="M266.084 70.7143C267.03 71.2785 267.977 71.438 268.923 71.1928C269.87 70.9477 270.627 70.3487 271.196 69.3959C271.752 68.4632 271.908 67.5148 271.664 66.5508C271.427 65.5908 270.845 64.8347 269.919 64.2826C268.987 63.7264 268.042 63.5723 267.084 63.8201C266.138 64.0652 265.384 64.6575 264.824 65.5969C264.264 66.5364 264.099 67.4841 264.33 68.4401C264.567 69.4001 265.152 70.1582 266.084 70.7143ZM266.791 62.39C267.447 62.1443 268.131 62.0654 268.842 62.1532C269.554 62.241 270.265 62.4969 270.977 62.9211C272.325 63.7253 273.177 64.8517 273.532 66.3005C273.891 67.7425 273.671 69.1345 272.871 70.4765C272.082 71.7985 270.951 72.643 269.477 73.0101C268.01 73.3813 266.612 73.1708 265.283 72.3786C264.578 71.9585 264.038 71.4682 263.663 70.9079C263.288 70.3475 263.082 69.7157 263.047 69.0124L262.567 69.8176C262.459 69.9988 262.347 70.1096 262.232 70.1501C262.124 70.1946 261.996 70.1729 261.848 70.0849L260.006 68.9866C259.744 68.8306 259.586 68.6541 259.53 68.4573C259.475 68.2605 259.519 68.0413 259.663 67.7998C259.823 67.5314 260.008 67.3962 260.219 67.3943C260.433 67.3856 260.768 67.5174 261.225 67.7894L261.436 67.9155L267.582 57.6086L267.39 57.4945C266.934 57.2225 266.654 56.9827 266.55 56.7754C266.447 56.568 266.475 56.3301 266.635 56.0617C266.779 55.8201 266.954 55.6789 267.16 55.6382C267.366 55.5974 267.6 55.655 267.862 55.8111L269.392 56.7233C269.593 56.8433 269.718 56.9629 269.765 57.082C269.819 57.2051 269.804 57.3372 269.72 57.4781L266.791 62.39Z" fill="#FFF4DE"/>
<path d="M282.476 77.7772C282.218 77.4063 281.945 77.0736 281.658 76.7791C281.382 76.4831 281.085 76.2152 280.767 75.9753C279.807 75.251 278.926 74.8418 278.127 74.7476C277.327 74.6534 276.72 74.8808 276.306 75.4298C275.986 75.854 275.894 76.3327 276.031 76.8658C276.173 77.4037 276.513 77.8749 277.049 78.2793C277.841 78.8766 278.729 79.2234 279.714 79.3196C280.709 79.4142 281.376 79.237 281.714 78.7878L282.476 77.7772ZM280.329 80.7813C279.469 80.8572 278.645 80.7888 277.857 80.5759C277.074 80.3677 276.365 80.0237 275.729 79.544C274.799 78.8432 274.243 78.0176 274.059 77.0672C273.882 76.1214 274.106 75.2337 274.731 74.404C275.474 73.4184 276.428 72.9387 277.592 72.965C278.762 72.9961 280.034 73.5289 281.406 74.5636C281.768 74.8364 282.114 75.1365 282.444 75.4639C282.779 75.785 283.103 76.1413 283.414 76.5327L283.464 76.4672C284.005 75.7498 284.233 75.0902 284.148 74.4884C284.064 73.8866 283.66 73.313 282.936 72.7674C282.45 72.4006 281.808 72.1224 281.012 71.9329C280.215 71.7434 279.72 71.5758 279.527 71.43C279.346 71.2936 279.25 71.109 279.24 70.8762C279.234 70.6371 279.319 70.4021 279.493 70.1713C279.77 69.8033 280.348 69.75 281.227 70.0116C282.113 70.2779 283.092 70.8155 284.165 71.6244C285.263 72.4521 285.881 73.3584 286.019 74.3431C286.162 75.3216 285.822 76.3567 284.999 77.4484L281.803 81.6873L282.262 82.033C282.704 82.3669 282.966 82.6371 283.045 82.8435C283.124 83.05 283.072 83.2748 282.888 83.5181C282.719 83.7427 282.53 83.8641 282.32 83.8823C282.111 83.9006 281.881 83.8156 281.632 83.6275L280.163 82.5199C279.988 82.3882 279.884 82.227 279.852 82.0363C279.82 81.8456 279.86 81.6363 279.973 81.4085L280.329 80.7813Z" fill="#FFF4DE"/>
<path d="M297.058 79.1848L295.607 77.8206C295.054 77.3016 294.747 76.9326 294.685 76.7134C294.634 76.4939 294.718 76.2675 294.938 76.0341C295.13 75.8291 295.332 75.7289 295.542 75.7334C295.758 75.7433 295.977 75.8525 296.199 76.0612L299.017 78.7094C299.171 78.8539 299.261 78.9975 299.287 79.1404C299.314 79.2833 299.276 79.4088 299.175 79.517L290.13 89.1414L292.812 91.6612C293.028 91.8645 293.139 92.06 293.145 92.2478C293.162 92.4352 293.074 92.6313 292.882 92.8363C292.662 93.0697 292.461 93.1865 292.279 93.1867C292.102 93.1811 291.88 93.0526 291.612 92.8012L285.31 86.8787C285.088 86.6701 284.965 86.4583 284.942 86.2435C284.924 86.034 285.012 85.8268 285.204 85.6219C285.392 85.4226 285.59 85.3307 285.801 85.3463C286.011 85.3619 286.236 85.482 286.475 85.7067L288.841 87.9296L297.058 79.1848Z" fill="#FFF4DE"/>
<path d="M308.653 91.1973L307.357 89.6841C306.864 89.1085 306.599 88.7084 306.561 88.4838C306.534 88.2601 306.642 88.044 306.885 87.8357C307.099 87.6528 307.31 87.5749 307.518 87.6021C307.732 87.6353 307.938 87.7676 308.136 87.999L310.651 90.9364C310.788 91.0966 310.862 91.2492 310.873 91.3941C310.884 91.539 310.833 91.6597 310.721 91.7563L300.689 100.346L303.082 103.141C303.275 103.367 303.365 103.573 303.35 103.761C303.347 103.949 303.238 104.134 303.024 104.317C302.781 104.525 302.569 104.62 302.387 104.6C302.212 104.576 302.005 104.424 301.766 104.145L296.141 97.5758C295.943 97.3444 295.844 97.1206 295.844 96.9045C295.849 96.6944 295.958 96.4979 296.172 96.3149C296.38 96.1371 296.587 96.0673 296.795 96.1055C297.003 96.1437 297.213 96.2875 297.427 96.5367L299.538 99.0023L308.653 91.1973Z" fill="#FFF4DE"/>
<path d="M322.111 126.296C322.033 125.851 321.925 125.434 321.788 125.046C321.662 124.662 321.505 124.294 321.317 123.943C320.749 122.882 320.122 122.141 319.436 121.72C318.75 121.299 318.103 121.25 317.497 121.575C317.029 121.825 316.745 122.221 316.644 122.762C316.548 123.31 316.658 123.88 316.975 124.473C317.443 125.347 318.104 126.035 318.957 126.536C319.82 127.039 320.5 127.159 320.996 126.893L322.111 126.296ZM318.901 128.12C318.089 127.829 317.37 127.42 316.744 126.896C316.121 126.379 315.622 125.769 315.246 125.066C314.696 124.04 314.538 123.057 314.77 122.117C315.007 121.184 315.583 120.473 316.499 119.982C317.587 119.4 318.654 119.365 319.699 119.878C320.748 120.397 321.678 121.415 322.49 122.93C322.703 123.329 322.892 123.747 323.054 124.183C323.223 124.615 323.367 125.074 323.485 125.56L323.558 125.521C324.35 125.097 324.834 124.595 325.01 124.013C325.186 123.431 325.06 122.741 324.633 121.942C324.345 121.405 323.88 120.883 323.236 120.377C322.593 119.87 322.214 119.51 322.1 119.297C321.993 119.097 321.984 118.889 322.072 118.674C322.167 118.454 322.343 118.277 322.597 118.14C323.004 117.923 323.551 118.117 324.239 118.724C324.931 119.337 325.593 120.236 326.228 121.421C326.876 122.633 327.057 123.715 326.769 124.667C326.488 125.615 325.744 126.411 324.539 127.057L319.859 129.562L320.13 130.068C320.392 130.557 320.515 130.912 320.5 131.133C320.485 131.353 320.344 131.535 320.075 131.679C319.827 131.812 319.604 131.843 319.406 131.771C319.209 131.7 319.036 131.526 318.889 131.251L318.02 129.629C317.917 129.436 317.891 129.246 317.942 129.059C317.992 128.873 318.117 128.7 318.315 128.541L318.901 128.12Z" fill="#FFF4DE"/>
<path d="M322.288 134.867L329.255 132.059L329.172 131.852C328.974 131.359 328.894 130.995 328.934 130.76C328.977 130.532 329.144 130.36 329.433 130.243C329.701 130.135 329.924 130.134 330.101 130.239C330.286 130.342 330.447 130.563 330.584 130.904L330.79 131.415L331.211 132.458C331.289 132.654 331.311 132.822 331.275 132.963C331.239 133.104 331.152 133.202 331.015 133.257L330.276 133.555C330.982 133.886 331.554 134.261 331.993 134.682C332.443 135.108 332.78 135.599 333.005 136.157C333.446 137.251 333.451 138.247 333.021 139.145C332.594 140.05 331.779 140.745 330.577 141.23L325.653 143.214L325.859 143.725C326.005 144.087 326.048 144.373 325.989 144.582C325.938 144.788 325.782 144.944 325.521 145.049C325.238 145.163 325 145.158 324.807 145.033C324.624 144.914 324.445 144.636 324.269 144.201L323.301 141.799C323.114 141.336 323.049 141.017 323.105 140.842C323.161 140.668 323.341 140.52 323.646 140.397C323.928 140.283 324.155 140.28 324.325 140.389C324.495 140.497 324.664 140.761 324.834 141.182L324.987 141.562L329.509 139.74C330.356 139.398 330.924 138.946 331.211 138.384C331.505 137.819 331.505 137.17 331.21 136.438C330.912 135.699 330.399 135.148 329.672 134.784C328.944 134.42 328.21 134.388 327.471 134.685L322.95 136.508L323.103 136.888C323.278 137.323 323.342 137.639 323.295 137.834C323.248 138.03 323.083 138.185 322.8 138.299C322.496 138.422 322.263 138.44 322.102 138.353C321.94 138.267 321.758 137.97 321.553 137.463L320.756 135.484L320.519 134.898C320.399 134.6 320.371 134.351 320.432 134.149C320.504 133.952 320.674 133.799 320.943 133.691C321.232 133.574 321.462 133.578 321.63 133.704C321.809 133.834 321.998 134.146 322.196 134.638L322.288 134.867Z" fill="#FFF4DE"/>
<path d="M328.471 158.081C328.427 157.923 328.433 157.8 328.489 157.711C328.554 157.628 328.7 157.554 328.926 157.49L329.851 157.23C329.159 156.937 328.56 156.498 328.054 155.91C327.555 155.32 327.194 154.63 326.971 153.841C326.571 152.42 326.738 151.086 327.475 149.839C328.22 148.598 329.345 147.765 330.849 147.341C332.406 146.903 333.843 147.049 335.162 147.781C336.488 148.511 337.366 149.64 337.796 151.166C338.015 151.941 338.072 152.675 337.967 153.37C337.87 154.063 337.618 154.707 337.209 155.301L341.529 154.083L341.36 153.485C341.176 152.831 341.112 152.39 341.17 152.163C341.237 151.941 341.425 151.787 341.733 151.7C342.004 151.623 342.228 151.641 342.406 151.754C342.586 151.873 342.717 152.08 342.8 152.373L343.452 154.685C343.515 154.911 343.523 155.083 343.476 155.202C343.43 155.329 343.328 155.414 343.171 155.459L330.459 159.043L330.602 159.55C330.706 159.919 330.717 160.204 330.636 160.405C330.563 160.604 330.39 160.742 330.12 160.819C329.864 160.891 329.645 160.875 329.462 160.773C329.278 160.67 329.153 160.499 329.085 160.258L328.471 158.081ZM331.453 149.266C330.415 149.558 329.66 150.132 329.187 150.988C328.714 151.844 328.622 152.787 328.913 153.817C329.205 154.855 329.788 155.612 330.661 156.088C331.541 156.562 332.512 156.65 333.572 156.351C334.617 156.056 335.384 155.479 335.872 154.619C336.362 153.766 336.46 152.817 336.165 151.772C335.866 150.712 335.282 149.951 334.414 149.49C333.545 149.029 332.558 148.954 331.453 149.266Z" fill="#FFF4DE"/>
<path d="M332.89 178.83L334.973 178.709C335.316 178.689 335.565 178.737 335.721 178.853C335.876 178.977 335.963 179.183 335.98 179.472C335.998 179.792 335.795 180.058 335.369 180.27C335.111 180.411 334.919 180.535 334.792 180.644C334.39 180.996 334.079 181.5 333.859 182.154C333.646 182.808 333.562 183.521 333.607 184.294C333.656 185.12 333.862 185.773 334.226 186.253C334.591 186.733 335.046 186.957 335.592 186.925C336.146 186.893 336.528 186.667 336.738 186.248C336.949 185.836 337.026 185.143 336.969 184.168L336.932 183.525C336.839 181.934 337.045 180.705 337.55 179.838C338.056 178.971 338.835 178.507 339.888 178.446C340.917 178.386 341.74 178.745 342.357 179.523C342.974 180.309 343.325 181.439 343.411 182.913C343.446 183.513 343.396 184.131 343.26 184.765C343.133 185.398 343.07 185.73 343.072 185.762C343.077 185.847 343.161 186.007 343.323 186.24C343.493 186.473 343.585 186.706 343.598 186.94C343.614 187.205 343.528 187.406 343.34 187.542C343.153 187.686 342.864 187.769 342.474 187.792L341.105 187.872C340.692 187.896 340.388 187.851 340.194 187.737C340.007 187.623 339.906 187.429 339.89 187.156C339.876 186.922 340.058 186.622 340.436 186.255C340.695 185.998 340.89 185.787 341.021 185.623C341.38 185.187 341.627 184.731 341.763 184.253C341.908 183.775 341.962 183.22 341.925 182.589C341.882 181.855 341.684 181.272 341.33 180.839C340.984 180.413 340.562 180.215 340.063 180.244C339.571 180.272 339.234 180.523 339.05 180.995C338.866 181.468 338.803 182.465 338.86 183.988C338.916 185.612 338.7 186.814 338.213 187.594C337.734 188.373 336.945 188.795 335.845 188.859C334.792 188.92 333.926 188.556 333.246 187.766C332.566 186.976 332.185 185.879 332.104 184.475C332.078 184.03 332.092 183.533 332.146 182.982C332.192 182.431 332.289 181.737 332.435 180.899C332.24 180.636 332.094 180.41 331.997 180.22C331.892 180.031 331.836 179.87 331.828 179.737C331.812 179.464 331.893 179.248 332.072 179.089C332.259 178.937 332.531 178.851 332.89 178.83Z" fill="#FFF4DE"/>
<path d="M333.751 199.261C333.691 200.463 334.02 201.465 334.738 202.267C335.464 203.078 336.416 203.513 337.594 203.572C338.773 203.632 339.763 203.294 340.567 202.56C341.378 201.826 341.814 200.863 341.874 199.669C341.934 198.475 341.597 197.472 340.863 196.661C340.137 195.858 339.185 195.427 338.006 195.368C336.82 195.308 335.83 195.642 335.034 196.369C334.239 197.095 333.811 198.059 333.751 199.261ZM337.492 205.609C335.822 205.525 334.485 204.887 333.481 203.694C332.478 202.502 332.021 200.997 332.112 199.179C332.203 197.368 332.808 195.92 333.926 194.834C335.045 193.749 336.439 193.248 338.109 193.331C339.778 193.415 341.111 194.053 342.108 195.245C343.111 196.438 343.568 197.939 343.477 199.749C343.386 201.56 342.782 203.008 341.663 204.094C340.544 205.187 339.154 205.692 337.492 205.609Z" fill="#FFF4DE"/>
<path d="M340.139 220.181L340.185 220.189C340.44 220.23 340.613 220.332 340.705 220.497C340.805 220.664 340.831 220.901 340.781 221.21C340.731 221.526 340.604 221.727 340.4 221.813C340.195 221.907 339.804 221.908 339.225 221.815L337.073 221.471C336.787 221.426 336.583 221.318 336.46 221.148C336.344 220.979 336.31 220.748 336.357 220.455C336.39 220.247 336.477 220.075 336.617 219.939C336.764 219.812 337.044 219.671 337.456 219.515C338.141 219.245 338.683 218.869 339.085 218.387C339.493 217.914 339.751 217.335 339.861 216.648C340.053 215.444 339.855 214.408 339.266 213.539C338.676 212.677 337.818 212.156 336.692 211.976C335.542 211.792 334.544 212 333.696 212.601C332.855 213.21 332.344 214.082 332.163 215.216C332.08 215.733 332.071 216.233 332.136 216.719C332.207 217.213 332.352 217.691 332.571 218.153C332.64 218.314 332.752 218.534 332.905 218.811C333.234 219.378 333.375 219.804 333.33 220.09C333.291 220.329 333.183 220.51 333.006 220.631C332.834 220.762 332.629 220.809 332.39 220.77C331.781 220.673 331.248 219.995 330.793 218.735C330.344 217.484 330.223 216.211 330.43 214.915C330.698 213.241 331.457 211.93 332.709 210.983C333.958 210.044 335.386 209.702 336.99 209.959C338.595 210.215 339.845 210.985 340.739 212.267C341.642 213.55 341.96 215.025 341.694 216.692C341.6 217.278 341.425 217.851 341.169 218.412C340.92 218.981 340.577 219.571 340.139 220.181Z" fill="#FFF4DE"/>
<path d="M341.6 231.898C342.414 232.12 342.907 232.332 343.079 232.533C343.249 232.741 343.268 233.086 343.136 233.569C343.008 234.036 342.833 234.32 342.611 234.421C342.396 234.525 341.958 234.486 341.294 234.305C340.646 234.127 340.263 233.946 340.144 233.759C340.03 233.582 340.04 233.249 340.174 232.759C340.306 232.277 340.464 231.98 340.648 231.868C340.831 231.764 341.148 231.774 341.6 231.898ZM328.922 230.679L327.93 234.308C327.85 234.602 327.727 234.799 327.562 234.9C327.402 235.01 327.186 235.028 326.915 234.954C326.606 234.869 326.41 234.743 326.326 234.574C326.248 234.415 326.258 234.159 326.355 233.805L328.752 225.033C328.835 224.731 328.964 224.524 329.141 224.41C329.318 224.296 329.542 224.277 329.814 224.351C330.077 224.423 330.252 224.556 330.336 224.749C330.421 224.942 330.42 225.197 330.334 225.514L329.392 228.961L336.637 230.942L337.24 228.738C337.324 228.429 337.457 228.21 337.638 228.081C337.825 227.962 338.05 227.939 338.313 228.011C338.577 228.083 338.752 228.212 338.839 228.397C338.934 228.585 338.94 228.83 338.857 229.131L337.952 232.443C337.896 232.647 337.812 232.794 337.698 232.884C337.582 232.982 337.453 233.011 337.309 232.972L328.922 230.679Z" fill="#FFF4DE"/>
<path d="M326.387 248.683C326.675 248.334 326.923 247.983 327.13 247.627C327.341 247.282 327.52 246.925 327.666 246.554C328.107 245.434 328.266 244.477 328.142 243.681C328.019 242.885 327.638 242.361 326.998 242.109C326.504 241.915 326.018 241.954 325.541 242.228C325.061 242.509 324.697 242.962 324.451 243.588C324.088 244.511 323.991 245.459 324.162 246.433C324.337 247.417 324.686 248.013 325.209 248.219L326.387 248.683ZM322.918 247.417C322.615 246.609 322.46 245.797 322.454 244.98C322.446 244.171 322.587 243.395 322.879 242.654C323.306 241.571 323.953 240.813 324.819 240.382C325.683 239.958 326.598 239.937 327.565 240.318C328.714 240.77 329.431 241.56 329.717 242.689C330 243.825 329.827 245.192 329.197 246.792C329.031 247.213 328.834 247.627 328.607 248.033C328.388 248.442 328.131 248.849 327.837 249.254L327.913 249.284C328.749 249.613 329.446 249.656 330.003 249.414C330.56 249.172 331.005 248.629 331.337 247.786C331.56 247.219 331.657 246.526 331.626 245.708C331.596 244.89 331.625 244.368 331.714 244.143C331.797 243.932 331.949 243.791 332.171 243.718C332.4 243.649 332.648 243.667 332.917 243.773C333.346 243.942 333.552 244.485 333.535 245.402C333.516 246.326 333.26 247.413 332.767 248.664C332.263 249.943 331.556 250.781 330.644 251.178C329.739 251.577 328.651 251.526 327.379 251.025L322.439 249.08L322.229 249.614C322.026 250.13 321.835 250.454 321.657 250.586C321.48 250.717 321.249 250.727 320.966 250.616C320.704 250.513 320.536 250.363 320.463 250.166C320.389 249.969 320.409 249.725 320.524 249.434L321.198 247.722C321.278 247.519 321.406 247.376 321.581 247.294C321.756 247.211 321.969 247.194 322.218 247.242L322.918 247.417Z" fill="#FFF4DE"/>
<path d="M328.931 263.115L329.857 261.352C330.21 260.681 330.483 260.286 330.678 260.168C330.875 260.06 331.116 260.08 331.4 260.229C331.649 260.36 331.799 260.527 331.851 260.731C331.899 260.941 331.853 261.182 331.711 261.451L329.913 264.875C329.815 265.062 329.701 265.187 329.57 265.251C329.44 265.315 329.309 265.312 329.177 265.243L317.484 259.104L315.774 262.362C315.636 262.624 315.477 262.784 315.298 262.84C315.121 262.906 314.909 262.874 314.66 262.743C314.376 262.594 314.21 262.432 314.161 262.256C314.119 262.084 314.183 261.835 314.354 261.51L318.375 253.853C318.516 253.584 318.687 253.409 318.888 253.329C319.085 253.256 319.308 253.285 319.557 253.415C319.8 253.543 319.941 253.71 319.983 253.917C320.024 254.124 319.968 254.372 319.816 254.663L318.307 257.537L328.931 263.115Z" fill="#FFF4DE"/>
<path d="M304.351 292.673L304.387 292.703C304.584 292.87 304.68 293.047 304.674 293.236C304.674 293.43 304.573 293.647 304.372 293.886C304.165 294.131 303.953 294.238 303.734 294.206C303.51 294.181 303.174 293.98 302.726 293.602L301.059 292.198C300.838 292.011 300.718 291.814 300.7 291.605C300.689 291.4 300.778 291.185 300.97 290.958C301.105 290.797 301.269 290.694 301.459 290.65C301.65 290.617 301.963 290.64 302.396 290.72C303.122 290.84 303.781 290.798 304.373 290.592C304.966 290.397 305.487 290.034 305.935 289.502C306.72 288.57 307.085 287.58 307.028 286.531C306.967 285.489 306.5 284.6 305.628 283.865C304.738 283.115 303.775 282.779 302.739 282.856C301.704 282.944 300.817 283.428 300.077 284.306C299.74 284.706 299.474 285.131 299.279 285.58C299.086 286.04 298.963 286.525 298.913 287.034C298.889 287.207 298.871 287.453 298.859 287.77C298.849 288.425 298.75 288.863 298.564 289.084C298.408 289.269 298.222 289.368 298.007 289.381C297.793 289.405 297.593 289.339 297.408 289.183C296.936 288.785 296.83 287.93 297.089 286.616C297.349 285.313 297.902 284.159 298.748 283.155C299.84 281.859 301.166 281.127 302.727 280.961C304.282 280.8 305.681 281.243 306.924 282.291C308.166 283.338 308.841 284.641 308.946 286.201C309.058 287.766 308.57 289.194 307.483 290.485C307.1 290.939 306.655 291.34 306.147 291.688C305.64 292.048 305.041 292.376 304.351 292.673Z" fill="#FFF4DE"/>
<path d="M299.112 303.096L300.553 301.72C301.101 301.197 301.486 300.91 301.708 300.86C301.93 300.821 302.152 300.918 302.373 301.149C302.567 301.353 302.657 301.559 302.641 301.769C302.619 301.984 302.498 302.196 302.278 302.407L299.481 305.077C299.328 305.223 299.18 305.305 299.036 305.324C298.892 305.343 298.768 305.299 298.666 305.191L289.545 295.639L286.884 298.181C286.669 298.386 286.468 298.486 286.28 298.482C286.092 298.488 285.901 298.39 285.707 298.186C285.486 297.955 285.38 297.748 285.39 297.566C285.405 297.389 285.545 297.174 285.811 296.921L292.066 290.948C292.286 290.738 292.504 290.627 292.72 290.615C292.93 290.609 293.132 290.708 293.326 290.911C293.515 291.109 293.596 291.312 293.569 291.522C293.542 291.731 293.41 291.949 293.173 292.176L290.825 294.417L299.112 303.096Z" fill="#FFF4DE"/>
<path d="M282.508 305.317C281.91 304.536 281.308 304.091 280.704 303.984C280.099 303.876 279.441 304.095 278.728 304.642C278.052 305.16 277.639 305.816 277.49 306.61C277.334 307.408 277.503 308.13 277.997 308.775L280.942 312.616L282.216 311.639C282.458 311.454 282.673 311.368 282.86 311.382C283.046 311.406 283.223 311.527 283.389 311.744C283.57 311.98 283.644 312.199 283.612 312.401C283.579 312.602 283.433 312.803 283.172 313.003L281.191 314.521C280.956 314.702 280.751 314.775 280.577 314.741C280.402 314.718 280.162 314.508 279.858 314.111L274.968 307.731L274.54 308.059C274.236 308.291 273.981 308.408 273.775 308.409C273.562 308.414 273.368 308.302 273.192 308.073C273.021 307.849 272.958 307.632 273.003 307.421C273.041 307.214 273.181 307.018 273.423 306.833L274.837 305.749C275.004 305.621 275.16 305.555 275.306 305.552C275.451 305.549 275.569 305.606 275.659 305.724L276.144 306.357C276.387 305.441 276.657 304.733 276.951 304.232C277.245 303.741 277.627 303.315 278.098 302.954C279.121 302.17 280.097 301.85 281.025 301.995C281.952 302.151 282.836 302.778 283.677 303.875L286.885 308.061L287.08 307.911C287.502 307.588 287.828 307.416 288.059 307.397C288.29 307.377 288.501 307.491 288.691 307.739C288.857 307.956 288.922 308.163 288.885 308.358C288.847 308.565 288.7 308.766 288.446 308.961L287.042 310.037C286.825 310.203 286.643 310.274 286.495 310.249C286.342 310.229 286.151 310.07 285.923 309.772L282.508 305.317Z" fill="#FFF4DE"/>
<path d="M264.636 314.381C263.694 314.953 263.11 315.714 262.883 316.665C262.657 317.616 262.831 318.566 263.407 319.514C263.97 320.443 264.735 321.025 265.701 321.261C266.66 321.501 267.601 321.342 268.522 320.782C269.45 320.218 270.029 319.456 270.259 318.494C270.486 317.543 270.315 316.6 269.748 315.665C269.18 314.73 268.42 314.14 267.467 313.896C266.508 313.656 265.564 313.818 264.636 314.381ZM271.66 318.905C271.57 319.599 271.319 320.24 270.908 320.828C270.497 321.415 269.938 321.924 269.23 322.354C267.888 323.169 266.493 323.394 265.047 323.029C263.605 322.671 262.478 321.824 261.667 320.488C260.869 319.173 260.652 317.778 261.018 316.303C261.378 314.833 262.219 313.696 263.541 312.894C264.242 312.468 264.928 312.22 265.599 312.151C266.27 312.082 266.924 312.197 267.562 312.495L267.076 311.693C266.966 311.513 266.921 311.363 266.939 311.242C266.95 311.125 267.03 311.022 267.176 310.933L269.01 309.82C269.27 309.662 269.5 309.605 269.7 309.648C269.9 309.691 270.073 309.833 270.219 310.073C270.381 310.34 270.414 310.567 270.317 310.754C270.224 310.947 269.951 311.182 269.496 311.458L269.286 311.585L275.514 321.843L275.704 321.727C276.158 321.452 276.501 321.316 276.733 321.322C276.965 321.327 277.162 321.464 277.324 321.731C277.47 321.971 277.513 322.192 277.452 322.393C277.391 322.595 277.231 322.774 276.971 322.933L275.448 323.857C275.248 323.979 275.084 324.032 274.956 324.018C274.822 324.008 274.713 323.933 274.628 323.793L271.66 318.905Z" fill="#FFF4DE"/>
<path d="M236.663 327.119C235.62 327.475 234.886 328.093 234.46 328.973C234.034 329.853 234 330.818 234.359 331.868C234.709 332.896 235.331 333.629 236.224 334.067C237.109 334.508 238.062 334.554 239.082 334.206C240.11 333.855 240.839 333.235 241.27 332.344C241.696 331.464 241.732 330.507 241.379 329.472C241.025 328.437 240.41 327.697 239.532 327.254C238.647 326.813 237.69 326.768 236.663 327.119ZM242.55 333.047C242.312 333.706 241.93 334.278 241.402 334.763C240.874 335.249 240.219 335.626 239.435 335.893C237.949 336.4 236.539 336.321 235.205 335.653C233.873 334.993 232.955 333.924 232.45 332.445C231.953 330.989 232.042 329.58 232.716 328.219C233.383 326.86 234.449 325.931 235.913 325.431C236.689 325.166 237.412 325.072 238.083 325.148C238.753 325.225 239.367 325.478 239.926 325.906L239.623 325.019C239.555 324.819 239.543 324.662 239.586 324.548C239.623 324.437 239.722 324.353 239.885 324.298L241.914 323.605C242.203 323.507 242.44 323.5 242.626 323.585C242.812 323.67 242.95 323.846 243.041 324.112C243.142 324.408 243.125 324.636 242.99 324.798C242.858 324.967 242.541 325.137 242.038 325.309L241.805 325.388L245.682 336.745L245.893 336.673C246.395 336.501 246.759 336.443 246.985 336.498C247.21 336.553 247.373 336.729 247.474 337.025C247.565 337.291 247.559 337.516 247.457 337.699C247.354 337.883 247.159 338.024 246.87 338.122L245.185 338.698C244.963 338.773 244.791 338.791 244.67 338.75C244.541 338.711 244.45 338.614 244.397 338.459L242.55 333.047Z" fill="#FFF4DE"/>
<path d="M220.67 335.044C221.12 335.087 221.55 335.095 221.96 335.067C222.364 335.048 222.761 334.995 223.15 334.908C224.324 334.645 225.205 334.239 225.795 333.69C226.384 333.142 226.604 332.532 226.453 331.861C226.337 331.343 226.032 330.963 225.537 330.722C225.035 330.482 224.456 330.436 223.801 330.583C222.833 330.8 221.993 331.252 221.283 331.94C220.567 332.637 220.27 333.26 220.393 333.809L220.67 335.044ZM219.771 331.463C220.269 330.758 220.855 330.175 221.528 329.711C222.193 329.25 222.914 328.932 223.692 328.758C224.827 328.503 225.817 328.613 226.66 329.089C227.496 329.566 228.027 330.311 228.255 331.325C228.525 332.53 228.273 333.567 227.5 334.437C226.718 335.309 225.489 335.933 223.812 336.309C223.37 336.408 222.917 336.478 222.454 336.518C221.992 336.565 221.511 336.581 221.011 336.565L221.029 336.645C221.226 337.522 221.581 338.123 222.094 338.448C222.607 338.773 223.306 338.836 224.19 338.638C224.785 338.505 225.412 338.196 226.072 337.712C226.732 337.227 227.18 336.959 227.417 336.906C227.638 336.856 227.84 336.903 228.025 337.045C228.211 337.196 228.335 337.412 228.398 337.694C228.499 338.144 228.165 338.619 227.397 339.12C226.621 339.622 225.577 340.02 224.266 340.314C222.925 340.615 221.834 340.5 220.994 339.968C220.155 339.443 219.587 338.514 219.287 337.18L218.126 332L217.565 332.125C217.024 332.247 216.649 332.271 216.441 332.198C216.232 332.124 216.094 331.939 216.028 331.642C215.966 331.367 215.996 331.144 216.118 330.973C216.24 330.802 216.453 330.682 216.758 330.613L218.553 330.211C218.766 330.163 218.956 330.188 219.123 330.287C219.289 330.386 219.422 330.552 219.523 330.786L219.771 331.463Z" fill="#FFF4DE"/>
<path d="M213.011 332.034L213.245 334.107C213.283 334.449 213.249 334.7 213.141 334.862C213.026 335.024 212.825 335.122 212.537 335.154C212.219 335.19 211.942 335.001 211.707 334.587C211.553 334.337 211.418 334.152 211.302 334.032C210.929 333.649 210.409 333.366 209.744 333.181C209.079 333.005 208.363 332.96 207.594 333.046C206.771 333.139 206.13 333.381 205.671 333.77C205.212 334.16 205.013 334.627 205.074 335.17C205.136 335.722 205.382 336.091 205.812 336.278C206.235 336.466 206.931 336.506 207.901 336.396L208.542 336.324C210.125 336.145 211.364 336.285 212.257 336.742C213.149 337.2 213.655 337.953 213.773 339.001C213.889 340.025 213.575 340.867 212.831 341.525C212.08 342.183 210.971 342.595 209.504 342.761C208.906 342.828 208.287 342.812 207.647 342.711C207.007 342.618 206.672 342.573 206.641 342.577C206.555 342.586 206.401 342.678 206.177 342.853C205.953 343.035 205.725 343.14 205.493 343.166C205.229 343.196 205.024 343.121 204.877 342.941C204.724 342.761 204.625 342.478 204.581 342.09L204.427 340.727C204.381 340.316 204.409 340.01 204.512 339.809C204.617 339.617 204.804 339.505 205.076 339.475C205.309 339.448 205.619 339.614 206.005 339.971C206.276 340.216 206.497 340.399 206.668 340.521C207.123 340.855 207.592 341.078 208.076 341.188C208.561 341.306 209.118 341.33 209.747 341.259C210.477 341.177 211.048 340.947 211.462 340.57C211.868 340.202 212.044 339.77 211.988 339.273C211.933 338.784 211.664 338.46 211.182 338.302C210.701 338.144 209.701 338.135 208.184 338.275C206.565 338.418 205.353 338.268 204.548 337.824C203.744 337.388 203.28 336.623 203.157 335.528C203.039 334.48 203.356 333.595 204.108 332.874C204.86 332.152 205.934 331.712 207.332 331.555C207.774 331.505 208.272 331.492 208.825 331.516C209.377 331.532 210.076 331.591 210.92 331.692C211.172 331.483 211.39 331.325 211.574 331.218C211.758 331.103 211.916 331.038 212.048 331.023C212.319 330.992 212.54 331.062 212.708 331.231C212.87 331.41 212.971 331.677 213.011 332.034Z" fill="#FFF4DE"/>
<path d="M196.639 337.539C196.572 336.414 196.19 335.544 195.492 334.93C194.786 334.323 193.828 334.023 192.617 334.027C191.703 334.031 190.708 334.277 189.632 334.766C188.556 335.262 187.904 335.511 187.678 335.512C187.443 335.513 187.248 335.439 187.091 335.292C186.934 335.144 186.855 334.961 186.854 334.742C186.853 334.515 186.935 334.308 187.098 334.12C187.261 333.932 187.522 333.747 187.881 333.566C188.661 333.18 189.468 332.884 190.303 332.677C191.131 332.471 191.954 332.366 192.775 332.363C194.556 332.356 195.984 332.862 197.058 333.881C198.132 334.908 198.673 336.269 198.68 337.964C198.687 339.691 198.126 341.091 196.997 342.166C195.869 343.241 194.394 343.782 192.574 343.789C190.926 343.796 189.557 343.301 188.467 342.306C187.377 341.31 186.829 340.101 186.823 338.679C186.821 338.242 186.914 337.949 187.101 337.799C187.28 337.65 187.776 337.574 188.588 337.571L188.764 337.57L196.639 337.539ZM196.587 339.074L188.958 339.104C189.079 340.034 189.472 340.778 190.139 341.338C190.797 341.906 191.607 342.188 192.568 342.184C193.607 342.18 194.481 341.903 195.189 341.353C195.898 340.803 196.364 340.044 196.587 339.074Z" fill="#FFF4DE"/>
<path d="M173.167 331.443C173.33 331.46 173.443 331.511 173.504 331.596C173.558 331.688 173.572 331.851 173.548 332.084L173.447 333.04C173.975 332.506 174.605 332.112 175.339 331.859C176.071 331.614 176.845 331.534 177.661 331.619C179.13 331.773 180.307 332.423 181.192 333.568C182.069 334.72 182.426 336.073 182.264 337.627C182.095 339.236 181.427 340.517 180.259 341.471C179.09 342.432 177.717 342.831 176.139 342.665C175.339 342.582 174.635 342.363 174.028 342.008C173.42 341.662 172.916 341.189 172.515 340.589L172.048 345.053L172.666 345.118C173.342 345.189 173.775 345.293 173.964 345.43C174.146 345.575 174.22 345.807 174.186 346.125C174.157 346.405 174.057 346.607 173.887 346.73C173.709 346.853 173.469 346.899 173.166 346.867L170.777 346.617C170.544 346.592 170.381 346.536 170.288 346.448C170.187 346.359 170.145 346.232 170.162 346.069L171.538 332.934L171.013 332.879C170.633 332.839 170.364 332.744 170.207 332.594C170.049 332.452 169.984 332.241 170.014 331.961C170.041 331.697 170.137 331.499 170.3 331.367C170.463 331.235 170.669 331.182 170.917 331.208L173.167 331.443ZM180.253 337.476C180.365 336.404 180.111 335.489 179.491 334.733C178.872 333.977 178.029 333.543 176.965 333.432C175.893 333.319 174.974 333.581 174.208 334.215C173.442 334.858 173.001 335.727 172.886 336.822C172.773 337.902 173.026 338.828 173.644 339.6C174.255 340.371 175.1 340.813 176.18 340.926C177.276 341.041 178.198 340.78 178.948 340.143C179.698 339.507 180.133 338.618 180.253 337.476Z" fill="#FFF4DE"/>
<path d="M144.309 339.302C144.043 340.102 143.805 340.583 143.595 340.744C143.378 340.902 143.032 340.902 142.557 340.744C142.098 340.592 141.823 340.402 141.734 340.174C141.643 339.955 141.705 339.518 141.922 338.866C142.134 338.228 142.336 337.855 142.529 337.746C142.712 337.643 143.044 337.671 143.526 337.831C144 337.989 144.288 338.163 144.39 338.353C144.484 338.54 144.457 338.857 144.309 339.302ZM146.212 326.708L142.642 325.521C142.353 325.425 142.163 325.292 142.071 325.121C141.97 324.956 141.963 324.74 142.052 324.473C142.153 324.169 142.29 323.98 142.463 323.905C142.626 323.836 142.882 323.859 143.23 323.975L151.86 326.844C152.156 326.943 152.356 327.084 152.46 327.266C152.564 327.449 152.572 327.674 152.483 327.941C152.397 328.2 152.255 328.367 152.057 328.441C151.86 328.516 151.605 328.501 151.294 328.398L147.902 327.27L145.532 334.398L147.7 335.119C148.004 335.22 148.216 335.364 148.334 335.552C148.443 335.745 148.455 335.971 148.368 336.23C148.282 336.49 148.144 336.658 147.954 336.734C147.761 336.819 147.516 336.811 147.22 336.713L143.962 335.629C143.761 335.563 143.619 335.47 143.535 335.352C143.444 335.231 143.421 335.1 143.468 334.959L146.212 326.708Z" fill="#FFF4DE"/>
<path d="M136.886 323.227L133.759 330.057L133.961 330.149C134.444 330.371 134.752 330.58 134.885 330.778C135.01 330.973 135.008 331.213 134.878 331.497C134.758 331.76 134.597 331.914 134.396 331.959C134.191 332.012 133.922 331.962 133.588 331.809L133.087 331.58L132.064 331.111C131.873 331.023 131.741 330.916 131.671 330.789C131.6 330.662 131.595 330.531 131.657 330.396L131.989 329.672C131.249 329.917 130.575 330.038 129.967 330.035C129.348 330.035 128.765 329.91 128.218 329.66C127.145 329.169 126.457 328.449 126.151 327.502C125.839 326.551 125.953 325.486 126.493 324.307L128.702 319.48L128.202 319.251C127.846 319.089 127.618 318.911 127.517 318.719C127.413 318.534 127.42 318.313 127.537 318.057C127.663 317.78 127.84 317.62 128.066 317.578C128.281 317.539 128.602 317.617 129.028 317.812L131.383 318.89C131.837 319.098 132.104 319.285 132.183 319.45C132.262 319.615 132.234 319.847 132.097 320.145C131.97 320.422 131.808 320.58 131.61 320.618C131.412 320.656 131.107 320.581 130.695 320.393L130.322 320.222L128.293 324.654C127.912 325.486 127.811 326.204 127.989 326.81C128.164 327.422 128.61 327.893 129.328 328.221C130.052 328.553 130.804 328.601 131.582 328.364C132.361 328.128 132.916 327.647 133.247 326.923L135.277 322.49L134.904 322.319C134.478 322.124 134.214 321.939 134.114 321.764C134.013 321.59 134.027 321.364 134.153 321.087C134.29 320.788 134.447 320.615 134.623 320.567C134.8 320.519 135.137 320.609 135.634 320.837L137.573 321.724L138.149 321.988C138.44 322.121 138.633 322.282 138.726 322.471C138.81 322.664 138.792 322.892 138.671 323.155C138.541 323.439 138.372 323.594 138.163 323.618C137.944 323.647 137.592 323.55 137.109 323.329L136.886 323.227Z" fill="#FFF4DE"/>
<path d="M105.195 310.121L101.368 307.236L99.6409 313.712L105.195 310.121ZM100.979 314.721L102.345 315.751C102.726 316.038 102.956 316.29 103.037 316.507C103.107 316.726 103.05 316.957 102.867 317.2C102.674 317.456 102.477 317.582 102.275 317.576C102.063 317.573 101.657 317.345 101.058 316.894L98.3911 314.883C98.048 314.624 97.8524 314.404 97.8045 314.221C97.7455 314.039 97.7579 313.789 97.8415 313.471L101.075 301.57L100.916 301.45C100.579 301.196 100.384 300.976 100.329 300.788C100.275 300.6 100.34 300.385 100.523 300.141C100.716 299.886 100.909 299.753 101.103 299.742C101.292 299.738 101.549 299.858 101.873 300.103L104.418 302.022C104.893 302.379 105.163 302.656 105.23 302.853C105.285 303.052 105.217 303.279 105.024 303.535C104.845 303.772 104.649 303.883 104.435 303.868C104.21 303.855 103.895 303.696 103.489 303.39L102.619 302.734L101.848 305.646L106.601 309.229L109.085 307.609L108.177 306.925C107.766 306.614 107.523 306.353 107.448 306.14C107.369 305.934 107.419 305.712 107.597 305.475C107.79 305.219 107.993 305.093 108.205 305.097C108.407 305.102 108.735 305.276 109.191 305.619L111.652 307.475C112.051 307.776 112.281 308.022 112.341 308.215C112.397 308.413 112.329 308.64 112.136 308.896C111.952 309.14 111.76 309.259 111.558 309.253C111.357 309.248 111.069 309.105 110.695 308.822L110.517 308.688L100.979 314.721Z" fill="#FFF4DE"/>
<path d="M95.0468 299.701C95.7209 298.984 96.0623 298.319 96.0708 297.705C96.0794 297.091 95.7563 296.476 95.1016 295.861C94.481 295.278 93.767 294.977 92.9594 294.958C92.1462 294.933 91.4614 295.217 90.905 295.809L87.5907 299.336L88.7607 300.436C88.9827 300.644 89.1021 300.842 89.119 301.03C89.1249 301.217 89.0342 301.411 88.8469 301.61C88.6436 301.827 88.4397 301.935 88.2353 301.936C88.0308 301.937 87.809 301.825 87.5699 301.6L85.7509 299.891C85.5345 299.688 85.4291 299.497 85.4347 299.32C85.4292 299.144 85.5977 298.873 85.9401 298.509L91.4452 292.65L91.0523 292.281C90.7734 292.019 90.6169 291.786 90.583 291.583C90.5433 291.374 90.6225 291.164 90.8204 290.954C91.013 290.749 91.2172 290.651 91.4331 290.661C91.6433 290.666 91.8594 290.772 92.0814 290.981L93.3794 292.201C93.5332 292.345 93.6233 292.489 93.6498 292.632C93.6764 292.775 93.6388 292.9 93.5372 293.008L92.9915 293.589C93.9339 293.681 94.6765 293.832 95.2191 294.042C95.7507 294.252 96.2328 294.56 96.6655 294.967C97.6049 295.85 98.0782 296.761 98.0852 297.7C98.0813 298.64 97.6058 299.614 96.6589 300.621L93.0477 304.464L93.227 304.633C93.6141 304.997 93.8361 305.291 93.8928 305.516C93.9495 305.741 93.8709 305.967 93.6569 306.195C93.4697 306.394 93.2765 306.491 93.0773 306.486C92.8672 306.482 92.6454 306.37 92.412 306.15L91.1225 304.939C90.9232 304.751 90.824 304.583 90.8249 304.434C90.8201 304.279 90.9461 304.065 91.2029 303.792L95.0468 299.701Z" fill="#FFF4DE"/>
<path d="M88.0527 287.981L86.4682 289.337C86.2071 289.561 85.9796 289.673 85.7855 289.675C85.5864 289.671 85.3928 289.559 85.2048 289.339C84.9965 289.096 84.9975 288.761 85.2078 288.334C85.3283 288.066 85.4059 287.85 85.4407 287.687C85.5478 287.163 85.4909 286.574 85.27 285.92C85.0432 285.271 84.6783 284.653 84.1752 284.065C83.6366 283.436 83.0771 283.041 82.4967 282.88C81.9163 282.718 81.4185 282.816 81.0031 283.171C80.5817 283.532 80.4142 283.943 80.5004 284.404C80.5815 284.859 80.9397 285.457 81.5749 286.199L81.9941 286.689C83.0307 287.899 83.6102 289.002 83.7326 289.998C83.855 290.994 83.5156 291.835 82.7145 292.521C81.9312 293.192 81.0587 293.404 80.097 293.158C79.1303 292.905 78.1667 292.219 77.2063 291.097C76.8151 290.64 76.4814 290.118 76.2055 289.532C75.9236 288.95 75.7725 288.648 75.7521 288.624C75.6962 288.559 75.5332 288.483 75.2629 288.395C74.9867 288.313 74.7724 288.183 74.6199 288.005C74.4471 287.803 74.3943 287.591 74.4613 287.369C74.5233 287.141 74.7026 286.9 74.9994 286.646L76.0408 285.754C76.3553 285.485 76.6244 285.337 76.8481 285.31C77.0659 285.288 77.2638 285.381 77.4416 285.588C77.594 285.766 77.6307 286.116 77.5517 286.636C77.5015 286.998 77.4738 287.284 77.4686 287.494C77.4472 288.057 77.5266 288.57 77.7069 289.033C77.8812 289.501 78.1742 289.975 78.5858 290.456C79.0634 291.014 79.5742 291.358 80.1182 291.489C80.6511 291.619 81.1075 291.521 81.4873 291.196C81.8611 290.876 81.9782 290.472 81.8387 289.985C81.6991 289.497 81.1457 288.665 80.1786 287.487C79.1513 286.228 78.5955 285.14 78.5112 284.225C78.421 283.315 78.7943 282.502 79.631 281.785C80.4321 281.099 81.3423 280.865 82.3616 281.082C83.3809 281.3 84.3479 281.942 85.2625 283.011C85.5522 283.349 85.8422 283.754 86.1326 284.225C86.429 284.691 86.7723 285.302 87.1626 286.058C87.4769 286.149 87.7302 286.241 87.9225 286.333C88.1208 286.421 88.2631 286.515 88.3495 286.616C88.5273 286.823 88.5933 287.044 88.5475 287.279C88.4906 287.513 88.3256 287.747 88.0527 287.981Z" fill="#FFF4DE"/>
<path d="M65.4651 273.925C65.249 273.609 65.1473 273.343 65.1599 273.126C65.1681 272.903 65.2915 272.71 65.5301 272.546C65.7558 272.392 65.973 272.343 66.1817 272.399C66.3839 272.459 66.5776 272.625 66.7629 272.896L69.442 276.814L72.6728 274.604C73.7304 273.881 74.3342 273.269 74.4844 272.769C74.6301 272.262 74.4758 271.677 74.0216 271.013C73.6203 270.426 72.9687 269.84 72.0668 269.255C71.1649 268.669 70.6479 268.28 70.5156 268.087C70.3921 267.906 70.3529 267.71 70.3981 267.5C70.4389 267.282 70.5528 267.11 70.7398 266.982C70.9526 266.836 71.1947 266.789 71.4662 266.84C71.7268 266.889 72.0614 267.053 72.4699 267.332C73.1536 267.792 73.7277 268.237 74.1921 268.667C74.6522 269.091 75.0344 269.525 75.3387 269.97C75.8547 270.725 76.1697 271.441 76.2839 272.12C76.3873 272.797 76.2863 273.425 75.9811 274.003C75.8436 274.286 75.6399 274.563 75.3701 274.832C75.0958 275.096 74.6363 275.448 73.9914 275.889L73.6915 276.094L70.4607 278.303L71.5852 279.948C71.7705 280.219 71.8534 280.451 71.834 280.644C71.8081 280.841 71.6759 281.021 71.4373 281.185C71.1729 281.365 70.935 281.405 70.7236 281.304C70.5122 281.202 70.2191 280.877 69.8443 280.329L69.0968 279.236L67.1138 280.592L66.6011 280.943C66.3238 281.132 66.081 281.213 65.8726 281.185C65.6534 281.155 65.4578 281.015 65.2858 280.763C65.0918 280.479 65.0379 280.228 65.1241 280.008C65.2104 279.788 65.5404 279.482 66.1144 279.089L68.078 277.746L65.4651 273.925Z" fill="#FFF4DE"/>
<path d="M56.2104 266.129C55.4666 266.527 54.9632 266.712 54.7003 266.684C54.4337 266.65 54.1824 266.412 53.9464 265.971C53.7178 265.544 53.6493 265.218 53.7409 264.991C53.8256 264.769 54.171 264.495 54.7771 264.171C55.3694 263.854 55.773 263.722 55.9877 263.775C56.1918 263.826 56.4137 264.075 56.6533 264.522C56.8893 264.963 56.9787 265.288 56.9216 265.495C56.8608 265.696 56.6237 265.907 56.2104 266.129ZM66.2525 258.294L64.4773 254.978C64.3335 254.709 64.2869 254.481 64.3377 254.295C64.3778 254.105 64.5219 253.944 64.7698 253.811C65.0522 253.66 65.2817 253.617 65.4583 253.682C65.6243 253.743 65.7939 253.936 65.9672 254.26L70.2588 262.277C70.4063 262.553 70.4549 262.793 70.4047 262.997C70.3544 263.201 70.2053 263.369 69.9574 263.502C69.7163 263.631 69.4985 263.655 69.304 263.573C69.1095 263.491 68.9348 263.305 68.7799 263.016L67.0932 259.864L60.4706 263.41L61.549 265.424C61.7002 265.707 61.7543 265.957 61.7114 266.175C61.658 266.389 61.5107 266.561 61.2697 266.69C61.0286 266.819 60.8126 266.846 60.6218 266.771C60.4241 266.7 60.2515 266.526 60.104 266.251L58.4836 263.224C58.3841 263.038 58.3445 262.873 58.365 262.729C58.3817 262.578 58.4556 262.468 58.5864 262.398L66.2525 258.294Z" fill="#FFF4DE"/>
<path d="M61.8757 249.356L54.9087 252.165L54.9919 252.371C55.1905 252.864 55.2698 253.228 55.2298 253.463C55.1869 253.691 55.0205 253.863 54.7307 253.98C54.4626 254.088 54.2399 254.089 54.0626 253.984C53.8781 253.881 53.7172 253.66 53.5799 253.319L53.374 252.808L52.9535 251.765C52.8746 251.569 52.8531 251.401 52.889 251.26C52.9249 251.12 53.0117 251.021 53.1494 250.966L53.8885 250.668C53.1825 250.338 52.61 249.962 52.1707 249.541C51.7213 249.116 51.3842 248.624 51.1593 248.066C50.7183 246.972 50.7127 245.976 51.1427 245.078C51.5697 244.173 52.3846 243.478 53.5875 242.994L58.5112 241.009L58.3053 240.498C58.1592 240.136 58.1157 239.85 58.1746 239.641C58.2263 239.435 58.3826 239.279 58.6434 239.174C58.926 239.06 59.1639 239.065 59.3572 239.19C59.5403 239.31 59.7195 239.587 59.8947 240.022L60.8629 242.424C61.0499 242.888 61.1153 243.207 61.0591 243.381C61.003 243.555 60.8228 243.703 60.5185 243.826C60.2359 243.94 60.0096 243.943 59.8395 243.834C59.6695 243.726 59.4998 243.462 59.3304 243.041L59.1771 242.661L54.6555 244.484C53.8078 244.825 53.2403 245.277 52.953 245.839C52.6586 246.405 52.6588 247.053 52.9538 247.785C53.2517 248.524 53.7646 249.075 54.4924 249.439C55.2202 249.803 55.9536 249.836 56.6927 249.538L61.2142 247.715L61.0609 247.335C60.8856 246.9 60.8217 246.585 60.8691 246.389C60.9164 246.193 61.0814 246.038 61.364 245.924C61.6683 245.801 61.9011 245.783 62.0624 245.87C62.2236 245.956 62.4065 246.253 62.6109 246.761L63.4083 248.739L63.6448 249.326C63.7646 249.623 63.7935 249.872 63.7317 250.074C63.6597 250.271 63.4896 250.424 63.2215 250.532C62.9317 250.649 62.7024 250.645 62.5338 250.519C62.355 250.389 62.1663 250.077 61.9677 249.585L61.8757 249.356Z" fill="#FFF4DE"/>
<path d="M53.8774 231.752C53.6047 231.764 53.4208 231.731 53.3256 231.652C53.2228 231.575 53.1386 231.421 53.0729 231.187L52.3764 228.717C52.3446 228.605 52.3417 228.508 52.3678 228.428C52.3938 228.347 52.4407 228.297 52.5083 228.278C52.5459 228.268 52.5969 228.262 52.6613 228.26C52.7257 228.258 52.7885 228.264 52.8496 228.28L60.1757 229.562C60.3033 229.583 60.4137 229.629 60.5068 229.7C60.5999 229.771 60.6613 229.86 60.691 229.965C60.6974 229.987 60.701 230.015 60.702 230.047C60.7008 230.072 60.6975 230.117 60.6919 230.184L60.6212 231.056C60.6025 231.191 60.5678 231.298 60.5171 231.378C60.4664 231.457 60.3959 231.509 60.3057 231.535C60.223 231.558 60.1628 231.575 60.1252 231.586C60.0951 231.594 60.0592 231.596 60.0173 231.592L53.8774 231.752Z" fill="#FFF4DE"/>
<path d="M42.9367 205.243C43.5226 205.225 43.901 205.273 44.0721 205.389C44.2349 205.496 44.3265 205.726 44.3469 206.077C44.3628 206.35 44.3046 206.561 44.1724 206.709C44.032 206.85 43.8213 206.929 43.5406 206.945C43.5406 206.945 43.4819 206.945 43.3644 206.944C43.2392 206.943 43.1141 206.947 42.9894 206.954L39.1219 207.062C38.8324 207.063 38.6212 206.997 38.4882 206.864C38.3475 206.731 38.2685 206.517 38.2512 206.22L37.6593 196.054C37.6421 195.758 37.6956 195.535 37.82 195.387C37.9367 195.24 38.139 195.154 38.4271 195.129L42.2803 194.776C42.4207 194.767 42.5531 194.756 42.6774 194.741C42.8017 194.726 42.86 194.718 42.8522 194.719C43.133 194.702 43.3479 194.764 43.4969 194.904C43.6381 195.045 43.7173 195.263 43.7346 195.559C43.7527 195.871 43.6872 196.09 43.5381 196.217C43.3811 196.343 43.0106 196.431 42.4265 196.481L39.3916 196.775L39.5871 200.133L50.1279 199.519L50.023 197.717L49.9964 197.261C49.9773 196.933 50.0298 196.692 50.1537 196.536C50.2699 196.38 50.4684 196.294 50.7491 196.278C51.0221 196.262 51.2368 196.32 51.3931 196.452C51.5417 196.584 51.6237 196.783 51.6391 197.048L52.0213 203.611C52.0367 203.876 51.9783 204.083 51.8461 204.232C51.7061 204.381 51.4996 204.463 51.2266 204.479C50.938 204.496 50.727 204.434 50.5936 204.293C50.4598 204.144 50.3821 203.886 50.3608 203.52L50.3383 203.134L50.2334 201.332L39.6927 201.946L39.8882 205.303L42.9367 205.243Z" fill="#FFF4DE"/>
<path d="M46.6759 188.833C47.8026 188.827 48.6916 188.492 49.3429 187.829C49.9867 187.157 50.339 186.216 50.3998 185.007C50.4456 184.094 50.2537 183.087 49.824 181.986C49.3865 180.885 49.1734 180.221 49.1848 179.994C49.1965 179.76 49.2805 179.569 49.4366 179.42C49.5926 179.272 49.7799 179.203 49.9984 179.214C50.2247 179.225 50.4273 179.318 50.6064 179.491C50.7854 179.664 50.9556 179.935 51.1171 180.303C51.4602 181.102 51.7123 181.924 51.8732 182.769C52.0345 183.607 52.0946 184.435 52.0535 185.254C51.9642 187.033 51.3816 188.432 50.3058 189.449C49.2221 190.467 47.8337 190.933 46.1405 190.848C44.4161 190.761 43.0479 190.125 42.0357 188.94C41.0236 187.755 40.5631 186.254 40.6544 184.435C40.7371 182.789 41.3051 181.449 42.3583 180.414C43.4115 179.38 44.6481 178.898 46.0682 178.97C46.5052 178.992 46.793 179.1 46.9319 179.295C47.0711 179.482 47.1204 179.981 47.0796 180.792L47.0708 180.968L46.6759 188.833ZM45.1456 188.697L45.5282 181.078C44.5938 181.148 43.829 181.501 43.2339 182.136C42.6314 182.763 42.3061 183.556 42.2579 184.516C42.2058 185.554 42.435 186.441 42.9455 187.179C43.456 187.916 44.1894 188.422 45.1456 188.697Z" fill="#FFF4DE"/>
<path d="M51.4376 171.486L51.4913 171.151C51.5529 170.765 51.6743 170.476 51.8554 170.283C52.0288 170.089 52.2466 170.013 52.5089 170.055C52.7867 170.1 52.9757 170.229 53.076 170.443C53.1776 170.649 53.1956 170.956 53.1303 171.365L52.6198 174.559C52.5828 174.79 52.4748 174.971 52.2958 175.101C52.1169 175.23 51.9117 175.277 51.6803 175.24C51.3948 175.194 51.2032 175.057 51.1053 174.827C51.0075 174.598 50.9949 174.256 51.0677 173.801L51.1047 173.569L47.8621 169.206L43.6982 172.314L43.6723 172.476C43.6008 172.924 43.493 173.227 43.3489 173.386C43.1984 173.536 42.9726 173.587 42.6718 173.539C42.3555 173.488 42.1549 173.357 42.07 173.146C41.9786 172.925 41.9773 172.537 42.0661 171.982L42.4453 169.61C42.5119 169.193 42.6294 168.903 42.7979 168.74C42.9599 168.569 43.1836 168.505 43.469 168.551C43.7313 168.593 43.9146 168.733 44.0189 168.971C44.1245 169.202 44.1452 169.518 44.0811 169.919L44.0663 170.011L46.9057 167.914L44.8432 165.151L44.8043 165.394C44.7353 165.826 44.6224 166.136 44.4657 166.325C44.3012 166.512 44.084 166.584 43.814 166.541C43.5131 166.493 43.3119 166.366 43.2104 166.16C43.1011 165.953 43.0798 165.641 43.1463 165.224L43.6273 162.215C43.6655 161.976 43.7735 161.796 43.9512 161.674C44.1224 161.543 44.3276 161.497 44.5668 161.535C44.8522 161.58 45.049 161.711 45.157 161.926C45.2573 162.14 45.2736 162.459 45.2057 162.883L45.1539 163.207L48.0831 167.081L52.688 163.664L52.7065 163.548C52.7534 163.255 52.8631 163.039 53.0355 162.9C53.2003 162.761 53.4138 162.712 53.6761 162.754C53.9847 162.803 54.182 162.929 54.2682 163.133C54.3543 163.337 54.3511 163.728 54.2586 164.306L53.8813 166.667C53.8159 167.076 53.7023 167.366 53.5403 167.538C53.3783 167.71 53.1585 167.774 52.8807 167.729C52.6261 167.689 52.4404 167.564 52.3234 167.356C52.2064 167.147 52.1738 166.881 52.2256 166.557L52.3292 165.909L49.0164 168.37L51.4376 171.486Z" fill="#FFF4DE"/>
<path d="M52.4521 150.458C52.2032 150.835 51.995 151.211 51.8276 151.587C51.6547 151.953 51.5157 152.328 51.4107 152.712C51.0934 153.872 51.0391 154.842 51.2476 155.619C51.4561 156.397 51.892 156.877 52.5552 157.058C53.0676 157.198 53.5463 157.106 53.9912 156.783C54.4381 156.451 54.7502 155.961 54.9273 155.313C55.1889 154.356 55.1823 153.403 54.9074 152.453C54.627 151.493 54.2156 150.94 53.673 150.791L52.4521 150.458ZM56.0376 151.34C56.4264 152.111 56.6678 152.902 56.7619 153.713C56.858 154.517 56.801 155.303 56.5909 156.072C56.284 157.195 55.723 158.017 54.908 158.54C54.095 159.054 53.1874 159.175 52.1851 158.901C50.9944 158.575 50.1959 157.867 49.7895 156.776C49.3852 155.677 49.4096 154.299 49.8629 152.641C49.9823 152.204 50.133 151.771 50.3148 151.343C50.4891 150.913 50.7004 150.481 50.9487 150.047L50.8696 150.025C50.0029 149.788 49.3057 149.82 48.7779 150.121C48.2502 150.423 47.8668 151.01 47.6278 151.884C47.4671 152.472 47.4462 153.171 47.5649 153.981C47.6837 154.791 47.7111 155.313 47.6473 155.546C47.5875 155.765 47.4514 155.922 47.239 156.018C47.0189 156.112 46.7695 156.121 46.4907 156.044C46.0461 155.923 45.7826 155.405 45.7002 154.492C45.6199 153.571 45.7569 152.462 46.1112 151.166C46.4738 149.84 47.0869 148.93 47.9505 148.437C48.8066 147.942 49.8941 147.875 51.2129 148.236L56.3336 149.636L56.485 149.082C56.6313 148.547 56.7856 148.204 56.9481 148.054C57.1106 147.904 57.3388 147.869 57.6327 147.95C57.904 148.024 58.0869 148.155 58.1813 148.343C58.2758 148.53 58.2818 148.775 58.1994 149.076L57.7143 150.851C57.6566 151.062 57.5451 151.218 57.3799 151.319C57.2148 151.419 57.0054 151.459 56.7519 151.439L56.0376 151.34Z" fill="#FFF4DE"/>
<path d="M58.7039 145.132L56.7631 144.368C56.4432 144.242 56.2371 144.093 56.1448 143.923C56.0554 143.745 56.0636 143.521 56.1695 143.252C56.2869 142.954 56.5835 142.798 57.0593 142.784C57.3522 142.765 57.5791 142.733 57.7399 142.687C58.2526 142.536 58.7463 142.21 59.221 141.708C59.6883 141.204 60.0637 140.592 60.3471 139.872C60.6506 139.102 60.7376 138.422 60.6082 137.834C60.4789 137.246 60.1598 136.851 59.651 136.651C59.1348 136.448 58.6933 136.492 58.3264 136.784C57.9623 137.069 57.6014 137.666 57.2435 138.574L57.0073 139.174C56.4234 140.657 55.7201 141.686 54.8977 142.26C54.0753 142.835 53.1734 142.929 52.1921 142.542C51.2326 142.165 50.6364 141.493 50.4034 140.528C50.1734 139.556 50.3289 138.383 50.8699 137.009C51.0904 136.449 51.395 135.91 51.784 135.392C52.1657 134.87 52.3622 134.595 52.3737 134.566C52.4052 134.486 52.3962 134.306 52.3468 134.026C52.2902 133.744 52.3048 133.493 52.3907 133.275C52.488 133.028 52.6505 132.882 52.878 132.838C53.1084 132.786 53.4053 132.831 53.7688 132.974L55.0445 133.477C55.4298 133.628 55.6867 133.797 55.8154 133.982C55.9368 134.164 55.9474 134.382 55.8472 134.637C55.7613 134.855 55.47 135.051 54.9733 135.224C54.6302 135.35 54.3645 135.459 54.1764 135.553C53.6685 135.798 53.2524 136.108 52.9279 136.484C52.5963 136.858 52.3145 137.339 52.0826 137.927C51.8135 138.611 51.7486 139.223 51.8879 139.765C52.0227 140.297 52.3228 140.654 52.788 140.838C53.2459 141.018 53.6575 140.932 54.0227 140.581C54.3878 140.229 54.8641 139.35 55.4514 137.944C56.0832 136.447 56.7836 135.446 57.5527 134.943C58.3146 134.437 59.208 134.386 60.2329 134.789C61.2143 135.176 61.8476 135.87 62.1329 136.873C62.4183 137.875 62.3033 139.031 61.788 140.339C61.6249 140.753 61.4031 141.199 61.1227 141.677C60.8497 142.157 60.4705 142.746 59.9854 143.445C60.0524 143.766 60.0901 144.032 60.0984 144.246C60.1141 144.462 60.0976 144.631 60.0489 144.755C59.9487 145.009 59.7842 145.171 59.5554 145.241C59.3221 145.3 59.0383 145.264 58.7039 145.132Z" fill="#FFF4DE"/>
<path d="M65.2838 127.201C64.7443 126.917 64.3996 126.498 64.2499 125.943C64.1038 125.381 64.1887 124.799 64.5047 124.197C64.8279 123.582 65.2571 123.176 65.7921 122.981C66.3272 122.785 66.8714 122.833 67.4248 123.123C67.9781 123.414 68.3244 123.838 68.4636 124.397C68.6064 124.948 68.518 125.528 68.1984 126.137C67.8788 126.746 67.4515 127.148 66.9164 127.343C66.3813 127.539 65.8371 127.491 65.2838 127.201Z" fill="#FFF4DE"/>
</svg>
